<?xml version="1.0" encoding="UTF-8"?>
<svg width="29px" height="24px" viewBox="0 0 29 24" version="1.1" xmlns="http://www.w3.org/2000/svg" xmlns:xlink="http://www.w3.org/1999/xlink">
    <title>B9AD6AA7-E88E-484E-8384-9BFC12656AC8</title>
    <g id="Returns" stroke="none" stroke-width="1" fill="none" fill-rule="evenodd">
        <g id="Returns-2" transform="translate(-706.000000, -700.000000)" fill="#999999" fill-rule="nonzero">
            <g id="Group-13" transform="translate(387.000000, 120.000000)">
                <g id="Forms-/-Input-Field-/-Title-/-Range-/-Default" transform="translate(115.000000, 544.000000)">
                    <g id="Forms-/-Input-field-/-No-Title-/-Range-/-Default" transform="translate(0.000000, 24.000000)">
                        <g id="Trailing-icon-auto-position" transform="translate(12.000000, 12.000000)">
                            <g id="Icons-/-24px-/-Arrows-/-Arrow-Right" transform="translate(192.008772, 0.000000)">
                                <path d="M7.37552527,2.14059898 C7.54386701,1.98739187 7.8210037,1.95763051 8.03087133,2.05999325 L8.10607458,2.10458954 L21.5622094,11.6879182 C21.7691815,11.8353218 21.7921784,12.0828154 21.6312001,12.2524612 L21.5622094,12.3120818 L8.10607458,21.8954105 C7.8919878,22.047881 7.56490973,22.031759 7.37552527,21.859401 C7.20718352,21.7061939 7.20430126,21.4811112 7.35609904,21.3258994 L7.42025278,21.271247 L20.4378076,11.9991667 L7.42025278,2.72875304 C7.22995341,2.59322368 7.19298667,2.37010518 7.32013197,2.20114396 L7.37552527,2.14059898 Z" id="Stroke-565" transform="translate(14.491228, 12.000000) rotate(-360.000000) translate(-14.491228, -12.000000) "></path>
                            </g>
                        </g>
                    </g>
                </g>
            </g>
        </g>
    </g>
</svg>