<svg xmlns="http://www.w3.org/2000/svg" width="20" height="20" viewBox="0 0 20 20">
    <path fill="#A9A9A9" d="M6.281 0c.274 0 .496.222.496.496l-.001 1.156h6.447V.496c0-.244.176-.446.407-.488L13.719 0h2.48c.273 0 .495.222.495.496v1.156h2.81c.244 0 .446.176.488.408l.008.089v17.355c0 .274-.222.496-.496.496H.496C.222 20 0 19.778 0 19.504V2.15c0-.274.222-.496.496-.496l2.809-.001V.496c0-.244.176-.446.408-.488L3.802 0zm12.727 6.785H.991v12.223h18.017V6.785zm-5.285.653c.276 0 .5.222.5.496V9.09h3.628c.244 0 .446.178.488.411l.008.09c0 .276-.222.5-.496.5l-3.628-.001v2.306h3.628c.244 0 .446.178.488.41l.008.09c0 .277-.222.5-.496.5h-3.628v2.306h3.628c.244 0 .446.176.488.407l.008.09c0 .273-.222.495-.496.495h-3.628v1.157c0 .244-.177.446-.41.488l-.09.008c-.276 0-.5-.222-.5-.496v-1.157H10.09v1.157c0 .244-.176.446-.41.488l-.09.008c-.275 0-.5-.222-.5-.496v-1.157H5.958v1.157c0 .244-.176.446-.41.488l-.09.008c-.275 0-.5-.222-.5-.496v-1.157h-2.81c-.243 0-.445-.175-.487-.407l-.008-.089c0-.274.222-.496.496-.496h2.809v-2.306h-2.81c-.243 0-.445-.176-.487-.41l-.008-.09c0-.275.222-.5.496-.5h2.809V10.09h-2.81c-.243 0-.445-.176-.487-.41l-.008-.09c0-.275.222-.5.496-.5h2.809V7.934c0-.244.178-.446.41-.488l.09-.008c.277 0 .5.222.5.496V9.09H9.09V7.934c0-.244.178-.446.411-.488l.09-.008c.276 0 .5.222.5.496L10.09 9.09h3.133V7.934c0-.244.177-.446.41-.488zM9.09 13.396H5.958v2.306H9.09v-2.306zm4.133 0H10.09v2.306h3.133v-2.306zM9.09 10.09H5.958v2.306H9.09V10.09zm4.133 0H10.09v2.306h3.133V10.09zM3.305 2.644H.992L.99 5.786h18.017v-3.14l-2.314-.001v1.158c0 .243-.175.446-.407.488l-.089.008H13.72c-.274 0-.496-.222-.496-.496v-1.15H6.776v1.15c0 .243-.175.446-.406.488l-.089.008h-2.48c-.273 0-.495-.222-.495-.496l-.001-1.158zM5.785.992H4.298v2.314h1.487V.992zm9.917 0h-1.487v2.314h1.487V.992z"/>
</svg>
