<svg xmlns="http://www.w3.org/2000/svg" width="24" height="24" viewBox="0 0 24 24">
    <g fill="none" fill-rule="evenodd">
        <g fill="#232323" fill-rule="nonzero">
            <g>
                <g>
                    <path d="M2.701 2.005l.07.058L12 11.293l9.23-9.23c.195-.195.512-.195.707 0 .173.174.193.443.058.638l-.058.07L12.707 12l9.23 9.23c.195.195.195.512 0 .707-.174.173-.443.193-.638.058l-.07-.058-9.23-9.23-9.229 9.23c-.195.195-.512.195-.707 0-.173-.174-.193-.443-.058-.638l.058-.07 9.23-9.23-9.23-9.229c-.195-.195-.195-.512 0-.707.174-.173.443-.193.638-.058z" transform="translate(-1376 -160) translate(0 136) translate(1376 24)"/>
                </g>
            </g>
        </g>
    </g>
</svg>
