<svg xmlns="http://www.w3.org/2000/svg" width="24" height="24" viewBox="0 0 24 24">
    <g fill="none" fill-rule="evenodd">
        <g fill="#999" fill-rule="nonzero">
            <path d="M.48 23h23.04c.265 0 .48.224.48.5 0 .245-.17.45-.394.492L23.52 24H.48c-.265 0-.48-.224-.48-.5 0-.245.17-.45.394-.492L.48 23zm11.474-5.002l.021.001-.028-.002-.016-.003h-.002l-.034-.005-.046-.012-.04-.015c-.014-.005-.027-.012-.04-.019-.013-.006-.025-.013-.036-.02l-.017-.012-.018-.013c-.014-.01-.027-.02-.04-.033l-4.012-4.011c-.195-.196-.195-.512 0-.708.174-.173.443-.192.638-.057l.07.057 3.146 3.147V.5c0-.276.224-.5.5-.5.245 0 .45.177.492.41L12.5.5v15.793l3.146-3.147c.174-.173.443-.192.638-.057l.07.057c.173.174.192.443.057.638l-.057.07-4.013 4.011-.019.017-.011.009.043-.037-.048.04-.04.029-.034.02-.041.02-.04.014c-.015.005-.03.009-.046.012l-.033.006-.051.005H12l-.068-.006.022.004z"/>
        </g>
    </g>
</svg>
