<svg xmlns="http://www.w3.org/2000/svg" width="22" height="22" viewBox="0 0 22 22">
    <g fill="none" fill-rule="evenodd">
        <path stroke="#E39800" stroke-linecap="round" stroke-linejoin="round" d="M11.156.041C10.85.014 10.538 0 10.224 0 4.577 0 0 4.477 0 10s4.577 10 10.224 10c3.113 0 5.9-1.36 7.776-3.508" transform="translate(1 1)"/>
        <path fill="#E39800" fill-rule="nonzero" d="M18.698 16.903c-.493-.232-.702-.81-.467-1.294.237-.482.828-.686 1.322-.457.489.236.692.813.457 1.294-.165.337-.512.553-.895.554-.144-.002-.287-.035-.417-.097zm1.143-2.723c-.527-.085-.89-.562-.825-1.08.062-.53.55-.913 1.093-.856.264.027.506.156.673.36.166.202.242.462.211.72-.06.487-.482.854-.983.856H19.84zm-.994-3.676c-.066-.25-.028-.516.106-.74.134-.222.354-.383.61-.447.256-.058.526-.014.75.123.224.137.383.355.442.606.075.259.037.536-.104.766-.141.23-.373.393-.641.45-.073.01-.146.01-.219 0-.466.002-.871-.313-.974-.758h.03zm-.994-2.412c-.14-.22-.185-.484-.125-.736s.219-.47.443-.606c.224-.138.495-.182.752-.123.257.058.48.214.62.434.14.219.185.484.125.735-.06.252-.219.47-.443.607-.159.096-.341.146-.527.146-.364.021-.712-.154-.904-.457h.06zm-1.818-1.945c-.426-.334-.497-.942-.16-1.362.342-.417.963-.487 1.392-.156.208.161.341.396.371.654.03.257-.046.516-.212.718-.19.228-.474.36-.775.36-.224-.002-.441-.077-.616-.214zM13.7 4.892c-.257-.078-.47-.254-.592-.489-.122-.234-.141-.507-.054-.756.183-.503.746-.768 1.262-.593.518.175.794.728.616 1.235-.133.373-.482.63-.884.652-.119.006-.237-.01-.348-.049z" transform="translate(1 1)"/>
        <path fill-rule="nonzero" stroke="#E39800" stroke-linecap="round" stroke-linejoin="round" d="M10 6v6.2c.001.274-.09.538-.253.733L8 15" transform="translate(1 1)"/>
    </g>
</svg>
