<?xml version="1.0" encoding="utf-8"?>
<!-- Generator: Adobe Illustrator 21.1.0, SVG Export Plug-In . SVG Version: 6.00 Build 0)  -->
<svg version="1.1" id="Layer_1" xmlns="http://www.w3.org/2000/svg" xmlns:xlink="http://www.w3.org/1999/xlink" x="0px" y="0px"
	 viewBox="0 0 24 24" style="enable-background:new 0 0 24 24;" xml:space="preserve">
<style type="text/css">
	.st0{fill:#999999;}
</style>
<g>
	<g>
		<g>
			<g>
				<g>
					<path class="st0" d="M12,0C5.4,0,0,5.4,0,12c0,6.6,5.4,12,12,12s12-5.4,12-12C24,5.4,18.6,0,12,0z M12,1c6.1,0,11,4.9,11,11
						s-4.9,11-11,11S1,18.1,1,12C1,5.9,5.9,1,12,1z"/>
				</g>
			</g>
		</g>
	</g>
	<g>
		<g>
			<g>
				<g>
					<path class="st0" d="M18.3,11.5c0.3,0,0.5,0.2,0.5,0.5c0,0.2-0.2,0.4-0.4,0.5l-0.1,0H5.7c-0.3,0-0.5-0.2-0.5-0.5
						c0-0.2,0.2-0.4,0.4-0.5l0.1,0H18.3z"/>
				</g>
			</g>
		</g>
	</g>
</g>
</svg>
