<?xml version="1.0" encoding="UTF-8"?>
<svg width="24px" height="24px" viewBox="0 0 24 24" version="1.1" xmlns="http://www.w3.org/2000/svg" xmlns:xlink="http://www.w3.org/1999/xlink">
    <title>CE72E641-630F-4AA7-B409-3EC65DB4FFFA</title>
    <g id="Auditors-Dashboard" stroke="none" stroke-width="1" fill="none" fill-rule="evenodd">
        <g id="Approvals-&amp;-Rejections-1" transform="translate(-305.000000, -580.000000)" fill-rule="nonzero">
            <g id="Group-11-Copy" transform="translate(269.000000, 556.000000)">
                <g id="Partials-/-Icons-/-Summary" transform="translate(24.000000, 12.000000)">
                    <g id="Icons-/-24px-/-Main-/-Calendar" transform="translate(12.000000, 12.000000)">
                        <path d="M0.480801336,8.01168614 L23.5191987,8.01168614 C23.7847379,8.01168614 24,7.78782852 24,7.51168614 C24,7.23554377 23.7847379,7.01168614 23.5191987,7.01168614 L0.480801336,7.01168614 C0.21526209,7.01168614 0,7.23554377 0,7.51168614 C0,7.78782852 0.21526209,8.01168614 0.480801336,8.01168614 Z" id="Stroke-Gold" fill="#D99A29"></path>
                        <path d="M7.49248748,5.32907052e-15 C7.75802672,5.32907052e-15 7.97328881,0.21526209 7.97328881,0.480801336 L7.97328881,0.480801336 L7.973,2.003 L16.026,2.003 L16.0267112,0.480801336 C16.0267112,0.244766451 16.1967948,0.0484567257 16.4210879,0.00774635323 L16.5075125,5.32907052e-15 L19.5125209,5.32907052e-15 C19.7780601,5.32907052e-15 19.9933222,0.21526209 19.9933222,0.480801336 L19.9933222,0.480801336 L19.993,2.003 L23.5191987,2.0033389 C23.7552335,2.0033389 23.9515433,2.17342253 23.9922536,2.39771559 L24,2.48414023 L24,23.5191987 C24,23.7847379 23.7847379,24 23.5191987,24 L23.5191987,24 L0.480801336,24 C0.21526209,24 0,23.7847379 0,23.5191987 L0,23.5191987 L0,2.48414023 C0,2.21860099 0.21526209,2.0033389 0.480801336,2.0033389 L0.480801336,2.0033389 L4.006,2.003 L4.0066778,0.480801336 C4.0066778,0.244766451 4.17676142,0.0484567257 4.40105448,0.00774635323 L4.48747913,5.32907052e-15 Z M4.006,2.964 L0.961602671,2.96494157 L0.961602671,23.0383973 L23.0383973,23.0383973 L23.0383973,2.96494157 L19.993,2.964 L19.9933222,4.48747913 C19.9933222,4.72351402 19.8232386,4.91982374 19.5989455,4.96053411 L19.5125209,4.96828047 L16.5075125,4.96828047 C16.2419733,4.96828047 16.0267112,4.75301838 16.0267112,4.48747913 L16.0267112,4.48747913 L16.026,3.003 L7.973,3.003 L7.97328881,4.48747913 C7.97328881,4.72351402 7.80320519,4.91982374 7.57891213,4.96053411 L7.49248748,4.96828047 L4.48747913,4.96828047 C4.22193989,4.96828047 4.0066778,4.75301838 4.0066778,4.48747913 L4.0066778,4.48747913 L4.006,2.964 Z M16.5267112,9.01502504 C16.8028536,9.01502504 17.0267112,9.23028713 17.0267112,9.49582638 L17.0267112,9.49582638 L17.026,11.018 L21.5158598,11.0183639 C21.7518947,11.0183639 21.9482044,11.1952391 21.9889147,11.4284883 L21.9966611,11.5183639 C21.9966611,11.7945063 21.781399,12.0183639 21.5158598,12.0183639 L21.5158598,12.0183639 L17.026,12.018 L17.026,15.025 L21.5158598,15.0250417 C21.7518947,15.0250417 21.9482044,15.2019169 21.9889147,15.4351661 L21.9966611,15.5250417 C21.9966611,15.8011841 21.781399,16.0250417 21.5158598,16.0250417 L21.5158598,16.0250417 L17.026,16.025 L17.026,19.031 L21.5158598,19.0317195 C21.7518947,19.0317195 21.9482044,19.2018032 21.9889147,19.4260962 L21.9966611,19.5125209 C21.9966611,19.7780601 21.781399,19.9933222 21.5158598,19.9933222 L21.5158598,19.9933222 L17.026,19.993 L17.0267112,21.5158598 C17.0267112,21.7518947 16.849836,21.9482044 16.6165868,21.9889147 L16.5267112,21.9966611 C16.2505688,21.9966611 16.0267112,21.781399 16.0267112,21.5158598 L16.0267112,21.5158598 L16.026,19.993 L12.018,19.993 L12.0183639,21.5158598 C12.0183639,21.7518947 11.8414888,21.9482044 11.6082396,21.9889147 L11.5183639,21.9966611 C11.2422216,21.9966611 11.0183639,21.781399 11.0183639,21.5158598 L11.0183639,21.5158598 L11.018,19.993 L7.01,19.993 L7.01001669,21.5158598 C7.01001669,21.7518947 6.83314153,21.9482044 6.59989233,21.9889147 L6.51001669,21.9966611 C6.23387432,21.9966611 6.01001669,21.781399 6.01001669,21.5158598 L6.01001669,21.5158598 L6.01,19.993 L2.48414023,19.9933222 C2.24810535,19.9933222 2.05179562,19.8232386 2.01108525,19.5989455 L2.0033389,19.5125209 C2.0033389,19.2469816 2.21860099,19.0317195 2.48414023,19.0317195 L2.48414023,19.0317195 L6.01,19.031 L6.01,16.025 L2.48414023,16.0250417 C2.24810535,16.0250417 2.05179562,15.8481666 2.01108525,15.6149174 L2.0033389,15.5250417 C2.0033389,15.2488994 2.21860099,15.0250417 2.48414023,15.0250417 L2.48414023,15.0250417 L6.01,15.025 L6.01,12.018 L2.48414023,12.0183639 C2.24810535,12.0183639 2.05179562,11.8414888 2.01108525,11.6082396 L2.0033389,11.5183639 C2.0033389,11.2422216 2.21860099,11.0183639 2.48414023,11.0183639 L2.48414023,11.0183639 L6.01,11.018 L6.01001669,9.49582638 C6.01001669,9.25979149 6.18689186,9.06348177 6.42014106,9.02277139 L6.51001669,9.01502504 C6.78615907,9.01502504 7.01001669,9.23028713 7.01001669,9.49582638 L7.01001669,9.49582638 L7.01,11.018 L11.018,11.018 L11.0183639,9.49582638 C11.0183639,9.25979149 11.1952391,9.06348177 11.4284883,9.02277139 L11.5183639,9.01502504 C11.7945063,9.01502504 12.0183639,9.23028713 12.0183639,9.49582638 L12.0183639,9.49582638 L12.018,11.018 L16.026,11.018 L16.0267112,9.49582638 C16.0267112,9.25979149 16.2035863,9.06348177 16.4368356,9.02277139 Z M11.018,16.025 L7.01,16.025 L7.01,19.031 L11.018,19.031 L11.018,16.025 Z M16.026,16.025 L12.018,16.025 L12.018,19.031 L16.026,19.031 L16.026,16.025 Z M11.018,12.018 L7.01,12.018 L7.01,15.025 L11.018,15.025 L11.018,12.018 Z M16.026,12.018 L12.018,12.018 L12.018,15.025 L16.026,15.025 L16.026,12.018 Z M7.01168614,0.961602671 L4.96828047,0.961602671 L4.96828047,4.0066778 L7.01168614,4.0066778 L7.01168614,0.961602671 Z M19.0317195,0.961602671 L16.9883139,0.961602671 L16.9883139,4.0066778 L19.0317195,4.0066778 L19.0317195,0.961602671 Z" id="Stroke-Primary" fill="#006450"></path>
                    </g>
                </g>
            </g>
        </g>
    </g>
</svg>