<?xml version="1.0" encoding="UTF-8"?>
<svg width="24px" height="24px" viewBox="0 0 24 24" version="1.1" xmlns="http://www.w3.org/2000/svg" xmlns:xlink="http://www.w3.org/1999/xlink">
    <title>C5638AE2-C797-41B6-BA1F-47D5DBAB950F</title>
    <g id="Auditors-Dashboard" stroke="none" stroke-width="1" fill="none" fill-rule="evenodd">
        <g id="Approvals-&amp;-Rejections-4" transform="translate(-40.000000, -161.000000)" fill="#FFFFFF" fill-rule="nonzero">
            <g id="Components-/-Notifications-/-Information" transform="translate(0.000000, 136.000000)">
                <g id="Icons-/-24px-/-Main---Gray-/-Information" transform="translate(40.000000, 25.000000)">
                    <path d="M12,0.0217391304 C18.6145827,0.0217391304 23.9782609,5.38508052 23.9782609,12 C23.9782609,18.6149195 18.6145827,23.9782609 12,23.9782609 C5.38403707,23.9782609 0.0217391304,18.6156262 0.0217391304,12 C0.0217391304,5.38437381 5.38403707,0.0217391304 12,0.0217391304 Z M12,1.02173913 C5.93633588,1.02173913 1.02173913,5.9366445 1.02173913,12 C1.02173913,18.0633555 5.93633588,22.9782609 12,22.9782609 C18.062312,22.9782609 22.9782609,18.0626207 22.9782609,12 C22.9782609,5.93737933 18.062312,1.02173913 12,1.02173913 Z M12,9.41304348 C12.2454599,9.41304348 12.4496084,9.58991864 12.4919443,9.82316785 L12.5,9.91304348 L12.5,18.7826087 L12.4977391,18.8037391 L15.1304348,18.8043478 C15.4065772,18.8043478 15.6304348,19.0282055 15.6304348,19.3043478 C15.6304348,19.5498077 15.4535596,19.7539562 15.2203104,19.7962922 L15.1304348,19.8043478 L8.86956522,19.8043478 C8.59342284,19.8043478 8.36956522,19.5804902 8.36956522,19.3043478 C8.36956522,19.0588879 8.54644038,18.8547395 8.77968959,18.8124035 L8.86956522,18.8043478 L11.5017391,18.8037391 L11.5,18.7826087 L11.499,10.413 L9.91304348,10.4130435 C9.66758359,10.4130435 9.46343511,10.2361683 9.42109915,10.0029191 L9.41304348,9.91304348 C9.41304348,9.66758359 9.58991864,9.46343511 9.82316785,9.42109915 L9.91304348,9.41304348 L12,9.41304348 Z M11.4782609,4.7173913 C12.0413598,4.7173913 12.5,5.17603154 12.5,5.73913043 C12.5,6.30390632 12.0417727,6.76086957 11.4782609,6.76086957 C10.913075,6.76086957 10.4565217,6.30431629 10.4565217,5.73913043 C10.4565217,5.17561863 10.913485,4.7173913 11.4782609,4.7173913 Z" id="Stroke-Gray"></path>
                </g>
            </g>
        </g>
    </g>
</svg>