<?xml version="1.0" encoding="UTF-8"?>
<svg width="24px" height="24px" viewBox="0 0 24 24" version="1.1" xmlns="http://www.w3.org/2000/svg" xmlns:xlink="http://www.w3.org/1999/xlink">
    <title>ACCFAF95-AB3E-4EDE-B349-D49A25535761</title>
    <g id="Icons" stroke="none" stroke-width="1" fill="none" fill-rule="evenodd">
        <g id="Icons-/-24px-/-Main-/-Download" fill-rule="nonzero">
            <path d="M12,0 C12.2454599,0 12.4496084,0.176875161 12.4919443,0.410124368 L12.5,0.5 L12.5,16.293 L15.6464466,13.1464466 C15.820013,12.9728803 16.0894374,12.9535951 16.2843055,13.0885912 L16.3535534,13.1464466 C16.5271197,13.320013 16.5464049,13.5894374 16.4114088,13.7843055 L16.3535534,13.8535534 L12.3535534,17.8535534 L12.3412864,17.8654113 C12.3288187,17.8770608 12.3157542,17.8880797 12.3021439,17.8984173 L12.3535534,17.8535534 C12.3267191,17.8803877 12.2975936,17.9035342 12.2668065,17.922993 C12.2556825,17.9299807 12.2440467,17.9367067 12.2321272,17.9429657 C12.2182757,17.9502504 12.2045389,17.9566485 12.1905951,17.9623894 C12.1780251,17.9675915 12.1647369,17.9724419 12.1511992,17.9767316 C12.1358347,17.981552 12.1204743,17.9856039 12.1049871,17.9889143 C12.0943062,17.9912471 12.0832525,17.9932298 12.0720792,17.994843 C12.0548708,17.9972949 12.0377348,17.998877 12.0205695,17.9995793 C12.0137573,17.9998604 12.0068949,18 12,18 L11.9804335,17.9996194 C11.9629328,17.9989382 11.945461,17.9973429 11.9280959,17.9948333 L12,18 C11.963903,18 11.9286993,17.9961748 11.8947723,17.9889078 C11.8795257,17.9856039 11.8641653,17.981552 11.8489884,17.9767587 C11.8352631,17.9724419 11.8219749,17.9675915 11.8089634,17.9622078 C11.7954611,17.9566485 11.7817243,17.9502504 11.7682418,17.943195 C11.7559533,17.9367067 11.7443175,17.9299807 11.7329897,17.922812 C11.7272981,17.9192668 11.7214636,17.9154054 11.7156945,17.9114088 L11.6978561,17.8984173 C11.6842458,17.8880797 11.6711813,17.8770608 11.6587136,17.8654113 L11.6464466,17.8535534 L7.64644661,13.8535534 C7.45118446,13.6582912 7.45118446,13.3417088 7.64644661,13.1464466 C7.82001296,12.9728803 8.08943736,12.9535951 8.2843055,13.0885912 L8.35355339,13.1464466 L11.5,16.293 L11.5,0.5 C11.5,0.223857625 11.7238576,0 12,0 Z" id="Stroke-Primary" fill="#006450"></path>
            <path d="M23.52,23 C23.7850967,23 24,23.2238576 24,23.5 C24,23.7454599 23.8301998,23.9496084 23.6062806,23.9919443 L23.52,24 L0.48,24 C0.21490332,24 0,23.7761424 0,23.5 C0,23.2545401 0.169800154,23.0503916 0.393719393,23.0080557 L0.48,23 L23.52,23 Z" id="Stroke-Gold" fill="#D99A29" transform="translate(12.000000, 23.500000) rotate(-180.000000) translate(-12.000000, -23.500000) "></path>
        </g>
    </g>
</svg>