<?xml version="1.0" encoding="UTF-8"?>
<svg width="24px" height="24px" viewBox="0 0 24 24" version="1.1" xmlns="http://www.w3.org/2000/svg" xmlns:xlink="http://www.w3.org/1999/xlink">
    <title>31D24D18-4CD1-4932-8AEB-C3CC3EEC9DA2</title>
    <g id="VAT-Registration" stroke="none" stroke-width="1" fill="none" fill-rule="evenodd">
        <g id="VAT-Deregistration-1" transform="translate(-1010.000000, -259.000000)" fill="#999999" fill-rule="nonzero">
            <g id="Components-/-PopUp-/-Instructions-&amp;-Conditions" transform="translate(366.000000, 219.000000)">
                <g id="Icons-/-24px-/-Remove-&amp;-Add-/-Close" transform="translate(644.000000, 40.000000)">
                    <path d="M2.70097217,2.00525783 L2.77022006,2.06311328 L11.9996667,11.2926667 L21.2297799,2.06311328 C21.4250421,1.86785113 21.7416246,1.86785113 21.9368867,2.06311328 C22.1104531,2.23667963 22.1297382,2.50610403 21.9947422,2.70097217 L21.9368867,2.77022006 L12.7066667,11.9996667 L21.9368867,21.2297799 C22.1321489,21.4250421 22.1321489,21.7416246 21.9368867,21.9368867 C21.7633204,22.1104531 21.493896,22.1297382 21.2990278,21.9947422 L21.2297799,21.9368867 L11.9996667,12.7066667 L2.77022006,21.9368867 C2.57495791,22.1321489 2.25837542,22.1321489 2.06311328,21.9368867 C1.88954692,21.7633204 1.87026177,21.493896 2.00525783,21.2990278 L2.06311328,21.2297799 L11.2926667,11.9996667 L2.06311328,2.77022006 C1.86785113,2.57495791 1.86785113,2.25837542 2.06311328,2.06311328 C2.23667963,1.88954692 2.50610403,1.87026177 2.70097217,2.00525783 Z" id="Stroke-2966"></path>
                </g>
            </g>
        </g>
    </g>
</svg>