<?xml version="1.0" encoding="UTF-8"?>
<svg width="24px" height="24px" viewBox="0 0 24 24" version="1.1" xmlns="http://www.w3.org/2000/svg" xmlns:xlink="http://www.w3.org/1999/xlink">
    <title>02B6FD6C-2029-4412-88A4-55285DD7C8B2</title>
    <g id="VAT-Registration" stroke="none" stroke-width="1" fill="none" fill-rule="evenodd">
        <g id="VAT-Deregistration-2" transform="translate(-671.000000, -629.000000)" fill="#999999" fill-rule="nonzero">
            <g id="Components-/-Input-Field-/-Title-/-Filled" transform="translate(270.000000, 593.000000)">
                <g id="Components-/-Input-Field-/-No-Title-/-Filled" transform="translate(0.000000, 24.000000)">
                    <g id="Icons-/-24px-/-Arrows---Gray-/-Arrow-Dropdown" transform="translate(401.000000, 12.000000)">
                        <path d="M6.10458954,2.14059898 C6.2401189,1.98739187 6.46323741,1.95763051 6.63219863,2.05999325 L6.69274361,2.10458954 L17.5260717,11.6879182 C17.6927018,11.8353218 17.7112163,12.0828154 17.5816151,12.2524612 L17.5260717,12.3120818 L6.69274361,21.8954105 C6.52038562,22.047881 6.25706008,22.031759 6.10458954,21.859401 C5.96906018,21.7061939 5.96673971,21.4811112 6.08894978,21.3258994 L6.14059898,21.271247 L16.620833,11.9991667 L6.14059898,2.72875304 C5.98739187,2.59322368 5.95763051,2.37010518 6.05999325,2.20114396 L6.10458954,2.14059898 Z" id="Stroke-565" transform="translate(11.833333, 12.000000) rotate(-270.000000) translate(-11.833333, -12.000000) "></path>
                    </g>
                </g>
            </g>
        </g>
    </g>
</svg>