<svg xmlns="http://www.w3.org/2000/svg" width="24" height="24" viewBox="0 0 24 24">
    <g fill="none" fill-rule="evenodd">
        <g fill-rule="nonzero">
            <g>
                <g>
                    <g>
                        <path fill="#D99A29" d="M11.5 16c.276 0 .5.224.5.5s-.224.5-.5.5-.5-.224-.5-.5.224-.5.5-.5zm1.152-12c2.017 0 3.652 1.635 3.652 3.652 0 2.017-1.635 3.652-3.652 3.652-.256 0-.469.185-.513.428l-.009.094v2.087c0 .288-.233.522-.521.522-.256 0-.47-.185-.514-.428l-.008-.094v-2.087c0-.814.62-1.482 1.414-1.558l.151-.007c1.44 0 2.609-1.168 2.609-2.609 0-1.44-1.168-2.609-2.609-2.609-1.44 0-2.609 1.168-2.609 2.61 0 .287-.233.52-.521.52-.288 0-.522-.233-.522-.52C9 5.634 10.635 4 12.652 4z" transform="translate(-1139 -41) translate(-1 -1) translate(948 34) translate(192 8)"/>
                        <path fill="#FFF" d="M21.13 0H3.74C2.777 0 2 .782 2 1.746v17.488c0 .964.778 1.746 1.74 1.746h5.217c.156 0 .304.06.413.17l2.653 2.678c.227.23.597.23.824 0l2.655-2.681c.106-.107.254-.168.408-.167h5.22c.962 0 1.74-.782 1.74-1.746V1.746C22.87.782 22.092 0 21.13 0zM3.74 1.16h17.39c.32 0 .58.262.58.586v17.488c0 .324-.26.586-.58.586h-5.217l-.171.008c-.398.037-.774.213-1.061.5l-2.246 2.268-2.244-2.266c-.33-.33-.775-.513-1.238-.51H3.74c-.32 0-.58-.262-.58-.586V1.746c0-.324.26-.586.58-.586z" transform="translate(-1139 -41) translate(-1 -1) translate(948 34) translate(192 8)"/>
                    </g>
                </g>
            </g>
        </g>
    </g>
</svg>
