<svg xmlns="http://www.w3.org/2000/svg" width="24" height="24" viewBox="0 0 24 24">
    <g fill="none" fill-rule="evenodd">
        <g fill-rule="nonzero">
            <path fill="#D99A29" d="M18.173 2.197c.18-.177.458-.195.66-.056l.07.06 2.899 2.9c.201.2.2.525-.003.724-.18.177-.459.195-.66.056l-.071-.06-2.898-2.899c-.201-.2-.2-.525.003-.725z"/>
            <path fill="#006450" d="M19.618.752c1.002-1.003 2.63-1.003 3.633 0 .999 1 .999 2.618 0 3.62L6.681 20.948l-.002.003c-.036.035-.076.064-.117.086l-.014.007-5.796 2.899c-.444.222-.917-.244-.696-.685l2.898-5.798c.028-.054.06-.098.1-.137zM3.558 18.556L1.67 22.334l3.776-1.889-1.888-1.889zM22.517 1.474c-.598-.599-1.567-.599-2.165 0L4.144 17.686l2.169 2.172L22.516 3.651c.526-.527.591-1.339.198-1.936l-.092-.125z"/>
        </g>
    </g>
</svg>
