<svg xmlns="http://www.w3.org/2000/svg" width="24" height="24" viewBox="0 0 24 24">
    <g fill="none" fill-rule="evenodd">
        <g fill-rule="nonzero">
            <g>
                <g>
                    <g>
                        <path fill="#FFF" d="M10.5.06l-.09.008C10.177.11 10 .315 10 .56l-.001 2.856-.24.062c-.79.206-1.421.407-1.925.636l-.166.078L5.635 2.16c-.195-.195-.511-.195-.707 0L2.1 4.99l-.058.069c-.135.195-.115.464.058.638l2.033 2.031-.078.165c-.229.504-.43 1.134-.637 1.925l-.063.242H.5c-.276 0-.5.224-.5.5v3l.008.09c.042.233.246.41.492.41h2.854l.063.242c.207.791.408 1.421.637 1.925l.078.164-2.033 2.034c-.195.195-.195.511 0 .707l2.83 2.828.069.058c.195.134.464.115.638-.058l2.031-2.034.165.08c.504.228 1.134.43 1.926.637l.241.062v2.855c0 .276.225.5.5.5h3l.09-.008c.234-.042.41-.246.41-.492v-2.855l.243-.062c.791-.207 1.421-.409 1.924-.637l.165-.078 2.034 2.032c.195.195.511.195.706 0l2.828-2.828.058-.07c.135-.194.116-.464-.057-.637l-2.033-2.034.08-.164c.227-.504.429-1.134.636-1.925l.062-.242H23.5c.276 0 .5-.224.5-.5v-3l-.008-.09c-.042-.233-.247-.41-.492-.41h-2.856l-.06-.239c-.206-.788-.409-1.421-.637-1.927l-.08-.167 2.032-2.03c.196-.196.196-.512 0-.707L19.07 2.16l-.069-.057c-.195-.135-.464-.116-.638.057L16.33 4.192l-.165-.078c-.504-.229-1.135-.43-1.925-.636l-.241-.062V.56c0-.276-.223-.5-.5-.5h-3zm.499 1h2v2.748c0 .231.16.432.384.486 1.31.316 2.226.607 2.776.943l.088.042c.18.067.386.025.526-.115l1.943-1.944 2.122 2.122-1.942 1.942c-.163.164-.193.417-.073.614.336.552.629 1.473.944 2.78l.027.08c.078.18.257.302.459.302h2.746v2h-2.745c-.23 0-.432.158-.486.382l-.145.579c-.264 1.008-.516 1.734-.8 2.2l-.042.087c-.067.18-.025.387.115.527l1.943 1.942-2.122 2.122-1.944-1.943c-.163-.163-.417-.193-.614-.072-.55.335-1.463.626-2.777.944l-.08.027c-.181.078-.302.257-.302.46l-.001 2.745h-2v-2.746c0-.23-.157-.432-.381-.486-1.315-.318-2.229-.609-2.78-.946l-.087-.042c-.18-.067-.387-.024-.527.116l-1.943 1.942-2.121-2.121 1.943-1.942c.164-.164.194-.418.074-.615-.336-.55-.627-1.464-.945-2.778l-.027-.08c-.078-.181-.257-.302-.46-.302H1v-2h2.747c.23 0 .432-.158.486-.382.318-1.314.609-2.228.945-2.778l.042-.088c.067-.18.024-.387-.116-.527L3.16 5.342 5.282 3.22l1.943 1.944c.164.163.418.193.615.073.55-.336 1.466-.627 2.777-.943l.081-.027c.18-.078.302-.257.302-.459l-.001-2.748z" transform="translate(-1075 -41) translate(-1 -1) translate(948 34) translate(128 8)"/>
                        <path fill="#D99A29" d="M12 7.06c-2.761 0-5 2.239-5 5 0 2.762 2.239 5 5 5s5-2.238 5-5c0-2.761-2.239-5-5-5zm0 1c2.209 0 4 1.791 4 4 0 2.21-1.79 4-4 4s-4-1.79-4-4c0-2.209 1.791-4 4-4z" transform="translate(-1075 -41) translate(-1 -1) translate(948 34) translate(128 8)"/>
                    </g>
                </g>
            </g>
        </g>
    </g>
</svg>
