<svg xmlns="http://www.w3.org/2000/svg" width="24" height="24" viewBox="0 0 24 24">
    <g fill="none" fill-rule="evenodd">
        <g fill-rule="nonzero">
            <g>
                <g>
                    <path fill="#D99A29" d="M5.893 13.94c.133.001.26.01.384.027.123.017.234.042.334.076l-.098.45c-.097-.037-.196-.063-.295-.078-.1-.016-.198-.024-.292-.024-.057 0-.111.004-.164.013-.052.008-.1.024-.14.047-.042.024-.075.053-.099.09-.024.037-.037.084-.037.14 0 .049.01.092.03.13.021.037.052.072.094.106.043.033.096.066.162.098.065.033.142.067.232.103.113.046.215.095.307.145.092.05.173.108.242.174.069.065.12.141.157.228.036.085.053.188.053.309 0 .136-.03.255-.084.358-.056.102-.131.186-.226.252-.095.067-.204.116-.326.147-.121.032-.249.048-.382.048-.126 0-.26-.013-.406-.034-.145-.023-.288-.058-.428-.108l.101-.457c.128.052.254.09.379.113.124.023.236.035.336.035.154 0 .27-.025.35-.077.08-.053.121-.133.124-.24 0-.052-.01-.097-.03-.137-.02-.04-.053-.077-.098-.112-.045-.034-.1-.069-.17-.102-.067-.034-.147-.068-.24-.105-.11-.044-.209-.091-.298-.143-.09-.052-.168-.11-.235-.176-.066-.065-.117-.14-.153-.222-.035-.082-.053-.175-.053-.28 0-.141.03-.263.086-.364.057-.1.132-.183.226-.246.094-.065.198-.111.312-.14.114-.029.23-.044.345-.043zm4.095.06l1.065.004c.123 0 .242.013.358.04.115.025.217.067.304.125.09.058.16.135.211.232.052.096.079.213.078.352 0 .161-.041.295-.122.401-.081.106-.196.185-.345.235v.008c.043.016.082.035.115.058.033.024.062.054.088.091.026.037.05.084.073.14.022.057.045.13.069.22l.125.417.125.43-.604-.002-.043-.172-.05-.198-.047-.19-.042-.16c-.02-.074-.042-.136-.065-.187-.022-.05-.052-.09-.09-.12-.037-.029-.086-.05-.147-.063-.062-.013-.141-.02-.238-.02h-.262l-.004 1.106-.561-.001L9.988 14zm-2.061-.007l.769.003.975 2.749-.604-.002-.244-.67-1.057-.004-.24.669-.596-.002.997-2.743zm.375.44l-.404 1.183.796.003-.392-1.186zm2.246.019l-.003.738.37.001c.076 0 .147-.005.211-.016.064-.012.12-.032.168-.06.047-.027.084-.065.11-.112.025-.048.038-.107.039-.18 0-.074-.014-.135-.042-.184-.028-.048-.066-.087-.113-.114-.048-.026-.102-.045-.165-.056-.063-.01-.127-.016-.19-.016l-.385-.001z" transform="translate(-299 -1712) translate(287 1700) translate(12 12)"/>
                    <path fill="#006450" d="M11.988 11.957l-.023 6.955-.075.062c-.857.706-1.897 1.048-2.93 1.044-1.322-.004-2.634-.575-3.538-1.674-1.609-1.957-1.327-4.858.63-6.468 1.702-1.4 4.168-1.392 5.861.019l.075.062zm.008-2.508l-.007 1.995-.316-.204c-1.118-.722-2.45-.965-3.75-.686-1.301.28-2.416 1.05-3.138 2.167-.721 1.118-.965 2.45-.686 3.752.28 1.3 1.05 2.415 2.168 3.136 1.63 1.054 3.742 1.06 5.38.018l.317-.202-.013 3.902-.167.031c-.911.172-1.844.257-2.771.254H8.95c-1.407-.005-3.456-.195-5.221-1.074-2.226-1.107-3.35-2.98-3.342-5.566C.4 13.096 2.754 8.249 6.675 6.845l.033-.013 4.599.015.035.013c1.15.442 2.201 1.153 3.037 2.058l.32.346-2.51-.008c-.106 0-.193.087-.193.193zm-.385-4.596l-.005 1.608-5.2-.017.006-1.608 5.2.017zm-6.79-1.51L4.828.84l1.323.005.74.744c.074.075.197.076.273 0L7.907.85l2.235.008.739.744c.075.075.197.076.273 0l.744-.739 1.323.005-.009 2.503-1.47 1.095-5.458-.017L4.82 3.344zM23.168 9.68l-.009 2.805-10.786-.035.009-2.805 10.786.035zm-.045 13.978l-10.786-.034.035-10.787 10.786.035-.035 10.786zm.192.387c.107 0 .193-.085.194-.192l.047-14.365c0-.107-.087-.194-.193-.195l-8.165-.026-.061-.076c-.816-1.012-1.863-1.85-3.03-2.423l-.114-.057.005-1.953 1.523-1.133c.049-.037.078-.095.078-.155l.009-2.794c0-.106-.086-.194-.193-.194L11.819.476c-.051 0-.1.02-.137.057l-.663.659-.66-.664c-.036-.036-.085-.057-.136-.057L7.828.463c-.05 0-.1.02-.136.056l-.664.66L6.37.515C6.333.478 6.284.458 6.233.458L4.636.453c-.107 0-.193.086-.194.193l-.009 2.793c0 .06.029.118.077.155l1.515 1.144-.006 1.957-.117.056C3.072 8.11.016 11.887 0 16.971c-.014 4.447 3.248 7.01 8.95 7.027h.054c.915.003 1.833-.077 2.733-.238l.165-.03.062.157c.03.073.1.121.179.122l11.172.035z" transform="translate(-299 -1712) translate(287 1700) translate(12 12)"/>
                    <path fill="#D99A29" d="M20.145 17.263l1.596.005c.107 0 .193.087.193.194l-.016 4.789c0 .106-.087.192-.194.192l-1.596-.004c-.107 0-.193-.088-.192-.195l.015-4.788c0-.107.087-.193.194-.193zm-3.203 3.182l1.596.005c.107 0 .193.087.193.194l-.005 1.596c0 .107-.088.193-.194.193l-1.597-.005c-.106 0-.192-.088-.192-.194l.005-1.596c0-.107.088-.194.194-.193zm-3.192-.01l1.596.004c.107 0 .193.088.193.195l-.005 1.595c0 .108-.088.194-.194.194l-1.597-.006c-.106 0-.193-.087-.192-.193l.004-1.597c0-.107.088-.193.195-.192zm6.587-2.785l-.015 4.402 1.21.004.014-4.402-1.21-.004zm-3.203 3.182l-.004 1.21 1.21.004.004-1.21-1.21-.004zm-3.192-.01l-.004 1.21 1.21.004.003-1.21-1.21-.004zm3.01-3.57l1.596.006c.107 0 .193.087.193.193l-.005 1.597c0 .106-.087.193-.194.192l-1.596-.004c-.107 0-.193-.088-.192-.195l.004-1.596c0-.106.088-.193.194-.192zm-3.192-.01l1.597.005c.106 0 .192.088.192.194l-.005 1.597c0 .106-.087.193-.194.192l-1.596-.005c-.107 0-.193-.087-.193-.194l.005-1.596c0-.106.087-.193.194-.192zm3.384.398l-.003 1.21 1.209.003.004-1.21-1.21-.003zm-3.192-.01l-.004 1.21 1.21.003.004-1.21-1.21-.003zm6.203-3.56l1.596.006c.107 0 .193.087.193.194l-.005 1.596c0 .107-.087.193-.194.192l-1.597-.004c-.106 0-.192-.088-.192-.194l.005-1.596c0-.108.087-.194.194-.193zm-3.193-.01l1.597.006c.107 0 .193.087.193.193l-.005 1.597c0 .106-.088.193-.195.192l-1.596-.005c-.106 0-.193-.087-.192-.194l.005-1.596c0-.107.087-.193.193-.193zm-3.191-.01l1.596.005c.106 0 .193.088.192.194l-.004 1.596c0 .107-.088.193-.195.193l-1.596-.005c-.107 0-.193-.088-.193-.194l.005-1.596c0-.107.088-.193.195-.193zm6.576.408l-.004 1.21 1.21.003.003-1.21-1.209-.003zm-3.192-.01l-.004 1.209 1.21.004.003-1.21-1.21-.004zm-3.192-.01l-.005 1.209 1.21.004.004-1.21-1.21-.004z" transform="translate(-299 -1712) translate(287 1700) translate(12 12)"/>
                    <path fill="#006450" d="M21.568 10.886l.387.002-.001.516-.387-.002.001-.516zm-1.596-.007l.387.002-.001.516-.388-.002.002-.516zm-1.596-.007l.387.002-.001.516-.388-.002.002-.516z" transform="translate(-299 -1712) translate(287 1700) translate(12 12)"/>
                </g>
            </g>
        </g>
    </g>
</svg>
