<?xml version="1.0" encoding="UTF-8"?>
<svg width="112px" height="112px" viewBox="0 0 112 112" version="1.1" xmlns="http://www.w3.org/2000/svg" xmlns:xlink="http://www.w3.org/1999/xlink">
    <title>1148AA3E-D30A-40B2-A44E-CF5A9E963014</title>
    <g id="VAT-Registration" stroke="none" stroke-width="1" fill="none" fill-rule="evenodd">
        <g id="VAT-Deregistration-6" transform="translate(-664.000000, -256.000000)">
            <g id="Success" transform="translate(641.000000, 233.000000)">
                <path d="M79.092875,22.9521343 C79.7433437,22.9521343 80.2706528,23.4794434 80.2706528,24.1299121 C80.2706528,24.7803808 79.7433437,25.3076898 79.092875,25.3076898 C49.3881375,25.3076898 25.3076898,49.3881375 25.3076898,79.092875 C25.3076898,108.797613 49.3881375,132.87806 79.092875,132.87806 C108.797613,132.87806 132.87806,108.797613 132.87806,79.092875 C132.87806,78.4424063 133.405369,77.9150972 134.055838,77.9150972 C134.706307,77.9150972 135.233616,78.4424063 135.233616,79.092875 C135.233616,110.09855 110.09855,135.233616 79.092875,135.233616 C48.0872001,135.233616 22.9521343,110.09855 22.9521343,79.092875 C22.9521343,48.0872001 48.0872001,22.9521343 79.092875,22.9521343 Z" id="Path" fill="#006450" fill-rule="nonzero" transform="translate(79.092875, 79.092875) rotate(40.000000) translate(-79.092875, -79.092875) "></path>
                <path d="M122.592901,62.0241085 C123.24337,62.0241085 123.770679,62.5514176 123.770679,63.2018863 C123.770679,66.1231898 124.003463,69.0146276 124.463339,71.8576859 C126.18714,82.514599 131.08107,92.321638 138.435289,100.113162 C138.881774,100.586196 138.860251,101.331613 138.387217,101.778098 C137.914183,102.224582 137.168766,102.20306 136.722282,101.730026 C129.046806,93.5981417 123.9377,83.3599074 122.138008,72.2338181 C121.658033,69.2665105 121.415123,66.2492938 121.415123,63.2018863 C121.415123,62.5514176 121.942432,62.0241085 122.592901,62.0241085 Z" id="Path" fill="#D99A29" fill-rule="nonzero" transform="translate(130.085845, 82.061742) rotate(-155.000000) translate(-130.085845, -82.061742) "></path>
                <path d="M112.020684,59.4088104 C112.484393,58.9526491 113.230096,58.9587681 113.686257,59.4224775 C114.112007,59.855273 114.13506,60.5337158 113.759229,60.9931273 L113.67259,61.0880508 L66.2839033,107.705354 C65.8433843,108.138702 65.1503731,108.153792 64.6922128,107.760758 L64.5978079,107.670293 L46.0401401,87.8305651 C45.5957942,87.3555215 45.6206797,86.6102092 46.0957232,86.1658634 C46.5390971,85.7511407 47.2179052,85.7451705 47.667712,86.1324456 L47.7604248,86.2214466 L65.4924861,105.17869 L112.020684,59.4088104 Z" id="Path-9" fill="#95D600"></path>
            </g>
        </g>
    </g>
</svg>