<svg xmlns="http://www.w3.org/2000/svg" width="24" height="24" viewBox="0 0 24 24">
    <g fill="none" fill-rule="evenodd">
        <g fill-rule="nonzero">
            <g>
                <g>
                    <g>
                        <path fill="#FFF" d="M14.5 1h-10C2.015 1 0 3.015 0 5.5v4l.005.212C.115 12.099 2.085 14 4.5 14H5v3.5l.007.083c.06.377.524.558.825.29L10.19 14H14.5c2.485 0 4.5-2.014 4.5-4.5v-4C19 3.015 16.985 1 14.5 1zm-10 1h10C16.433 2 18 3.567 18 5.5v4c0 1.933-1.567 3.5-3.5 3.5H10l-.09.008c-.09.017-.174.057-.242.118L6 16.386V13.5c0-.276-.224-.5-.5-.5h-1C2.567 13 1 11.433 1 9.5v-4C1 3.567 2.567 2 4.5 2z" transform="translate(-1011 -41) translate(-1 -1) translate(948 34) translate(64 8)"/>
                        <path fill="#D99A29" d="M21 12c1.598 0 2.904 1.249 2.995 2.824L24 15v2c0 1.598-1.249 2.904-2.824 2.995L21 20h-1v2.5c0 .416-.47.638-.788.41l-.066-.056L16.293 20H14c-1.598 0-2.904-1.249-2.995-2.824L11 17c0-.276.224-.5.5-.5s.5.224.5.5c0 1.055.816 1.918 1.85 1.995L14 19h2.5c.106 0 .209.034.294.095l.06.051L19 21.293V19.5c0-.245.177-.45.41-.492L19.5 19H21c1.055 0 1.918-.816 1.995-1.85L23 17v-2c0-1.105-.895-2-2-2-.276 0-.5-.224-.5-.5s.224-.5.5-.5z" transform="translate(-1011 -41) translate(-1 -1) translate(948 34) translate(64 8)"/>
                    </g>
                </g>
            </g>
        </g>
    </g>
</svg>
