<?xml version="1.0" encoding="UTF-8"?>
<svg width="28px" height="24px" viewBox="0 0 28 24" version="1.1" xmlns="http://www.w3.org/2000/svg" xmlns:xlink="http://www.w3.org/1999/xlink">
    <title>E99919BB-4016-47D6-8448-87275024630F</title>
    <g id="Returns" stroke="none" stroke-width="1" fill="none" fill-rule="evenodd">
        <g id="Returns-2" transform="translate(-520.000000, -496.000000)" fill="#006450" fill-rule="nonzero">
            <g id="Group-13" transform="translate(387.000000, 120.000000)">
                <g id="Partials-/-Tags-/-Unsubmitted-/-Unselected" transform="translate(115.000000, 368.000000)">
                    <g id="Icons-/-24px-/-Status-/-Submitted" transform="translate(18.156028, 8.000000)">
                        <path d="M23.7903671,7.0127277 C23.975926,6.86511329 24.2636425,6.87656101 24.4329999,7.03829689 C24.5835399,7.18206213 24.5898891,7.39618159 24.4591176,7.54566313 L24.4036645,7.59842515 L8.94451924,19.8963657 C8.79092944,20.0185483 8.56556934,20.0325445 8.39557379,19.9391415 L8.32647887,19.8925385 L2.41299654,15.0522716 C2.22986271,14.9023741 2.2208182,14.6514588 2.39279507,14.4918366 C2.54566339,14.3499503 2.79010484,14.3279563 2.97115865,14.4300983 L3.03577987,14.4742287 L8.6415096,19.0628815 L23.7903671,7.0127277 Z" id="Stroke-1"></path>
                        <path d="M23.7903671,2.10363679 C23.975926,1.95602238 24.2636425,1.9674701 24.4329999,2.12920598 C24.5835399,2.27297122 24.5898891,2.48709068 24.4591176,2.63657222 L24.4036645,2.68933424 L8.94451924,14.9872748 C8.79092944,15.1094574 8.56556934,15.1234536 8.39557379,15.0300506 L8.32647887,14.9834476 L2.41299654,10.1431807 C2.22986271,9.99328315 2.2208182,9.74236785 2.39279507,9.58274571 C2.54566339,9.44085936 2.79010484,9.4188654 2.97115865,9.5210074 L3.03577987,9.5651378 L8.6415096,14.1537906 L23.7903671,2.10363679 Z" id="Stroke-1-Copy"></path>
                    </g>
                </g>
            </g>
        </g>
    </g>
</svg>