<?xml version="1.0" encoding="UTF-8"?>
<svg width="16px" height="16px" viewBox="0 0 16 16" version="1.1" xmlns="http://www.w3.org/2000/svg" xmlns:xlink="http://www.w3.org/1999/xlink">
    <title>D7615575-BA1D-40B8-9B7C-377778886C6E</title>
    <g id="Excise-Tax-Management" stroke="none" stroke-width="1" fill="none" fill-rule="evenodd">
        <g id="Excise-Tax-Transitional-Return-Request-3" transform="translate(-1024.000000, -1603.000000)" fill="#999999" fill-rule="nonzero">
            <g id="Group-23-Copy" transform="translate(271.000000, 1583.000000)">
                <g id="Group-10" transform="translate(72.000000, 12.000000)">
                    <g id="Icons-/-24px-/-Main---Gray-/-Information" transform="translate(681.000000, 8.000000)">
                        <path d="M8,0.0144927536 C12.4097218,0.0144927536 15.9855072,3.59005368 15.9855072,8 C15.9855072,12.4099463 12.4097218,15.9855072 8,15.9855072 C3.58935805,15.9855072 0.0144927536,12.4104175 0.0144927536,8 C0.0144927536,3.58958254 3.58935805,0.0144927536 8,0.0144927536 Z M8,0.68115942 C3.95755725,0.68115942 0.68115942,3.957763 0.68115942,8 C0.68115942,12.042237 3.95755725,15.3188406 8,15.3188406 C12.0415413,15.3188406 15.3188406,12.0417471 15.3188406,8 C15.3188406,3.95825289 12.0415413,0.68115942 8,0.68115942 Z M8,6.27536232 C8.16363993,6.27536232 8.29973891,6.39327909 8.32796289,6.54877856 L8.33333333,6.60869565 L8.33333333,12.5217391 L8.33149275,12.5354928 L10.0869565,12.5362319 C10.2710514,12.5362319 10.4202899,12.7600895 10.4202899,13.0362319 C10.4202899,13.2816918 10.3023731,13.4858403 10.1468736,13.5281762 L10.0869565,13.5362319 L5.91304348,13.5362319 C5.72894856,13.5362319 5.57971014,13.3123743 5.57971014,13.0362319 C5.57971014,12.790772 5.69762692,12.5866235 5.85312639,12.5442876 L5.91304348,12.5362319 L7.66749275,12.5354928 L7.66666667,12.5217391 L7.666,6.942 L6.60869565,6.94202899 C6.44505573,6.94202899 6.30895674,6.82411221 6.28073277,6.66861274 L6.27536232,6.60869565 C6.27536232,6.44505573 6.39327909,6.30895674 6.54877856,6.28073277 L6.60869565,6.27536232 L8,6.27536232 Z M7.65217391,3.14492754 C8.02757318,3.14492754 8.33333333,3.45068769 8.33333333,3.82608696 C8.33333333,4.20260421 8.02784845,4.50724638 7.65217391,4.50724638 C7.27538334,4.50724638 6.97101449,4.20287753 6.97101449,3.82608696 C6.97101449,3.45041242 7.27565666,3.14492754 7.65217391,3.14492754 Z" id="Stroke-Gray"></path>
                    </g>
                </g>
            </g>
        </g>
    </g>
</svg>