<svg xmlns="http://www.w3.org/2000/svg" width="24" height="24" viewBox="0 0 24 24">
    <g fill="none" fill-rule="evenodd">
        <g fill-rule="nonzero">
            <path fill="#006450" d="M8.161 23.84c.188.188.492.188.68 0l1.66-1.66 1.66 1.66c.188.188.492.188.68 0l1.66-1.66 1.66 1.66c.188.188.492.188.68 0l1.66-1.66 1.66 1.66c.303.303.82.088.82-.34V.5c0-.427-.517-.641-.82-.339l-1.66 1.661-1.66-1.66c-.188-.188-.492-.188-.68 0l-1.66 1.66-1.66-1.66c-.188-.188-.492-.188-.68 0l-1.66 1.66L8.84.162c-.188-.188-.492-.188-.68 0l-1.66 1.66L4.84.162C4.537-.142 4.02.072 4.02.5v23c0 .427.517.642.82.34L6.5 22.18l1.66 1.66zm-3.18-1.498V1.66l1.18 1.18c.188.188.492.188.68 0L8.5 1.18l1.66 1.66c.188.188.492.188.68 0l1.66-1.66 1.66 1.66c.188.188.492.188.68 0l1.66-1.66 1.66 1.66c.188.188.492.188.68 0l1.18-1.18v20.682l-1.18-1.18c-.188-.188-.492-.188-.68 0l-1.66 1.66-1.66-1.66c-.188-.188-.492-.188-.68 0l-1.66 1.66-1.66-1.66c-.188-.188-.492-.188-.68 0l-1.66 1.66-1.66-1.66c-.188-.188-.492-.188-.68 0l-1.18 1.18z"/>
            <path fill="#D99A29" d="M10.5 15.02c.266 0 .48.225.48.5 0 .246-.169.45-.393.493l-.086.008h-3c-.265 0-.48-.224-.48-.5 0-.246.17-.45.394-.492l.086-.008h3zm7 0c.266 0 .48.216.48.48 0 .266-.214.48-.48.48h-1c-.264 0-.48-.214-.48-.48 0-.264.216-.48.48-.48zm-5-3c.266 0 .48.225.48.5 0 .246-.169.45-.393.493l-.086.008h-5c-.265 0-.48-.224-.48-.5 0-.246.17-.45.394-.492l.086-.008h5zm5 0c.266 0 .48.216.48.48 0 .236-.169.432-.393.473l-.086.008h-1c-.265 0-.48-.215-.48-.48 0-.236.17-.432.394-.472l.086-.008h1zm-6-3c.266 0 .48.225.48.5 0 .246-.169.45-.393.493l-.086.008h-4c-.265 0-.48-.224-.48-.5 0-.246.17-.45.394-.492L7.5 9.02h4zm6 0c.266 0 .48.225.48.5 0 .246-.169.45-.393.493l-.086.008h-1c-.265 0-.48-.224-.48-.5 0-.246.17-.45.394-.492l.086-.008h1zm-4-3c.266 0 .48.225.48.5 0 .246-.169.45-.393.493l-.086.008h-6c-.265 0-.48-.224-.48-.5 0-.246.17-.45.394-.492L7.5 6.02h6zm4 0c.266 0 .48.225.48.5 0 .246-.169.45-.393.493l-.086.008h-1c-.265 0-.48-.224-.48-.5 0-.246.17-.45.394-.492l.086-.008h1z"/>
        </g>
    </g>
</svg>
