<svg xmlns="http://www.w3.org/2000/svg" width="24" height="24" viewBox="0 0 24 24">
    <g fill="none" fill-rule="evenodd">
        <g fill="#999" fill-rule="nonzero">
            <path d="M12 0c4.421 0 8 3.586 8 8.003 0 1.434-.785 3.642-2.185 6.474l-.379.753c-.381.745-.796 1.518-1.24 2.313-.822 1.476-1.703 2.958-2.583 4.375l-.182.292c-.24.383-.464.736-.67 1.057l-.324.5c-.205.31-.67.31-.874 0l-.482-.747c-.215-.336-.447-.705-.694-1.102l-.528-.858c-.702-1.152-1.398-2.336-2.055-3.517-.444-.795-.859-1.568-1.24-2.313C4.928 12.035 4 9.562 4 8.003 4 3.586 7.578 0 12 0zm0 1.015c-3.842 0-6.961 3.125-6.961 6.988 0 1.345.89 3.72 2.454 6.773.376.733.785 1.496 1.223 2.282.814 1.46 1.687 2.929 2.56 4.333l.723 1.151.726-1.15c.872-1.405 1.745-2.874 2.559-4.334.438-.786.847-1.549 1.223-2.282 1.563-3.053 2.454-5.428 2.454-6.773 0-3.862-3.12-6.988-6.961-6.988zm0 3.482c1.942 0 3.512 1.573 3.512 3.506 0 1.933-1.57 3.505-3.512 3.505-1.943 0-3.512-1.572-3.512-3.505 0-1.933 1.57-3.506 3.512-3.506zm0 1.015c-1.362 0-2.473 1.113-2.473 2.49 0 1.38 1.11 2.491 2.473 2.491 1.362 0 2.473-1.112 2.473-2.49 0-1.378-1.111-2.491-2.473-2.491z"/>
        </g>
    </g>
</svg>
