<?xml version="1.0" encoding="UTF-8"?>
<svg width="24px" height="24px" viewBox="0 0 24 24" version="1.1" xmlns="http://www.w3.org/2000/svg" xmlns:xlink="http://www.w3.org/1999/xlink">
    <title>BB83CBA7-DE5A-4FBE-96FD-49BB505544F7</title>
    <g id="Returns" stroke="none" stroke-width="1" fill="none" fill-rule="evenodd">
        <g id="Withholding-Returns-2" transform="translate(-1071.000000, -585.000000)" fill="#999999" fill-rule="nonzero">
            <g id="Group-6" transform="translate(269.000000, 561.000000)">
                <g id="Icons-/-24px-/-Main---Gray-/-Delete" transform="translate(802.000000, 24.000000)">
                    <path d="M15.5,0 C15.7761424,0 16,0.223857625 16,0.5 L16,0.5 L16,3 L23,3 C23.2761424,3 23.5,3.22385763 23.5,3.5 C23.5,3.74545989 23.3231248,3.94960837 23.0898756,3.99194433 L23,4 L20,4 L20,23.5 C20,23.7454599 19.8231248,23.9496084 19.5898756,23.9919443 L19.5,24 L3.5,24 C3.22385763,24 3,23.7761424 3,23.5 L3,23.5 L3,4 L1,4 C0.723857625,4 0.5,3.77614237 0.5,3.5 C0.5,3.25454011 0.676875161,3.05039163 0.910124368,3.00805567 L1,3 L7,3 L7,0.5 C7,0.254540111 7.17687516,0.0503916296 7.41012437,0.00805566941 L7.5,0 Z M19,4 L4,4 L4,23 L19,23 L19,4 Z M15.5,6.5 C15.7454599,6.5 15.9496084,6.67687516 15.9919443,6.91012437 L16,7 L16,19 C16,19.2761424 15.7761424,19.5 15.5,19.5 C15.2545401,19.5 15.0503916,19.3231248 15.0080557,19.0898756 L15,19 L15,7 C15,6.72385763 15.2238576,6.5 15.5,6.5 Z M7.5,6.5 C7.74545989,6.5 7.94960837,6.67687516 7.99194433,6.91012437 L8,7 L8,19 C8,19.2761424 7.77614237,19.5 7.5,19.5 C7.25454011,19.5 7.05039163,19.3231248 7.00805567,19.0898756 L7,19 L7,7 C7,6.72385763 7.22385763,6.5 7.5,6.5 Z M11.5,6.5 C11.7454599,6.5 11.9496084,6.67687516 11.9919443,6.91012437 L12,7 L12,19 C12,19.2761424 11.7761424,19.5 11.5,19.5 C11.2545401,19.5 11.0503916,19.3231248 11.0080557,19.0898756 L11,19 L11,7 C11,6.72385763 11.2238576,6.5 11.5,6.5 Z M15,1 L8,1 L8,3 L15,3 L15,1 Z" id="Stroke-Gray"></path>
                </g>
            </g>
        </g>
    </g>
</svg>