<?xml version="1.0" encoding="UTF-8"?>
<svg width="24px" height="24px" viewBox="0 0 24 24" version="1.1" xmlns="http://www.w3.org/2000/svg" xmlns:xlink="http://www.w3.org/1999/xlink">
    <title>59A75BE0-D049-4994-BB2B-677F71FBC20E</title>
    <g id="Returns" stroke="none" stroke-width="1" fill="none" fill-rule="evenodd">
        <g id="Zakat-&amp;-CIT-Return---8-(OLD)-2" transform="translate(-1294.000000, -948.000000)" fill="#FFFFFF" fill-rule="nonzero">
            <g id="Components-/-Buttons-/-Classic-/-Primary" transform="translate(1270.000000, 936.000000)">
                <g id="Icons-/-24px-/-Main-/-Whitelisting" transform="translate(24.000000, 12.000000)">
                    <path d="M19.5,0 C19.7454599,0 19.9496084,0.176875161 19.9919443,0.410124368 L20,0.5 L20,2 L22.5,2 C22.7454599,2 22.9496084,2.17687516 22.9919443,2.41012437 L23,2.5 L23,17.5 C23,17.6380712 22.9440356,17.7630712 22.8535534,17.8535534 L22.8535534,17.8535534 L16.8535534,23.8535534 C16.7831783,23.9239284 16.6919222,23.9734223 16.5898756,23.9919443 L16.5898756,23.9919443 L16.5,24 L1.5,24 C1.22385763,24 1,23.7761424 1,23.5 L1,23.5 L1,2.5 C1,2.22385763 1.22385763,2 1.5,2 L1.5,2 L4,2 L4,0.5 C4,0.223857625 4.22385763,0 4.5,0 C4.74545989,0 4.94960837,0.176875161 4.99194433,0.410124368 L5,0.5 L5,2 L9,2 L9,0.5 C9,0.223857625 9.22385763,0 9.5,0 C9.74545989,0 9.94960837,0.176875161 9.99194433,0.410124368 L10,0.5 L10,2 L14,2 L14,0.5 C14,0.223857625 14.2238576,0 14.5,0 C14.7454599,0 14.9496084,0.176875161 14.9919443,0.410124368 L15,0.5 L15,2 L19,2 L19,0.5 C19,0.223857625 19.2238576,0 19.5,0 Z M4,3 L2,3 L2,23 L16,23 L16,17.5 C16,17.2545401 16.1768752,17.0503916 16.4101244,17.0080557 L16.4101244,17.0080557 L16.5,17 L22,17 L22,3 L20,3 L20,5 C20,5.27614237 19.7761424,5.5 19.5,5.5 C19.2545401,5.5 19.0503916,5.32312484 19.0080557,5.08987563 L19,5 L19,3 L15,3 L15,5 C15,5.27614237 14.7761424,5.5 14.5,5.5 C14.2545401,5.5 14.0503916,5.32312484 14.0080557,5.08987563 L14,5 L14,3 L10,3 L10,5 C10,5.27614237 9.77614237,5.5 9.5,5.5 C9.25454011,5.5 9.05039163,5.32312484 9.00805567,5.08987563 L9,5 L9,3 L5,3 L5,5 C5,5.27614237 4.77614237,5.5 4.5,5.5 C4.25454011,5.5 4.05039163,5.32312484 4.00805567,5.08987563 L4,5 L4,3 Z M21.292,18 L17,18 L17,22.292 L21.292,18 Z" id="Stroke-7295"></path>
                    <path d="M9.85355339,12.6464466 C10.0271197,12.820013 10.0464049,13.0894374 9.91140884,13.2843055 L9.85355339,13.3535534 L6.85355339,16.3535534 C6.67998704,16.5271197 6.41056264,16.5464049 6.2156945,16.4114088 L6.14644661,16.3535534 L4.64644661,14.8535534 C4.45118446,14.6582912 4.45118446,14.3417088 4.64644661,14.1464466 C4.82001296,13.9728803 5.08943736,13.9535951 5.2843055,14.0885912 L5.35355339,14.1464466 L6.5,15.293 L9.14644661,12.6464466 C9.34170876,12.4511845 9.65829124,12.4511845 9.85355339,12.6464466 Z M18,14 C18.2761424,14 18.5,14.2238576 18.5,14.5 C18.5,14.7454599 18.3231248,14.9496084 18.0898756,14.9919443 L18,15 L11.5,15 C11.2238576,15 11,14.7761424 11,14.5 C11,14.2545401 11.1768752,14.0503916 11.4101244,14.0080557 L11.5,14 L18,14 Z M9.85355339,7.14644661 C10.0271197,7.32001296 10.0464049,7.58943736 9.91140884,7.7843055 L9.85355339,7.85355339 L6.85355339,10.8535534 C6.67998704,11.0271197 6.41056264,11.0464049 6.2156945,10.9114088 L6.14644661,10.8535534 L4.64644661,9.35355339 C4.45118446,9.15829124 4.45118446,8.84170876 4.64644661,8.64644661 C4.82001296,8.47288026 5.08943736,8.45359511 5.2843055,8.58859116 L5.35355339,8.64644661 L6.5,9.793 L9.14644661,7.14644661 C9.34170876,6.95118446 9.65829124,6.95118446 9.85355339,7.14644661 Z M18,9 C18.2761424,9 18.5,9.22385763 18.5,9.5 C18.5,9.74545989 18.3231248,9.94960837 18.0898756,9.99194433 L18,10 L11.5,10 C11.2238576,10 11,9.77614237 11,9.5 C11,9.25454011 11.1768752,9.05039163 11.4101244,9.00805567 L11.5,9 L18,9 Z" id="Stroke-7299"></path>
                </g>
            </g>
        </g>
    </g>
</svg>