<svg xmlns="http://www.w3.org/2000/svg" width="20" height="20" viewBox="0 0 20 20">
    <g fill="none" fill-rule="evenodd">
        <g fill-rule="nonzero">
            <g>
                <g>
                    <g>
                        <g>
                            <path fill="#D99A29" d="M13.154 4.24l.057.049 2.5 2.5c.02.02.032.035.044.051l-.044-.051c.023.023.043.048.06.075l.023.042.012.03c.018.046.027.095.027.147 0 .028-.002.054-.007.08l-.009.035c-.003.013-.008.026-.013.04l-.013.028c-.007.015-.015.03-.024.043l-.007.011-.01.013c-.01.013-.02.026-.031.037l-.008.008-2.5 2.5c-.162.163-.426.163-.589 0-.145-.145-.16-.37-.048-.532l.048-.057 1.788-1.79-5.66.001c-.23 0-.417-.187-.417-.417 0-.204.148-.374.342-.41l.075-.006h5.661l-1.789-1.789c-.145-.145-.16-.37-.048-.532l.048-.057c.145-.145.37-.161.532-.049z" transform="translate(-666 -636) translate(271 538) translate(0 72) translate(395 24) translate(0 2)"/>
                            <path fill="#006450" d="M10 0c5.523 0 10 4.477 10 10s-4.477 10-10 10S0 15.523 0 10 4.477 0 10 0zm0 .833C4.937.833.833 4.937.833 10S4.937 19.167 10 19.167s9.167-4.104 9.167-9.167S15.063.833 10 .833zm-2.622 9.289c.145.145.16.37.048.532l-.048.057-1.79 1.789h5.662c.23 0 .417.187.417.417 0 .204-.148.374-.342.41l-.075.006H5.589l1.789 1.789c.145.145.16.37.048.532l-.048.057c-.145.145-.37.161-.532.049l-.057-.049-2.5-2.5-.043-.05-.017-.025-.022-.04c-.03-.065-.044-.135-.04-.205v.026c0-.028.002-.055.007-.08l.01-.04.011-.032.015-.033c.007-.014.014-.027.023-.04l.007-.012.012-.016.03-.035 2.507-2.507c.162-.163.426-.163.589 0z" transform="translate(-666 -636) translate(271 538) translate(0 72) translate(395 24) translate(0 2)"/>
                        </g>
                    </g>
                </g>
            </g>
        </g>
    </g>
</svg>
