<svg xmlns="http://www.w3.org/2000/svg" width="20" height="20" viewBox="0 0 20 20">
    <g fill="none" fill-rule="evenodd">
        <g fill="#A9A9A9" fill-rule="nonzero">
            <g>
                <g>
                    <g>
                        <path d="M10 .917c2.899 0 4.977 2.267 5.08 5.267l.003.233v7.5c0 .276-.224.5-.5.5-.245 0-.45-.177-.492-.41l-.008-.09v-7.5c0-2.588-1.692-4.5-4.083-4.5-2.321 0-3.983 1.8-4.079 4.273l-.004.227v10.416c0 1.906 1.138 3.25 2.833 3.25 1.635 0 2.751-1.25 2.829-3.048l.004-.202V8.917c0-1.232-.59-2-1.583-2-.943 0-1.523.693-1.579 1.818l-.004.182v6.25c0 .276-.224.5-.5.5-.246 0-.45-.177-.492-.41l-.008-.09v-6.25c0-1.736.973-3 2.583-3 1.55 0 2.51 1.172 2.58 2.809l.003.19v7.917c0 2.425-1.545 4.25-3.833 4.25-2.219 0-3.739-1.716-3.83-4.03l-.003-.22V6.417c0-3.115 2.11-5.5 5.083-5.5z" transform="translate(-939 -1588) translate(271 919) translate(24 663) translate(644 5)"/>
                    </g>
                </g>
            </g>
        </g>
    </g>
</svg>
