<?xml version="1.0" encoding="UTF-8"?>
<svg width="24px" height="24px" viewBox="0 0 24 24" version="1.1" xmlns="http://www.w3.org/2000/svg" xmlns:xlink="http://www.w3.org/1999/xlink">
    <title>CE3FA07F-D42E-40BD-994D-ECB391210A8D</title>
    <g id="Returns" stroke="none" stroke-width="1" fill="none" fill-rule="evenodd">
        <g id="Returns-2" transform="translate(-854.000000, -496.000000)" fill="#999999" fill-rule="nonzero">
            <g id="Group-13" transform="translate(387.000000, 120.000000)">
                <g id="Partials-/-Tags-/-Unsubmitted-/-Unselected" transform="translate(451.000000, 368.000000)">
                    <g id="Icons-/-24px-/-Status-/-Unsubmitted" transform="translate(16.000000, 8.000000)">
                        <path d="M18.08858,6.50782758 L18.1755617,6.53184226 L22.1755617,8.03184226 L22.1981473,8.04081048 C22.209419,8.04570663 22.2205,8.0510097 22.2313675,8.05670427 L22.1755617,8.03184226 C22.208337,8.04413297 22.2390626,8.05949667 22.267534,8.07748344 C22.2823593,8.08696858 22.2972406,8.09753673 22.3115185,8.10888188 C22.319922,8.11543929 22.3277146,8.12206035 22.3352756,8.12889504 C22.4350954,8.21878514 22.5,8.34923571 22.5,8.50000685 L22.5,8.50000685 L22.5,18.5000069 C22.5,18.6893929 22.3929988,18.8625244 22.2236068,18.9472204 L22.2236068,18.9472204 L12.2236068,23.9472204 C12.0828431,24.0176023 11.9171569,24.0176023 11.7763932,23.9472204 L11.7763932,23.9472204 L1.7763932,18.9472204 C1.60700119,18.8625244 1.5,18.6893929 1.5,18.5000069 L1.5,18.5000069 L1.5,8.50000685 C1.5,8.34923571 1.56490456,8.21878514 1.66481696,8.12889623 C1.67228541,8.12206035 1.68007801,8.11543929 1.6880962,8.10904512 C1.70275941,8.09753673 1.71764071,8.08696858 1.73305049,8.07722814 C1.73598096,8.07526285 1.73953031,8.07308224 1.74311364,8.07094246 L1.76863247,8.05670427 C1.77949996,8.0510097 1.79058097,8.04570663 1.80185273,8.04081048 L1.82443828,8.03184226 L5.82443828,6.53184226 C6.08299844,6.4348822 6.37120453,6.56588497 6.46816459,6.82444513 C6.55435131,7.05427639 6.46041925,7.30753158 6.25688636,7.42907124 L6.17556172,7.46817144 L3.384,8.515 L12,11.9610069 L20.615,8.515 L17.8244383,7.46817144 C17.5658781,7.37121138 17.4348754,7.08300529 17.5318354,6.82444513 C17.6180221,6.59461387 17.8553168,6.46556871 18.08858,6.50782758 Z M2.5,9.23800685 L2.5,18.1910069 L11.5,22.69 L11.5,12.838 L2.5,9.23800685 Z M21.5,9.23800685 L12.5,12.838 L12.5,22.69 L21.5,18.1900069 L21.5,9.23800685 Z M16.3762883,0.170754547 C16.5379248,0.355481939 16.5392454,0.625592436 16.3915859,0.811049171 L16.3292523,0.876295198 L12.759,4 L16.3292523,7.1237185 L16.3915859,7.18896453 C16.5392454,7.37442127 16.5379248,7.64453176 16.3762883,7.82925915 C16.1944473,8.03707747 15.878566,8.05813622 15.6707477,7.8762952 L15.6707477,7.8762952 L12,4.664 L8.3292523,7.8762952 C8.12143399,8.05813622 7.80555268,8.03707747 7.62371165,7.82925915 C7.46207518,7.64453176 7.46075459,7.37442127 7.60841409,7.18896453 L7.6707477,7.1237185 L11.24,3.999 L7.6707477,0.876295198 L7.60841409,0.811049171 C7.46075459,0.625592436 7.46207518,0.355481939 7.62371165,0.170754547 C7.80555268,-0.0370637688 8.12143399,-0.0581225228 8.3292523,0.123718504 L8.3292523,0.123718504 L12,3.335 L15.6707477,0.123718504 C15.878566,-0.0581225228 16.1944473,-0.0370637688 16.3762883,0.170754547 Z" id="Combined-Shape"></path>
                    </g>
                </g>
            </g>
        </g>
    </g>
</svg>