<?xml version="1.0" encoding="UTF-8"?>
<svg width="24px" height="24px" viewBox="0 0 24 24" version="1.1" xmlns="http://www.w3.org/2000/svg" xmlns:xlink="http://www.w3.org/1999/xlink">
    <title>CA334079-50FC-48D2-AC57-E68A4FF5BD98</title>
    <g id="Returns" stroke="none" stroke-width="1" fill="none" fill-rule="evenodd">
        <g id="Withholding-Returns-2" transform="translate(-1119.000000, -1653.000000)" fill="#999999" fill-rule="nonzero">
            <g id="Group-9" transform="translate(269.000000, 1629.000000)">
                <g id="Icons-/-24px-/-Arrows---Gray-/-Circle-Arrow-Down" transform="translate(850.000000, 24.000000)">
                    <path d="M12,1.78346227e-12 C18.627417,1.78346227e-12 24,5.372583 24,12 C24,18.627417 18.627417,24 12,24 C5.372583,24 -4.24549285e-13,18.627417 -4.24549285e-13,12 C-4.24549285e-13,5.372583 5.372583,1.78346227e-12 12,1.78346227e-12 Z M12,1 C5.92486775,1 1,5.92486775 1,12 C1,18.0751322 5.92486775,23 12,23 C18.0751322,23 23,18.0751322 23,12 C23,5.92486775 18.0751322,1 12,1 Z M9.86888378,5.33835042 L9.94022555,5.39360325 L16.6602255,11.6336033 C16.8495879,11.8094397 16.8706281,12.0953763 16.7233463,12.2956794 L16.6602255,12.3663967 L9.94022555,18.6063967 C9.73787021,18.7942981 9.42150464,18.7825809 9.23360325,18.5802255 C9.0665798,18.4003541 9.05727971,18.1304006 9.19939566,17.9406624 L9.25977445,17.8736033 L15.584,12 L9.25977445,6.12639675 C9.07990304,5.95937329 9.05065926,5.69084727 9.17835042,5.49111622 L9.23360325,5.41977445 C9.40062671,5.23990304 9.66915273,5.21065926 9.86888378,5.33835042 Z" id="Oval" transform="translate(12.000000, 12.000000) rotate(-270.000000) translate(-12.000000, -12.000000) "></path>
                </g>
            </g>
        </g>
    </g>
</svg>