<svg xmlns="http://www.w3.org/2000/svg" xmlns:xlink="http://www.w3.org/1999/xlink" width="48" height="48" viewBox="0 0 48 48">
    <defs>
        <filter id="w8ifqcxo7a" width="129.2%" height="129.2%" x="-14.6%" y="-10.4%" filterUnits="objectBoundingBox">
            <feOffset dy="2" in="SourceAlpha" result="shadowOffsetOuter1"/>
            <feGaussianBlur in="shadowOffsetOuter1" result="shadowBlurOuter1" stdDeviation="2"/>
            <feColorMatrix in="shadowBlurOuter1" values="0 0 0 0 0.137254902 0 0 0 0 0.137254902 0 0 0 0 0.137254902 0 0 0 0.1 0"/>
        </filter>
        <circle id="dmwr4rt9hb" cx="24" cy="24" r="24"/>
    </defs>
    <g fill="none" fill-rule="evenodd">
        <g fill-rule="nonzero">
            <g>
                <g>
                    <g transform="translate(-841 -471) translate(536 382) translate(305 89)">
                        <use fill="#000" filter="url(#w8ifqcxo7a)" xlink:href="#dmwr4rt9hb"/>
                        <circle cx="24" cy="24" r="24" fill="#006450"/>
                        <circle cx="24" cy="24" r="24"/>
                    </g>
                    <g>
                        <path fill="#D99A29" d="M21.46 31.778l.099-1.258c.04-.794-.304-1.559-.926-2.054l-2.668-2.137 7.179-5.908c.737-.636 1.163-1.557 1.169-2.53l.008-1.116c0-.087-.102-.136-.169-.08l-11.346 9.49c-.093.078-.093.223 0 .301l6.433 5.392c.087.07.216.012.222-.1M4.86 31.778l-.098-1.258c-.04-.794.304-1.559.926-2.054l2.669-2.137-7.18-5.908C.44 19.785.013 18.864.006 17.89L0 16.776c0-.087.101-.136.169-.08l11.345 9.49c.094.078.094.223 0 .301l-6.432 5.392c-.087.07-.216.012-.221-.1" transform="translate(-841 -471) translate(536 382) translate(305 89) translate(11 8)"/>
                        <path fill="#FFF" d="M24.293 7.498c-2.898-1.215-6.183-1.189-9.05.033 1.294-2.036 3.303-3.516 5.683-4.143l.846-.223c.038-.01.052-.056.026-.086l-.553-.63c-.516-.586-1.343-.79-2.07-.508-2.044.793-3.798 2.138-5.088 3.881V1.153c0-.26-.1-.51-.28-.698l-.263-.277c-.227-.237-.608-.237-.835 0l-.263.277c-.18.188-.28.438-.28.698v4.598c-1.28-1.703-3.008-3.019-5.014-3.803-.735-.286-1.57-.09-2.09.502l-.553.63c-.026.029-.012.075.025.085l.847.223c2.38.627 4.389 2.107 5.684 4.143-2.869-1.222-6.153-1.248-9.052-.033-.72.302-1.17 1.028-1.13 1.808l.04.834c.002.04.044.063.08.043l.76-.429c2.778-1.564 6.155-1.63 8.972-.264-1.741.407-3.363 1.209-4.743 2.352-.605.502-.835 1.327-.57 2.067l.283.789c.013.037.06.047.087.018l.605-.632c1.54-1.608 3.572-2.625 5.77-2.9v10.145c0 .045.003.088.01.132l-4.98-4.163c-.138-.116-.35-.018-.35.164v1.224c0 .709.314 1.38.857 1.835l5.318 4.447c.077.064.186.064.262 0l5.319-4.447c.543-.454.857-1.127.857-1.835v-1.225c0-.18-.212-.28-.35-.163l-5.04 4.215c.01-.06.017-.123.017-.184V11.177c2.218.264 4.271 1.286 5.822 2.907l.606.632c.027.029.074.019.087-.018l.283-.789c.264-.74.036-1.565-.57-2.067-1.38-1.143-3.002-1.945-4.744-2.352 2.818-1.367 6.194-1.3 8.971.264l.763.43c.035.019.077-.005.079-.044l.04-.834c.039-.78-.41-1.506-1.13-1.808" transform="translate(-841 -471) translate(536 382) translate(305 89) translate(11 8)"/>
                    </g>
                </g>
            </g>
        </g>
    </g>
</svg>
