<svg xmlns="http://www.w3.org/2000/svg" width="24" height="24" viewBox="0 0 24 24">
    <g fill="none" fill-rule="evenodd">
        <g fill-rule="nonzero">
            <g>
                <g>
                    <g transform="translate(-947 -41) translate(-1 -1) translate(948 34) translate(0 8)">
                        <path fill="#D99A29" d="M22.592 4.734c.213-.176.528-.145.703.069.156.19.15.46-.004.64l-.065.063-10.909 8.96c-.161.133-.385.15-.562.05l-.072-.05-10.91-8.96C.56 5.331.53 5.016.706 4.803c.155-.19.422-.236.629-.12l.074.05L12 13.433l10.592-8.698z"/>
                        <path fill="#FFF" d="M21.818 4.06H2.182C.999 4.06.045 5.039.045 6.24v12.32c0 1.2.954 2.18 2.137 2.18h19.636c1.183 0 2.137-.98 2.137-2.18V6.24c0-1.201-.954-2.18-2.137-2.18zm-19.636 1h19.636c.625 0 1.137.525 1.137 1.18v12.32c0 .654-.513 1.18-1.137 1.18H2.182c-.624 0-1.137-.526-1.137-1.18V6.24c0-.655.512-1.18 1.137-1.18z"/>
                        <ellipse cx="20" cy="5.927" fill="#D99A29" rx="4" ry="3.927"/>
                    </g>
                </g>
            </g>
        </g>
    </g>
</svg>
