<svg xmlns="http://www.w3.org/2000/svg" width="24" height="24" viewBox="0 0 24 24">
    <defs>
        <linearGradient id="shwts8u4ca" x1="27.145%" x2="81.337%" y1="-1.582%" y2="100%">
            <stop offset="0%" stop-color="#067962"/>
            <stop offset="100%" stop-color="#006450"/>
        </linearGradient>
    </defs>
    <g fill="none" fill-rule="evenodd">
        <g fill-rule="nonzero">
            <path fill="#D99A29" d="M18.605 2H6.395C5.625 2 5 2.626 5 3.395v2.211C5 6.374 5.626 7 6.395 7h12.21C19.374 7 20 6.374 20 5.606V3.395C20 2.625 19.374 2 18.605 2zM6.395 3h12.21c.217 0 .395.178.395.395v2.211c0 .216-.178.394-.395.394H6.395C6.178 6 6 5.822 6 5.606V3.395C6 3.178 6.178 3 6.395 3z"/>
            <path fill="url(#shwts8u4ca)" d="M19 0c1.651 0 3 1.349 3 3v18c0 1.651-1.349 3-3 3H6c-1.651 0-3-1.349-3-3V3c0-1.651 1.349-3 3-3zm-7 16H4v5c0 1.049.821 1.918 1.851 1.994L6 23h6v-7zm9 0h-8v7h6c1.049 0 1.918-.821 1.994-1.851L21 21v-5zM6.284 17.589l.07.057L7.5 18.793l1.146-1.147c.196-.195.512-.195.708 0 .173.174.192.443.057.638l-.057.07L8.207 19.5l1.147 1.146c.195.196.195.512 0 .708-.174.173-.443.192-.638.057l-.07-.057L7.5 20.207l-1.146 1.147c-.196.195-.512.195-.708 0-.173-.174-.192-.443-.057-.638l.057-.07L6.793 19.5l-1.147-1.146c-.195-.196-.195-.512 0-.708.174-.173.443-.192.638-.057zM18.5 20c.276 0 .5.224.5.5 0 .245-.177.45-.41.492L18.5 21h-3c-.276 0-.5-.224-.5-.5 0-.245.177-.45.41-.492L15.5 20h3zm0-2c.276 0 .5.224.5.5 0 .245-.177.45-.41.492L18.5 19h-3c-.276 0-.5-.224-.5-.5 0-.245.177-.45.41-.492L15.5 18h3zM12 9H4v6h8V9zm9 0h-8v6h8V9zM7.5 10.5c.245 0 .45.177.492.41L8 11v1h1c.276 0 .5.224.5.5 0 .245-.177.45-.41.492L9 13H8v1c0 .276-.224.5-.5.5-.245 0-.45-.177-.492-.41L7 14v-1H6c-.276 0-.5-.224-.5-.5 0-.245.177-.45.41-.492L6 12h1v-1c0-.276.224-.5.5-.5zm11 1.5c.276 0 .5.224.5.5 0 .245-.177.45-.41.492L18.5 13h-3c-.276 0-.5-.224-.5-.5 0-.245.177-.45.41-.492L15.5 12h3zM19 1H6c-1.099 0-2 .901-2 2v5h17V3c0-1.049-.821-1.918-1.851-1.994L19 1z"/>
        </g>
    </g>
</svg>
