<svg xmlns="http://www.w3.org/2000/svg" width="24" height="24" viewBox="0 0 24 24">
    <g fill="none" fill-rule="evenodd">
        <g fill-rule="nonzero">
            <path fill="#006450" d="M11.8 0C7.482 0 3.987 3.584 3.987 8c0 1.558.907 4.033 2.506 7.228.373.746.778 1.52 1.212 2.315.804 1.476 1.664 2.96 2.525 4.377l.518.845.632 1.006c.196.305.644.305.84 0l.318-.501c.25-.4.53-.853.832-1.35.86-1.418 1.721-2.9 2.525-4.377.434-.796.84-1.57 1.212-2.315l.37-.753c1.368-2.832 2.136-5.041 2.136-6.475 0-4.415-3.496-8-7.813-8zm0 1c3.76 0 6.813 3.131 6.813 7 0 1.348-.872 3.725-2.4 6.781-.368.734-.768 1.498-1.196 2.284-.796 1.461-1.649 2.931-2.502 4.336l-.715 1.162-.539-.872-.176-.29c-.853-1.405-1.706-2.875-2.502-4.336-.428-.786-.828-1.55-1.196-2.284-1.528-3.056-2.4-5.433-2.4-6.781 0-3.869 3.053-7 6.813-7z"/>
            <path fill="#D99A29" d="M11.8 4.5C9.906 4.5 8.375 6.07 8.375 8s1.53 3.5 3.425 3.5c1.894 0 3.425-1.57 3.425-3.5S13.694 4.5 11.8 4.5zm0 1c1.336 0 2.425 1.117 2.425 2.5s-1.09 2.5-2.425 2.5c-1.337 0-2.425-1.116-2.425-2.5 0-1.383 1.089-2.5 2.425-2.5z"/>
        </g>
    </g>
</svg>
