<svg xmlns="http://www.w3.org/2000/svg" width="24" height="24" viewBox="0 0 24 24">
    <g fill="none" fill-rule="evenodd">
        <g fill-rule="nonzero">
            <g>
                <g>
                    <path fill="#006450" d="M19.5 0c.245 0 .45.177.492.41L20 .5V2h2.5c.245 0 .45.177.492.41L23 2.5v15c0 .138-.056.263-.146.354l-6 6c-.07.07-.162.12-.264.138L16.5 24h-15c-.276 0-.5-.224-.5-.5v-21c0-.276.224-.5.5-.5H4V.5c0-.276.224-.5.5-.5.245 0 .45.177.492.41L5 .5V2h4V.5c0-.276.224-.5.5-.5.245 0 .45.177.492.41L10 .5V2h4V.5c0-.276.224-.5.5-.5.245 0 .45.177.492.41L15 .5V2h4V.5c0-.276.224-.5.5-.5zM4 3H2v20h14v-5.5c0-.245.177-.45.41-.492L16.5 17H22V3h-2v2c0 .276-.224.5-.5.5-.245 0-.45-.177-.492-.41L19 5V3h-4v2c0 .276-.224.5-.5.5-.245 0-.45-.177-.492-.41L14 5V3h-4v2c0 .276-.224.5-.5.5-.245 0-.45-.177-.492-.41L9 5V3H5v2c0 .276-.224.5-.5.5-.245 0-.45-.177-.492-.41L4 5V3zm17.292 15H17v4.292L21.292 18z" transform="translate(-295 -708) translate(271 680) translate(24 28)"/>
                    <path fill="#D99A29" d="M9.854 12.646c.173.174.192.443.057.638l-.057.07-3 3c-.174.173-.443.192-.638.057l-.07-.057-1.5-1.5c-.195-.196-.195-.512 0-.708.174-.173.443-.192.638-.057l.07.057L6.5 15.293l2.646-2.647c.196-.195.512-.195.708 0zM18 14c.276 0 .5.224.5.5 0 .245-.177.45-.41.492L18 15h-6.5c-.276 0-.5-.224-.5-.5 0-.245.177-.45.41-.492L11.5 14H18zM9.854 7.146c.173.174.192.443.057.638l-.057.07-3 3c-.174.173-.443.192-.638.057l-.07-.057-1.5-1.5c-.195-.196-.195-.512 0-.708.174-.173.443-.192.638-.057l.07.057L6.5 9.793l2.646-2.647c.196-.195.512-.195.708 0zM18 9c.276 0 .5.224.5.5 0 .245-.177.45-.41.492L18 10h-6.5c-.276 0-.5-.224-.5-.5 0-.245.177-.45.41-.492L11.5 9H18z" transform="translate(-295 -708) translate(271 680) translate(24 28)"/>
                </g>
            </g>
        </g>
    </g>
</svg>
