<?xml version="1.0" encoding="UTF-8"?>
<svg width="24px" height="24px" viewBox="0 0 24 24" version="1.1" xmlns="http://www.w3.org/2000/svg" xmlns:xlink="http://www.w3.org/1999/xlink">
    <title>66F993DF-87B8-46E4-B20C-6CEB9CB78AB8</title>
    <g id="Auditors-Dashboard" stroke="none" stroke-width="1" fill="none" fill-rule="evenodd">
        <g id="Approvals-&amp;-Rejections-1" transform="translate(-305.000000, -384.000000)" fill-rule="nonzero">
            <g id="Group-11" transform="translate(269.000000, 360.000000)">
                <g id="Partials-/-Icons-/-Summary" transform="translate(24.000000, 12.000000)">
                    <g id="Icons-/-24px-/-Tax-/-Establishments" transform="translate(12.000000, 12.000000)">
                        <path d="M15,14 L10,14 C9.72385763,14 9.5,14.2238576 9.5,14.5 L9.5,23.5 C9.5,23.7761424 9.72385763,24 10,24 L15,24 C15.2761424,24 15.5,23.7761424 15.5,23.5 L15.5,14.5 C15.5,14.2238576 15.2761424,14 15,14 Z M14.5,15 L14.5,23 L10.5,23 L10.5,15 L14.5,15 Z" id="Stroke-Gold" fill="#D99A29"></path>
                        <path d="M0.033,6.32 L0.034,6.32 L0.039,6.307 L0.033,6.32 L0.0386462056,6.30691256 L0.0386462056,6.30691256 L0.0527864045,6.2763932 L2.0527864,2.2763932 C2.12336641,2.13523319 2.25535999,2.03740014 2.4069957,2.00871024 L2.5,2 L21.5,2 C21.6578217,2 21.8043556,2.07430638 21.8978301,2.19710296 L21.9472136,2.2763932 L23.9472136,6.2763932 C23.9523614,6.28668887 23.957118,6.29704085 23.9614915,6.30743576 C23.9652418,6.31619138 23.968858,6.32561229 23.9721925,6.33516533 C23.9796552,6.35624515 23.9854507,6.3769115 23.9898599,6.39759572 L23.994,6.429 L23.9935003,6.41647163 C23.9973107,6.43853937 23.9995652,6.46059239 24.0003397,6.48250779 L24,7.5 C24,8.9825831 23.1499443,10.1599693 22.0006744,10.6794953 L22,23.5 C22,23.7454599 21.8231248,23.9496084 21.5898756,23.9919443 L21.5,24 L2.5,24 C2.25454011,24 2.05039163,23.8231248 2.00805567,23.5898756 L2,23.5 L2.00025329,10.675834 C0.941921495,10.1983707 0.135930918,9.16490355 0.0155663945,7.84464111 L0.0036772673,7.66826782 L4.47286652e-12,7.5 L0.000199736407,6.48572925 L0.000199736407,6.48572925 C0.000166414085,6.46327366 0.00245762161,6.43988093 0.0064996999,6.41647163 L0.0106603392,6.39680949 L0.0106603392,6.39680949 L0.0273184181,6.33655444 L0.0273184181,6.33655444 L0.0278074618,6.33516533 L0.033,6.321 L0.033,6.32 Z M5.413,10.236 L5.2971252,10.3224762 C4.55739217,10.8419372 3.75332668,11.0262851 3.00037484,10.9472489 L3,23 L21,23 L21.0001048,10.9511026 C20.299812,11.0241219 19.5545571,10.868414 18.856287,10.4251122 L18.7061471,10.3248092 L18.586,10.237 L18.5500658,10.2828931 C16.9584659,12.210988 14.1768108,12.5631145 12.2513898,11.0617459 L12.0734525,10.9155539 L12,10.848 L11.9258202,10.9169851 C10.0519468,12.5399491 7.26110067,12.2810693 5.60110386,10.4566664 L5.44885469,10.2810518 L5.413,10.236 Z M18,7 L12.5,7 L12.5002284,9.9444707 C14.0585993,11.5446737 16.6449239,11.2700902 17.9579934,9.41178914 L18,9.347 L18,7 Z M11.5,7 L6,7 L5.99912258,9.34974666 C7.29000796,11.2497662 9.90523914,11.5671719 11.4852122,9.95967247 L11.5,9.943 L11.5,7 Z M23,7 L19,7 L19.0001659,9.28378107 C20.6751921,10.7602905 22.8884922,9.64168831 22.9959318,7.65156017 L23,7.5 L23,7 Z M5,7 L1,7 L1,7.5 C1,9.54446458 3.20013271,10.7391473 4.89393042,9.37330789 L5.022,9.264 L5,9.282 L5,7 Z M5.859,3 L2.809,3 L1.309,6 L5.109,6 L5.859,3 Z M11.5,3 L6.89,3 L6.14,6 L11.5,6 L11.5,3 Z M17.109,3 L12.5,3 L12.5,6 L17.859,6 L17.109,3 Z M21.19,3 L18.14,3 L18.89,6 L22.69,6 L21.19,3 Z" id="Stroke-Primary" fill="#006450"></path>
                    </g>
                </g>
            </g>
        </g>
    </g>
</svg>