<?xml version="1.0" encoding="UTF-8"?>
<svg width="24px" height="24px" viewBox="0 0 24 24" version="1.1" xmlns="http://www.w3.org/2000/svg" xmlns:xlink="http://www.w3.org/1999/xlink">
    <title>59F868D8-BFF9-4415-A6E3-2268F5C6C03A</title>
    <g id="Returns" stroke="none" stroke-width="1" fill="none" fill-rule="evenodd">
        <g id="Returns-2" transform="translate(-702.000000, -496.000000)" fill="#AA0C19">
            <g id="Group-13" transform="translate(387.000000, 120.000000)">
                <g id="Partials-/-Tags-/-Overdue-/-Unselected" transform="translate(299.000000, 368.000000)">
                    <g id="Icons-/-24px-/-Status-/-Overdue" transform="translate(16.000000, 8.000000)">
                        <path d="M11.6937746,0 C12.0512205,0 12.4067905,0.0164742587 12.75976,0.0492260584 C13.0660482,0.0776463339 13.2918926,0.355483307 13.2641976,0.669792307 C13.2365026,0.984101307 12.9657557,1.21585991 12.6594675,1.18743963 C12.3398324,1.15778091 12.0177272,1.14285714 11.6937746,1.14285714 C5.85055677,1.14285714 1.11369282,6.00376557 1.11369282,12 C1.11369282,17.9962344 5.85055677,22.8571429 11.6937746,22.8571429 C14.830455,22.8571429 17.7428672,21.4489838 19.7413803,19.0485418 C19.9411482,18.8085977 20.2926415,18.7802693 20.5264625,18.9852686 C20.7602835,19.1902679 20.7878889,19.5509657 20.588121,19.7909098 C18.3802028,22.4428713 15.1596855,24 11.6937746,24 C5.23548121,24 4.26325641e-14,18.627417 4.26325641e-14,12 C4.26325641e-14,5.372583 5.23548121,0 11.6937746,0 Z M22.2667418,14.8047891 L22.3787674,14.851982 C22.8903065,15.1102891 23.1235099,15.7182453 22.9374132,16.2576069 L22.8910661,16.371982 C22.7252791,16.7291882 22.3930245,16.9700724 22.0159333,17.0155844 L21.8887425,17.0234106 C21.7265762,17.0207211 21.5669391,16.9817169 21.4209915,16.9091249 C20.905503,16.6547274 20.6673674,16.0460426 20.8515673,15.5040841 L20.8975559,15.3891249 C21.1454614,14.8601372 21.7386133,14.6157655 22.2667418,14.8047891 Z M12.0167641,5.71428571 C12.290131,5.71428571 12.5174897,5.91642875 12.564639,6.18299928 L12.5736288,6.28571429 L12.5736288,13.1395894 C12.5758232,13.5382854 12.4426354,13.9234256 12.1987514,14.2313113 L12.0875244,14.3583467 L9.86013881,16.644061 C9.64267676,16.8672178 9.29010112,16.8672178 9.07263907,16.644061 C8.87933947,16.4456995 8.85786173,16.1377859 9.00820587,15.9150794 L9.07263907,15.835939 L11.2984229,13.5518751 C11.3818119,13.465602 11.4356828,13.3549077 11.4534575,13.2346302 L11.4599177,13.1428571 L11.4599177,6.28571429 C11.4599177,5.970123 11.7092263,5.71428571 12.0167641,5.71428571 Z M22.8817347,11.4282397 L23.0024353,11.4348391 C23.2985472,11.466405 23.5700171,11.6183162 23.7562472,11.856663 C23.915873,12.0609602 24.0014825,12.3141823 24.0010588,12.5734635 L23.9936219,12.7034106 C23.9261588,13.2761751 23.4532745,13.7075242 22.8910661,13.7091249 L22.7017383,13.7091249 C22.1510476,13.6161319 21.7588777,13.1221134 21.7689657,12.5615669 L21.7773732,12.4405534 C21.8426318,11.8585363 22.3234268,11.4285982 22.8817347,11.4282397 Z M23.2312629,8.13912733 C23.4461294,8.27693557 23.6076767,8.48503634 23.691194,8.7278482 L23.7263357,8.851982 C23.8101941,9.15552756 23.768037,9.48114426 23.6098519,9.75169011 C23.4742647,9.98358654 23.263773,10.1573371 23.0171871,10.2443862 L22.8910661,10.2805534 L22.7685598,10.2886265 L22.7685598,10.2886265 L22.6460536,10.2805534 C22.1235041,10.2829654 21.6695914,9.9122271 21.5546347,9.38912486 L21.5880455,9.38912486 C21.5136773,9.0950893 21.5564449,8.78276861 21.706901,8.52115285 C21.8358635,8.29691077 22.0348478,8.12573806 22.2696668,8.03397894 L22.3899043,7.99483914 C22.6779034,7.92644282 22.9805854,7.97835105 23.2312629,8.13912733 Z M21.673169,4.83313088 C21.920347,4.89194848 22.1392484,5.03525031 22.2951124,5.23749473 L22.3676304,5.34341057 C22.5246849,5.6009103 22.5753761,5.91198005 22.5085067,6.20790607 C22.4511901,6.46155695 22.3115451,6.68619072 22.1144617,6.84613641 L22.0112487,6.92055343 C21.8694612,7.01072856 21.7102163,7.06677722 21.5454321,7.08523811 L21.4209915,7.091982 C21.012677,7.1175247 20.6235816,6.91130074 20.4075311,6.55483914 L20.4743526,6.55483914 C20.3172982,6.29733942 20.266607,5.98626967 20.3334764,5.69034365 C20.390793,5.43669277 20.530438,5.21205899 20.7275213,5.05211331 L20.8307343,4.97769629 C21.081663,4.81652905 21.3847946,4.76451036 21.673169,4.83313088 Z M19.7112174,2.41009597 L19.8172739,2.48626772 C20.0500148,2.67509064 20.1997145,2.95140778 20.2331669,3.25392748 C20.2618404,3.51323008 20.203076,3.77340894 20.0688253,3.99203968 L19.9954647,4.09769629 C19.8096993,4.33268775 19.5419483,4.48109441 19.2521558,4.51374104 L19.1267843,4.52056005 C18.8755751,4.51905811 18.6322371,4.43045124 18.4362948,4.26912486 C17.9927423,3.90464315 17.8924495,3.26254594 18.183876,2.77795862 L18.2581039,2.66912486 C18.6132845,2.213957 19.2389962,2.11103783 19.7112174,2.41009597 Z M16.3934288,0.600513687 L16.5096062,0.634839144 C17.0518253,0.826619986 17.3571396,1.4052007 17.2332769,1.96641956 L17.2000958,2.08626772 C17.0651534,2.48439589 16.7292672,2.77059215 16.3303405,2.83832318 L16.2089092,2.851982 C16.1206776,2.85724463 16.0323579,2.85036286 15.9462744,2.83167743 L15.8191167,2.79483914 C15.531347,2.7033957 15.2919517,2.49622112 15.1555522,2.22058501 C15.0386383,1.98432548 15.0059439,1.71504396 15.0605966,1.45880269 L15.0952163,1.331982 C15.2863855,0.779813489 15.8492663,0.471844008 16.3934288,0.600513687 Z" id="Combined-Shape"></path>
                    </g>
                </g>
            </g>
        </g>
    </g>
</svg>