<?xml version="1.0" encoding="UTF-8"?>
<svg width="40px" height="40px" viewBox="0 0 40 40" version="1.1" xmlns="http://www.w3.org/2000/svg" xmlns:xlink="http://www.w3.org/1999/xlink">
    <title>D1110137-04A3-43B2-A59C-FACE95A84D57</title>
    <g id="Returns" stroke="none" stroke-width="1" fill="none" fill-rule="evenodd">
        <g id="VAT-Return-Reclaimed-7" transform="translate(-413.000000, -870.000000)" fill-rule="nonzero">
            <g id="Components-/-Cards-/-Add-Account" transform="translate(270.000000, 846.000000)">
                <g id="Icons-/-24px-/-Remove-&amp;-Add-/-Add" transform="translate(143.000000, 24.000000)">
                    <path d="M20,0.0362318841 C8.97395635,0.0362318841 0.0362318841,8.97339511 0.0362318841,20 C0.0362318841,31.0243045 8.97513421,39.9637681 20,39.9637681 C31.0248658,39.9637681 39.9637681,31.0243045 39.9637681,20 C39.9637681,8.97339511 31.0260436,0.0362318841 20,0.0362318841 Z M20,1.70289855 C30.1055925,1.70289855 38.2971014,9.89389313 38.2971014,20 C38.2971014,30.1038533 30.1043678,38.2971014 20,38.2971014 C9.89563222,38.2971014 1.70289855,30.1038533 1.70289855,20 C1.70289855,9.89389313 9.89440751,1.70289855 20,1.70289855 Z" id="Stroke-Primary" fill="#006450"></path>
                    <path d="M20,8.73188406 C20.4090998,8.73188406 20.7493473,9.02667599 20.8199072,9.41542467 L20.8333333,9.56521739 L20.8328841,19.1658841 L30.4347826,19.1666667 C30.8950199,19.1666667 31.2681159,19.5397627 31.2681159,20 C31.2681159,20.4090998 30.973324,20.7493473 30.5845753,20.8199072 L30.4347826,20.8333333 L20.8328841,20.8328841 L20.8333333,30.4347826 C20.8333333,30.8950199 20.4602373,31.2681159 20,31.2681159 C19.5909002,31.2681159 19.2506527,30.973324 19.1800928,30.5845753 L19.1666667,30.4347826 L19.1658841,20.8328841 L9.56521739,20.8333333 C9.1049801,20.8333333 8.73188406,20.4602373 8.73188406,20 C8.73188406,19.5909002 9.02667599,19.2506527 9.41542467,19.1800928 L9.56521739,19.1666667 L19.1658841,19.1658841 L19.1666667,9.56521739 C19.1666667,9.1049801 19.5397627,8.73188406 20,8.73188406 Z" id="Stroke-Gold" fill="#D99A29"></path>
                </g>
            </g>
        </g>
    </g>
</svg>