<svg xmlns="http://www.w3.org/2000/svg" width="20" height="20" viewBox="0 0 20 20">
    <g fill="none" fill-rule="evenodd">
        <g fill-rule="nonzero">
            <g>
                <g>
                    <g>
                        <g>
                            <path fill="#006450" d="M16.25 0c.205 0 .375.147.41.342l.007.075v1.249h2.083c.205 0 .375.148.41.342l.007.075v12.5c0 .115-.047.22-.122.294v.001l-5 5c-.059.058-.135.1-.22.115L13.75 20H1.25c-.23 0-.417-.187-.417-.417v-17.5c0-.23.187-.416.417-.416l2.083-.001V.416c0-.23.187-.416.417-.416.205 0 .375.147.41.342l.007.075v1.249h3.332L7.5.416c0-.23.187-.416.417-.416.204 0 .374.147.41.342l.006.075v1.249h3.333V.416c0-.23.187-.416.417-.416.205 0 .375.147.41.342l.007.075v1.249h3.333V.416c0-.23.187-.416.417-.416zM3.333 2.5H1.667v16.667h11.666v-4.584c0-.204.148-.374.342-.41l.075-.006h4.583V2.5h-1.667v1.667c0 .23-.186.416-.416.416-.205 0-.375-.147-.41-.341l-.007-.075V2.5H12.5l.001 1.667c0 .23-.187.416-.417.416-.204 0-.374-.147-.41-.341l-.006-.075V2.5H8.332v1.667c0 .23-.186.416-.416.416-.205 0-.375-.147-.41-.341L7.5 4.167V2.5H4.165v1.667c0 .23-.186.416-.416.416-.205 0-.375-.147-.41-.341l-.007-.075V2.5zM17.743 15h-3.576v3.577L17.742 15zM6.961 13.455c.273.273.701.296 1 .068l.078-.068c.162-.162.426-.162.589 0 .163.163.163.427 0 .59-.623.622-1.633.622-2.256 0-.272-.273-.7-.296-1-.068l-.077.068-.834.833c-.162.163-.426.163-.589 0-.145-.145-.16-.37-.048-.532l.048-.057.833-.834c.623-.622 1.634-.622 2.256 0z" transform="translate(-935 -636) translate(271 538) translate(0 72) translate(664 24) translate(0 2)"/>
                            <path fill="#D99A29" d="M15.539 8.455c.162-.162.426-.162.589 0 .145.145.16.37.048.532l-.048.058-.833.833c-.623.623-1.634.623-2.256 0-.298-.297-.78-.297-1.078 0-.622.623-1.633.623-2.256 0-.297-.297-.78-.297-1.077 0-.623.623-1.633.623-2.256 0-.272-.273-.7-.295-1-.068l-.077.068-.834.833c-.162.163-.426.163-.589 0-.145-.144-.16-.369-.048-.531l.048-.058.833-.833c.623-.623 1.634-.623 2.256 0 .298.297.78.297 1.078 0 .622-.623 1.633-.623 2.256 0 .297.297.78.297 1.077 0 .623-.623 1.633-.623 2.256 0 .272.272.7.295 1 .068l.077-.068.834-.834z" transform="translate(-935 -636) translate(271 538) translate(0 72) translate(664 24) translate(0 2)"/>
                        </g>
                    </g>
                </g>
            </g>
        </g>
    </g>
</svg>
