<svg xmlns="http://www.w3.org/2000/svg" width="24" height="24" viewBox="0 0 24 24">
    <g fill="none" fill-rule="evenodd">
        <g fill-rule="nonzero">
            <g>
                <g>
                    <path fill="#006450" d="M12 .022C5.384.022.022 5.384.022 12c0 6.615 5.363 11.978 11.978 11.978 6.615 0 11.978-5.363 11.978-11.978C23.978 5.384 18.616.022 12 .022zm0 1c6.063 0 10.978 4.914 10.978 10.978 0 6.062-4.915 10.978-10.978 10.978S1.022 18.062 1.022 12C1.022 5.936 5.937 1.022 12 1.022z" transform="translate(-286 -825) translate(270 809) translate(16 16)"/>
                    <path fill="#D99A29" d="M12 5.24c.245 0 .45.176.492.41l.008.09v5.76h5.76c.277 0 .5.224.5.5 0 .245-.176.45-.41.492l-.09.008H12.5v5.76c0 .277-.224.5-.5.5-.245 0-.45-.176-.492-.41l-.008-.09V12.5H5.74c-.277 0-.5-.224-.5-.5 0-.245.176-.45.41-.492l.09-.008h5.76V5.74c0-.277.224-.5.5-.5z" transform="translate(-286 -825) translate(270 809) translate(16 16)"/>
                </g>
            </g>
        </g>
    </g>
</svg>
