<svg xmlns="http://www.w3.org/2000/svg" width="24" height="24" viewBox="0 0 24 24">
    <g fill="none" fill-rule="evenodd">
        <g fill="#006450" fill-rule="nonzero">
            <g>
                <g>
                    <path d="M12 0c3.431 0 5.889 2.691 5.996 6.256L18 6.5v9c0 .276-.224.5-.5.5-.245 0-.45-.177-.492-.41L17 15.5v-9C17 3.342 14.928 1 12 1 9.145 1 7.104 3.226 7.004 6.265L7 6.5V19c0 2.339 1.406 4 3.5 4 2.026 0 3.409-1.556 3.496-3.776L14 19V9.5c0-1.529-.748-2.5-2-2.5-1.2 0-1.937.892-1.996 2.312L10 9.5V17c0 .276-.224.5-.5.5-.245 0-.45-.177-.492-.41L9 17V9.5C9 7.468 10.13 6 12 6c1.806 0 2.921 1.368 2.996 3.292L15 9.5V19c0 2.858-1.814 5-4.5 5-2.612 0-4.399-2.025-4.496-4.764L6 19V6.5C6 2.815 8.49 0 12 0z" transform="translate(-299 -2400) translate(287 2388) translate(12 12)"/>
                </g>
            </g>
        </g>
    </g>
</svg>
