<?xml version="1.0" encoding="UTF-8"?>
<svg width="24px" height="24px" viewBox="0 0 24 24" version="1.1" xmlns="http://www.w3.org/2000/svg" xmlns:xlink="http://www.w3.org/1999/xlink">
    <title>9D269F7F-1A35-48A9-95F7-C84DC1E4BA36</title>
    <g id="Returns" stroke="none" stroke-width="1" fill="none" fill-rule="evenodd">
        <g id="Zakat-&amp;-CIT-Return-Form-11---7" transform="translate(-306.000000, -3170.000000)" fill-rule="nonzero">
            <g id="Group-8" transform="translate(270.000000, 3146.000000)">
                <g id="Partials-/-Icon-/-Summary" transform="translate(24.000000, 12.000000)">
                    <g id="Icons-/-24px-/-Main-/-Registration" transform="translate(12.000000, 12.000000)">
                        <path d="M21.2863055,12.0865912 L21.3555534,12.1444466 L23.8555534,14.6444466 C24.0291197,14.818013 24.0484049,15.0874374 23.9134088,15.2823055 L23.8555534,15.3515534 L16.3535534,22.8535534 C16.293469,22.9136378 16.2190633,22.9574183 16.1373606,22.980762 L12.6373606,23.980762 C12.2871258,24.0808291 11.9614346,23.7873023 12.0029765,23.4428712 L12.019238,23.3626394 L13.019238,19.8626394 C13.0225869,19.8509184 13.0263564,19.8393475 13.0305343,19.8279475 C13.0354629,19.8141069 13.0412142,19.8003099 13.0476098,19.7867412 C13.0541572,19.7731928 13.061034,19.7601549 13.068472,19.7474459 C13.0891725,19.7117602 13.1153303,19.6775629 13.1464466,19.6464466 L20.6484466,12.1444466 C20.822013,11.9708803 21.0914374,11.9515951 21.2863055,12.0865912 Z M2.5,2 C2.77614237,2 3,2.22385763 3,2.5 C3,2.74545989 2.82312484,2.94960837 2.58987563,2.99194433 L2.5,3 L1,3 L1,23 L10,23 C10.2454599,23 10.4496084,23.1768752 10.4919443,23.4101244 L10.5,23.5 C10.5,23.7454599 10.3231248,23.9496084 10.0898756,23.9919443 L10,24 L0.5,24 C0.254540111,24 0.0503916296,23.8231248 0.00805566941,23.5898756 L0,23.5 L0,2.5 C0,2.25454011 0.176875161,2.05039163 0.410124368,2.00805567 L0.5,2 L2.5,2 Z M13.7463875,20.953 L13.227,22.772 L15.0453875,22.252 L13.7463875,20.953 Z M9.5,0 C10.659902,0 11.6351686,0.78995508 11.9175605,1.86093844 L11.9175605,1.86093844 L11.95,2 L14.5,2 C14.7454599,2 14.9496084,2.17687516 14.9919443,2.41012437 L14.9919443,2.41012437 L15,2.5 L15,4 L16.5,4 C16.7454599,4 16.9496084,4.17687516 16.9919443,4.41012437 L17,4.5 L17,12.5 C17,12.7761424 16.7761424,13 16.5,13 C16.2545401,13 16.0503916,12.8231248 16.0080557,12.5898756 L16,12.5 L16,5 L15,5 L15,5.5 C15,5.74545989 14.8231248,5.94960837 14.5898756,5.99194433 L14.5,6 L4.5,6 C4.22385763,6 4,5.77614237 4,5.5 L4,5.5 L4,5 L3,5 L3,21 L10.5,21 C10.7454599,21 10.9496084,21.1768752 10.9919443,21.4101244 L11,21.5 C11,21.7454599 10.8231248,21.9496084 10.5898756,21.9919443 L10.5,22 L2.5,22 C2.25454011,22 2.05039163,21.8231248 2.00805567,21.5898756 L2,21.5 L2,4.5 C2,4.25454011 2.17687516,4.05039163 2.41012437,4.00805567 L2.5,4 L4,4 L4,2.5 C4,2.25454011 4.17687516,2.05039163 4.41012437,2.00805567 L4.5,2 L7.05,2 L7.08248426,1.86104234 C7.35156375,0.841165388 8.24933187,0.0758909387 9.33568729,0.00532030394 L9.33568729,0.00532030394 Z M19.0013875,15.204 L14.2063875,19.999 L15.9993875,21.792 L20.7943875,16.997 L19.0013875,15.204 Z M21.002,13.205 L19.7083875,14.497 L21.5013875,16.29 L22.795,14.998 L21.002,13.205 Z M18.5,2 C18.7454599,2 18.9496084,2.17687516 18.9919443,2.41012437 L19,2.5 L19,11.5 C19,11.7761424 18.7761424,12 18.5,12 C18.2545401,12 18.0503916,11.8231248 18.0080557,11.5898756 L18,11.5 L18,3 L16.5,3 C16.2545401,3 16.0503916,2.82312484 16.0080557,2.58987563 L16,2.5 C16,2.25454011 16.1768752,2.05039163 16.4101244,2.00805567 L16.5,2 L18.5,2 Z M9.5,1 C8.67214237,1 8,1.67214237 8,2.5 C8,2.77614237 7.77614237,3 7.5,3 L7.5,3 L5,3 L5,5 L14,5 L14,3 L11.5,3 C11.2545401,3 11.0503916,2.82312484 11.0080557,2.58987563 L11.0080557,2.58987563 L11,2.5 C11,1.6717583 10.3284737,1 9.5,1 Z" id="Stroke-Primary" fill="#006450"></path>
                        <path d="M10,15 C10.2761424,15 10.5,15.2238576 10.5,15.5 C10.5,15.7454599 10.3231248,15.9496084 10.0898756,15.9919443 L10,16 L5.5,16 C5.22385763,16 5,15.7761424 5,15.5 C5,15.2545401 5.17687516,15.0503916 5.41012437,15.0080557 L5.5,15 L10,15 Z M13.5,13 C13.7761424,13 14,13.2238576 14,13.5 C14,13.7454599 13.8231248,13.9496084 13.5898756,13.9919443 L13.5,14 L5.5,14 C5.22385763,14 5,13.7761424 5,13.5 C5,13.2545401 5.17687516,13.0503916 5.41012437,13.0080557 L5.5,13 L13.5,13 Z M13.5,11 C13.7761424,11 14,11.2238576 14,11.5 C14,11.7454599 13.8231248,11.9496084 13.5898756,11.9919443 L13.5,12 L5.5,12 C5.22385763,12 5,11.7761424 5,11.5 C5,11.2545401 5.17687516,11.0503916 5.41012437,11.0080557 L5.5,11 L13.5,11 Z M13.5,9 C13.7761424,9 14,9.22385763 14,9.5 C14,9.74545989 13.8231248,9.94960837 13.5898756,9.99194433 L13.5,10 L5.5,10 C5.22385763,10 5,9.77614237 5,9.5 C5,9.25454011 5.17687516,9.05039163 5.41012437,9.00805567 L5.5,9 L13.5,9 Z" id="Stroke-Gold" fill="#D99A29"></path>
                    </g>
                </g>
            </g>
        </g>
    </g>
</svg>