<svg xmlns="http://www.w3.org/2000/svg" width="24" height="24" viewBox="0 0 24 24">
    <g fill="none" fill-rule="evenodd">
        <g fill-rule="nonzero">
            <g>
                <g>
                    <g>
                        <path fill="#006450" d="M16.412 3.5c1.869 0 3.395 1.464 3.495 3.308l.005.192v.754h1.19c1.326 0 2.41 1.032 2.495 2.336l.005.165v8.652h1.354c.276 0 .5.224.5.5 0 .246-.177.45-.41.492l-.09.008H1c-.276 0-.5-.224-.5-.5 0-.245.177-.45.41-.492l.09-.008h2.836v-7.144c0-1.868 1.464-3.395 3.308-3.494l.192-.006h.561V7c0-1.869 1.465-3.395 3.308-3.495l.193-.005h5.014zm4.69 5.255l-1.19-.001v10.153h2.69v-8.652c0-.78-.595-1.42-1.356-1.493l-.144-.007zM16.412 4.5h-5.014c-1.326 0-2.41 1.032-2.495 2.336L8.898 7l-.001 11.907h5.692v-1.245c0-.78.596-1.42 1.356-1.493l.145-.007h.234c.78 0 1.42.595 1.493 1.355l.007.145v1.245h1.088V7c0-1.325-1.032-2.41-2.336-2.495l-.164-.005zM7.897 9.263h-.56c-1.326 0-2.41 1.032-2.496 2.336l-.005.164v7.144h3.061V9.263zm8.427 7.899h-.234c-.246 0-.45.177-.492.41l-.008.09-.001 1.245h1.235v-1.245c0-.246-.177-.45-.41-.492l-.09-.008zm-9.007-.625c.276 0 .5.224.5.5 0 .245-.177.45-.41.492l-.09.008h-1.8c-.276 0-.5-.224-.5-.5 0-.245.177-.45.41-.492l.09-.008h1.8zm14.683 0c.276 0 .5.224.5.5 0 .245-.177.45-.41.492l-.09.008h-1.2c-.276 0-.5-.224-.5-.5 0-.245.177-.45.41-.492l.09-.008H22zm0-1.185c.276 0 .5.224.5.5 0 .245-.177.45-.41.492l-.09.008h-1.2c-.276 0-.5-.224-.5-.5 0-.246.177-.45.41-.492l.09-.008H22zM7.317 11.796c.276 0 .5.224.5.5 0 .246-.177.45-.41.492l-.09.008h-1.8c-.276 0-.5-.224-.5-.5 0-.245.177-.45.41-.492l.09-.008h1.8zm9.483-1.87c.552 0 1 .448 1 1v.37c0 .553-.448 1-1 1H11c-.552 0-1-.447-1-1v-.37c0-.552.448-1 1-1h5.8zm-9.483.685c.276 0 .5.224.5.5 0 .246-.177.45-.41.492l-.09.008h-1.8c-.276 0-.5-.224-.5-.5 0-.245.177-.45.41-.492l.09-.008h1.8zM22 10.491c.276 0 .5.224.5.5 0 .246-.177.45-.41.492l-.09.008h-1.2c-.276 0-.5-.223-.5-.5 0-.245.177-.45.41-.492l.09-.008H22zm-5.2.435H11v.37h5.8v-.37zm.602-3.278c.276 0 .5.224.5.5 0 .246-.177.45-.41.492l-.09.008h-6.949c-.276 0-.5-.224-.5-.5 0-.245.177-.45.41-.492l.09-.008h6.95zm0-1.778c.276 0 .5.224.5.5 0 .246-.177.45-.41.492l-.09.008h-6.949c-.276 0-.5-.223-.5-.5 0-.245.177-.45.41-.492l.09-.008h6.95z" transform="translate(-306 -680) translate(270 644) translate(24 24) translate(11 12)"/>
                        <path fill="#D99A29" d="M16.8 12.889c.552 0 1 .448 1 1v.37c0 .553-.448 1-1 1H11c-.552 0-1-.447-1-1v-.37c0-.552.448-1 1-1h5.8zm0 1H11v.37h5.8v-.37z" transform="translate(-306 -680) translate(270 644) translate(24 24) translate(11 12)"/>
                    </g>
                </g>
            </g>
        </g>
    </g>
</svg>
