<svg xmlns="http://www.w3.org/2000/svg" width="24" height="24" viewBox="0 0 24 24">
    <g fill="none" fill-rule="evenodd">
        <g fill-rule="nonzero">
            <g>
                <g>
                    <g>
                        <path fill="#006450" d="M2.5 2c.276 0 .5.224.5.5 0 .245-.177.45-.41.492L2.5 3H1v20h9c.245 0 .45.177.492.41l.008.09c0 .245-.177.45-.41.492L10 24H.5c-.245 0-.45-.177-.492-.41L0 23.5v-21c0-.245.177-.45.41-.492L.5 2h2zm18.148 10.144c.196-.195.512-.195.708 0l2.5 2.5c.195.196.195.512 0 .708l-7.502 7.502c-.033.032-.069.06-.107.08-.034.02-.071.036-.11.047l.076-.029c-.013.007-.027.013-.041.018l-.035.01-3.5 1c-.377.109-.726-.24-.618-.617l1-3.5c.004-.012.007-.024.012-.035.004-.014.01-.028.017-.041.005-.012.011-.023.018-.034.02-.038.048-.074.08-.107zm-6.902 8.809l-.519 1.819 1.818-.52-1.299-1.299zM9.5 0c1.099 0 2.032.709 2.367 1.694l.05.167.033.139h2.55c.215 0 .398.135.469.326l.023.084.008.09V4h1.5c.245 0 .45.177.492.41L17 4.5v8c0 .276-.224.5-.5.5-.245 0-.45-.177-.492-.41L16 12.5V5h-1v.5c0 .245-.177.45-.41.492L14.5 6h-10c-.245 0-.45-.177-.492-.41L4 5.5V5H3v16h7.5c.245 0 .45.177.492.41l.008.09c0 .245-.177.45-.41.492L10.5 22h-8c-.245 0-.45-.177-.492-.41L2 21.5v-17c0-.245.177-.45.41-.492L2.5 4H4V2.5c0-.245.177-.45.41-.492L4.5 2h2.55l.032-.139C7.337.898 8.152.161 9.156.023l.18-.018L9.5 0zm9.501 15.204l-4.795 4.795 1.793 1.793 4.795-4.795-1.793-1.793zm2.001-1.999l-1.294 1.292 1.793 1.793 1.294-1.292-1.793-1.793zM18.5 2c.245 0 .45.177.492.41L19 2.5v9c0 .276-.224.5-.5.5-.245 0-.45-.177-.492-.41L18 11.5V3h-1.5c-.245 0-.45-.177-.492-.41L16 2.5c0-.245.177-.45.41-.492L16.5 2h2zm-9-1C8.672 1 8 1.672 8 2.5c0 .245-.177.45-.41.492L7.5 3H5v2h9V3h-2.5c-.215 0-.398-.135-.469-.326l-.023-.084L11 2.5c0-.828-.672-1.5-1.5-1.5z" transform="translate(-307 -743) translate(271 719) translate(24 12) translate(12 12)"/>
                        <path fill="#D99A29" d="M6.339 9.033l.069.058 3.091 3.092 3.093-3.092c.195-.195.512-.195.707 0 .174.174.193.443.058.638l-.058.07-3.093 3.09 3.093 3.093c.195.196.195.512 0 .707-.174.174-.443.193-.638.058l-.07-.058L9.5 13.597l-3.09 3.092c-.196.196-.513.196-.708 0-.173-.173-.193-.443-.058-.637l.058-.07 3.091-3.092-3.091-3.092c-.196-.195-.196-.511 0-.707.173-.173.443-.193.638-.058z" transform="translate(-307 -743) translate(271 719) translate(24 12) translate(12 12)"/>
                    </g>
                </g>
            </g>
        </g>
    </g>
</svg>
