<svg xmlns="http://www.w3.org/2000/svg" width="24" height="24" viewBox="0 0 24 24">
    <g fill="none" fill-rule="evenodd">
        <g fill-rule="nonzero">
            <path fill="#006450" d="M16 13.5c0 .276-.224.5-.5.5-.245 0-.45-.177-.492-.41L15 13.5l.001-.707C13.643 13.563 11.034 14 8 14l-.602-.006c-2.774-.054-5.131-.483-6.399-1.2L1 14.5c0 .636 3.01 1.456 6.7 1.498l.8.002c.276 0 .5.224.5.5 0 .245-.177.45-.41.492L8.5 17H8c-3.033 0-5.642-.437-7-1.207V17.5c0 .636 3.01 1.456 6.7 1.498l.8.002c.276 0 .5.224.5.5 0 .245-.177.45-.41.492L8.5 20H8c-4.356 0-7.839-.902-7.995-2.395L0 17.5v-15l.005-.105C.158.938 3.48.043 7.69.002L8 0l.303.001c4.214.041 7.54.936 7.692 2.394L16 2.5v11zm-.999-3.707C13.643 10.563 11.034 11 8 11l-.602-.006c-2.774-.054-5.131-.483-6.399-1.2L1 11.5c0 .653 3.175 1.5 7 1.5 3.725 0 6.832-.803 6.993-1.448L15 11.5l.001-1.707zm0-3C13.643 7.563 11.034 8 8 8l-.602-.006c-2.774-.054-5.131-.483-6.399-1.2L1 8.5C1 9.153 4.175 10 8 10c3.725 0 6.832-.803 6.993-1.448L15 8.5l.001-1.707zm0-3c-1.21.685-3.412 1.107-6.023 1.191l-.376.01L8 5c-3.033 0-5.642-.437-7-1.207V5.5C1 6.153 4.175 7 8 7c3.725 0 6.832-.803 6.993-1.448L15 5.5l.001-1.707zM8 1l-.3.002C4.01 1.044 1 1.864 1 2.5 1 3.153 4.175 4 8 4s7-.847 7-1.5S11.825 1 8 1z"/>
            <path fill="#D99A29" d="M24 21.5c0 1.555-3.542 2.5-8 2.5l-.602-.006c-4.071-.08-7.244-.966-7.393-2.389L8 21.5v-6l.005-.105C8.161 13.902 11.644 13 16 13l.303.001C20.618 13.043 24 13.98 24 15.5v6zm-8-.5l-.602-.006c-2.774-.054-5.131-.483-6.399-1.2L9 21.5c0 .653 3.175 1.5 7 1.5 3.725 0 6.832-.803 6.993-1.448L23 21.5l.001-1.707C21.643 20.563 19.034 21 16 21zm7.001-4.207c-1.267.718-3.624 1.147-6.399 1.201L16 18c-3.033 0-5.642-.437-7-1.207V18.5c0 .653 3.175 1.5 7 1.5 3.725 0 6.832-.803 6.993-1.448L23 18.5zM16 14l-.3.002c-3.69.042-6.7.862-6.7 1.498 0 .653 3.175 1.5 7 1.5s7-.847 7-1.5-3.175-1.5-7-1.5z"/>
        </g>
    </g>
</svg>
