<svg xmlns="http://www.w3.org/2000/svg" width="24" height="24" viewBox="0 0 24 24">
    <g fill="none" fill-rule="evenodd">
        <g fill="#FFF" fill-rule="nonzero">
            <g>
                <g>
                    <path d="M12 .022C18.615.022 23.978 5.385 23.978 12c0 6.615-5.363 11.978-11.978 11.978C5.384 23.978.022 18.616.022 12S5.384.022 12 .022zm0 1C5.936 1.022 1.022 5.937 1.022 12S5.936 22.978 12 22.978c6.062 0 10.978-4.915 10.978-10.978S18.062 1.022 12 1.022zm0 8.391c.245 0 .45.177.492.41l.008.09v8.87l-.002.02 2.632.001c.277 0 .5.224.5.5 0 .246-.176.45-.41.492l-.09.008H8.87c-.277 0-.5-.224-.5-.5 0-.245.176-.45.41-.492l.09-.008h2.632l-.002-.021-.001-8.37H9.913c-.245 0-.45-.177-.492-.41l-.008-.09c0-.245.177-.45.41-.492l.09-.008H12zm-.522-4.696c.563 0 1.022.459 1.022 1.022 0 .565-.458 1.022-1.022 1.022-.565 0-1.021-.457-1.021-1.022 0-.563.456-1.022 1.021-1.022z" transform="translate(-40 -161) translate(0 136) translate(40 25)"/>
                </g>
            </g>
        </g>
    </g>
</svg>
