<?xml version="1.0" encoding="UTF-8"?>
<svg width="24px" height="24px" viewBox="0 0 24 24" version="1.1" xmlns="http://www.w3.org/2000/svg" xmlns:xlink="http://www.w3.org/1999/xlink">
    <title>AFEDA8DD-1E7E-4CBF-A57B-EE2DC9668EE9</title>
    <defs>
        <path d="M14,-1.13686838e-13 L18.9321142,-1.13686838e-13 C20.4398515,-1.13686838e-13 21.8,1.35076812 21.8,2.8481073 L21.8,7.7462069 L14,-1.13686838e-13 Z" id="path-1"></path>
        <filter x="-25.6%" y="-38.7%" width="151.3%" height="151.6%" filterUnits="objectBoundingBox" id="filter-2">
            <feOffset dx="0" dy="-1" in="SourceAlpha" result="shadowOffsetOuter1"></feOffset>
            <feGaussianBlur stdDeviation="0.5" in="shadowOffsetOuter1" result="shadowBlurOuter1"></feGaussianBlur>
            <feComposite in="shadowBlurOuter1" in2="SourceAlpha" operator="out" result="shadowBlurOuter1"></feComposite>
            <feColorMatrix values="0 0 0 0 0   0 0 0 0 0   0 0 0 0 0  0 0 0 0.0909637238 0" type="matrix" in="shadowBlurOuter1"></feColorMatrix>
        </filter>
    </defs>
    <g id="Returns" stroke="none" stroke-width="1" fill="none" fill-rule="evenodd">
        <g id="Withholding-Returns-4" transform="translate(-478.000000, -673.000000)">
            <g id="Forms-/-Drag-&amp;-Drop-/-Uploaded" transform="translate(271.000000, 601.000000)">
                <g id="Icons-/-24px-/-Main-/-PDF" transform="translate(207.000000, 72.000000)">
                    <path d="M14,0 L22,8 L22,21.2 C22,22.7463973 20.7463973,24 19.2,24 L4.8,24 C3.2536027,24 2,22.7463973 2,21.2 L2,2.8 C2,1.2536027 3.2536027,0 4.8,0 L14,0 Z" id="PDF" fill="#E94848"></path>
                    <path d="M11.6335,8 C11.1222652,8 10.7018333,8.41753275 10.7018333,8.92524138 C10.7018333,9.55639386 11.0549493,10.3399466 11.4267865,11.0764276 C11.1361357,11.9800051 10.8063127,12.9483178 10.3844844,13.7654103 C9.52110925,14.1018398 8.75115057,14.3518981 8.28823438,14.7224569 C8.28101605,14.7297876 8.27421222,14.7375097 8.26785417,14.7455879 C8.0986926,14.9173868 8,15.1512924 8,15.401931 C8,15.9096387 8.42043196,16.3271724 8.93166667,16.3271724 C9.18096641,16.3271724 9.42159243,16.2347824 9.59547917,16.0582741 C9.60149712,16.0536925 9.60732486,16.0488695 9.61294792,16.0438172 C9.95370081,15.6397345 10.3554892,14.9067173 10.7134792,14.2367052 C11.5385383,13.9143863 12.4032805,13.5864154 13.2377135,13.389531 C13.8468661,13.8770649 14.7281121,14.1991172 15.4533333,14.1991172 C15.9645677,14.1991172 16.385,13.7815836 16.385,13.2738759 C16.385,12.7661682 15.9645677,12.3486345 15.4533333,12.3486345 C14.8717468,12.3486345 14.0265851,12.5548101 13.380375,12.7707759 C12.856582,12.2824423 12.3753444,11.6725493 12.0294583,11.0243828 C12.2765902,10.2683233 12.5651667,9.51181749 12.5651667,8.92524138 C12.5651667,8.41753275 12.1447349,8 11.6335,8 Z M11.6335,8.55514483 C11.8426286,8.55514483 12.0061667,8.71755522 12.0061667,8.92524138 C12.0061667,9.2029461 11.8564261,9.71424189 11.6829948,10.26395 C11.4512505,9.72918639 11.2608333,9.21612524 11.2608333,8.92524138 C11.2608333,8.71755522 11.4243715,8.55514483 11.6335,8.55514483 Z M11.7936302,11.7212052 C12.0738441,12.1638545 12.4020302,12.5757489 12.7602344,12.9413672 C12.2077308,13.0914044 11.668137,13.283651 11.1356406,13.4849466 C11.3928293,12.9084657 11.598722,12.3102647 11.7936302,11.7212052 Z M15.4533333,12.9037793 C15.6624623,12.9037793 15.826,13.0661869 15.826,13.2738759 C15.826,13.4815648 15.6624623,13.6439724 15.4533333,13.6439724 C15.0334927,13.6439724 14.4367798,13.4557598 13.9597552,13.1929172 C14.5073019,13.0391606 15.104768,12.9037793 15.4533333,12.9037793 Z M9.89244792,14.5605397 C9.63045244,15.0249738 9.37002804,15.4584679 9.187875,15.6766121 C9.12565131,15.735698 9.04287804,15.7720276 8.93166667,15.7720276 C8.72253797,15.7720276 8.559,15.6096107 8.559,15.401931 C8.559,15.3041978 8.60082671,15.2071261 8.65798958,15.1445983 C8.8765461,14.97663 9.35202628,14.7753437 9.89244792,14.5605397 Z" id="acrobat-shape" fill="#FFFFFF" fill-rule="nonzero"></path>
                    <g id="Path" transform="translate(17.900000, 3.873103) scale(-1, -1) translate(-17.900000, -3.873103) ">
                        <use fill="black" fill-opacity="1" filter="url(#filter-2)" xlink:href="#path-1"></use>
                        <use fill-opacity="0.4" fill="#FFFFFF" fill-rule="evenodd" xlink:href="#path-1"></use>
                    </g>
                </g>
            </g>
        </g>
    </g>
</svg>