<svg xmlns="http://www.w3.org/2000/svg" width="162" height="48" viewBox="0 0 162 48">
    <g fill="none" fill-rule="evenodd">
        <path fill="#000" d="M8.673 29.039L9.833 29.039 9.833 28.066 8.673 28.066z"/>
        <g>
            <path fill="#000" d="M2.436 36.74c-.815 0-1.414-.21-1.784-.622-.374-.418-.564-.953-.564-1.592v-1.837h1.118v1.612c0 1.006.574 1.537 1.66 1.537h1.352v-8.433h1.118v6.5s4.335.048 4.514.026c.424-.053.85-.161 1.269-.321l.151-.059-.532-1.283c-.148-.362-.379-.646-.684-.843-.304-.197-.67-.297-1.087-.297-.392 0-.76.069-1.095.206l-.397-.886c.531-.256 1.105-.385 1.707-.385.612 0 1.152.15 1.605.448.45.298.778.709.977 1.22l.552 1.412c.172.45.535.73 1.084.834l-.423.94c-.183-.017-.393-.08-.621-.186-.273-.127-.509-.294-.697-.496l-.084-.089-.107.058c-.427.23-.918.41-1.457.532-.542.123-1.072.186-1.576.186h-3.1v1.819h-2.9zM19.874 34.921c-.56 0-1.006-.053-1.324-.16-.304-.102-.54-.262-.695-.48l-.094-.13-.127.096c-.597.447-1.236.674-1.899.674h-1.147l-.41-.912h1.342c.774 0 1.41-.146 1.89-.431l.113-.068-1.325-3.447h1.197l1.24 3.221c.092.252.243.438.445.555.197.114.456.17.794.17h.875v-6.604h1.107v7.516h-1.982zM23.199 34.922L24.316 34.922 24.316 27.405 23.199 27.405zM27.34 36.318c.34-.053.62-.124.837-.21.277-.11.492-.278.64-.498.146-.22.22-.516.22-.88v-3.655l-.126-.025c-.248-.05-.48-.074-.685-.074-.64 0-1.404.269-1.404 1.556 0 .448.122.808.363 1.072.244.269.595.405 1.041.405h.973l-.676.912h-.543c-.44 0-.843-.1-1.195-.297-.351-.196-.63-.477-.828-.839-.202-.363-.304-.79-.304-1.272 0-.46.11-.883.327-1.255.215-.372.523-.666.914-.876.395-.212.86-.32 1.383-.32.437 0 1.067.062 1.877.183v4.435c0 .604-.103 1.089-.307 1.444-.201.354-.48.618-.827.79-.336.168-.753.295-1.242.381l-.438-.977zM36.37 28.983L37.529 28.983 37.529 28.009 36.37 28.009zM34.326 28.983L35.485 28.983 35.485 28.009 34.326 28.009zM35.855 30.975c-.64 0-1.404.27-1.404 1.557 0 .448.123.809.364 1.073.243.267.594.404 1.04.404h.811v-2.934l-.126-.026c-.248-.049-.478-.074-.685-.074zm-.245 3.947c-.441 0-.844-.1-1.196-.298-.351-.196-.629-.478-.828-.839-.201-.363-.303-.791-.303-1.272 0-.46.11-.883.327-1.256.215-.37.522-.665.914-.876.394-.21.859-.318 1.383-.318.435 0 1.067.061 1.877.182v4.677H35.61zM41.212 34.921c-.537 0-.932-.158-1.21-.482-.28-.326-.422-.776-.422-1.333v-5.701h1.116v5.475c0 .399.08.68.241.857.163.18.4.272.704.272h6.216l.036-.105c.135-.391.202-.727.202-1.003 0-.5-.155-.868-.463-1.093-.291-.213-.714-.321-1.257-.321h-2.424l-.467-1.041 2.756-3.041h1.302l-3.149 3.169h2.237c.856 0 1.509.193 1.942.574.431.381.642.921.642 1.65 0 .345-.064.728-.189 1.14-.115.379-.233.709-.359.983h-7.454zM51.009 28.983L52.168 28.983 52.168 28.009 51.009 28.009zM49.75 36.315c.255-.046.46-.102.623-.172.224-.096.395-.257.507-.478.107-.212.16-.491.16-.853v-4.647h1.117v3.3l.031.042c.229.306.586.473 1.062.494.304-.022.55-.145.75-.366.22-.244.332-.566.332-.959v-5.271h1.117V32.9c0 .185-.02.367-.058.539l-.016.073.047.06c.236.29.61.436 1.114.436h1.179v-6.604h1.107v7.516h-2.286c-.203 0-.43-.05-.677-.152-.244-.1-.467-.253-.662-.454l-.12-.125-.113.132c-.34.404-.781.6-1.35.6h-.595l-.011-.039-.078-.024c-.181-.05-.36-.129-.535-.233l-.238-.141v.277c0 .85-.193 1.47-.572 1.857-.361.366-.83.595-1.393.68l-.442-.984zM65.192 28.983L66.351 28.983 66.351 28.009 65.192 28.009zM63.147 28.983L64.305 28.983 64.305 28.009 63.147 28.009zM70.442 30.975c-.22 0-.451.025-.687.075l-.124.027v2.932h1.972l.033-.113c.14-.484.21-.942.21-1.364 0-1.287-.763-1.557-1.404-1.557zm-3.333 3.947c-.536 0-.932-.156-1.21-.478-.085-.1-.158-.21-.218-.332l-.07-.142-.044-.161c-.06-.208-.09-.445-.09-.704v-2.03l-.125-.026c-.249-.049-.476-.074-.676-.074-.64 0-1.404.27-1.404 1.557 0 .448.123.809.365 1.073.243.267.593.404 1.04.404h1.098l-.34.913h-.983c-.442 0-.845-.1-1.202-.298-.354-.196-.636-.478-.838-.84-.204-.362-.309-.79-.309-1.271 0-.46.11-.883.328-1.256.215-.37.523-.665.915-.876.394-.21.859-.318 1.382-.318.435 0 1.067.061 1.876.182l-.01 2.636c0 .398.08.679.24.856.164.18.401.272.704.272h.976v-3.764c.809-.12 1.44-.182 1.876-.182.524 0 .99.107 1.383.318.391.211.7.505.915.876.216.373.326.796.326 1.256 0 .598-.19 1.408-.564 2.409h-5.341zM80.143 30.925c-.437 0-.967.138-1.578.411l-.15.069.074.146c.19.37.438.76.741 1.164.304.405.614.75.92 1.027l.079.073.096-.048c.374-.182.704-.421.979-.706.29-.3.437-.63.437-.978 0-.36-.165-.651-.491-.862-.304-.197-.677-.296-1.107-.296zm3.216 3.997l-.076-.01-.02.01c-1.058-.004-2.007-.128-2.82-.372l-.041-.012-.043.01c-.968.245-2.09.37-3.335.374l-.106-.003-.003.003h-.575c-.536 0-.932-.158-1.21-.483-.28-.327-.423-.775-.423-1.333v-5.7h1.119v5.474c0 .4.078.679.24.856.162.181.399.273.702.273l.252.002.004-.002c.75-.002 1.334-.036 1.735-.104l.274-.048-.183-.21c-.372-.433-.831-1.095-1.362-1.968l.284-1.19c.489-.206.922-.364 1.29-.467.378-.11.77-.163 1.162-.163.465 0 .907.096 1.314.286.404.19.73.44.97.747.231.298.35.612.35.936 0 .304-.09.621-.267.94-.18.326-.43.622-.74.881l-.263.22.338.056c.328.054.777.083 1.335.084l.099.009.013-.009h.975v-6.603h1.108v7.516h-2.097zM86.746 34.922L87.864 34.922 87.864 27.405 86.746 27.405zM91.631 28.983L92.79 28.983 92.79 28.009 91.631 28.009zM93.676 28.983L94.834 28.983 94.834 28.009 93.676 28.009zM97.334 29.155l.117-.553h.627l-.114-.228c-.054-.114-.084-.228-.084-.339 0-.29.085-.515.263-.683.179-.17.42-.253.735-.253.136 0 .281.017.433.053l-.156.475c-.069-.017-.13-.025-.185-.025-.144 0-.271.053-.364.151-.093.099-.141.23-.141.394 0 .156.038.288.112.39l.047.065h1.098v.553h-2.388zM102.872 37.109L104.031 37.109 104.031 36.135 102.872 36.135zM100.828 37.109L101.986 37.109 101.986 36.135 100.828 36.135zM107.167 31.67c-.278 0-.514.09-.697.27-.185.18-.278.445-.278.787 0 .63.346 1.071 1 1.275l.023.007h.065c.33 0 .591-.122.778-.362.178-.23.269-.525.269-.88 0-.169-.049-.34-.142-.51-.096-.17-.23-.31-.401-.419-.176-.111-.384-.168-.617-.168zm5.612 3.251c-.227 0-.483-.064-.758-.19-.272-.125-.51-.31-.704-.549l-.123-.15-.122.15c-.4.497-.9.74-1.523.74h-4.718c-.404-.007-.731-.063-.969-.166-.236-.103-.463-.288-.677-.554l-.13-.159-.12.167c-.161.223-.368.4-.613.523-.245.125-.524.188-.823.188h-.843c-.403-.006-.732-.062-.97-.165-.234-.103-.462-.288-.676-.554l-.129-.159-.12.167c-.163.223-.368.4-.613.523-.247.125-.524.188-.824.188h-1.73c-.536 0-.932-.156-1.21-.477-.28-.323-.421-.774-.421-1.338v-2.032l-.127-.025c-.248-.048-.475-.074-.674-.074-.642 0-1.405.27-1.405 1.557 0 .448.122.809.363 1.073.244.267.595.404 1.042.404h.961l-.347.912h-.84c-.44 0-.845-.1-1.202-.297-.354-.196-.635-.478-.838-.84-.205-.361-.308-.79-.308-1.271 0-.46.11-.883.327-1.255.216-.371.524-.666.915-.876.394-.211.858-.32 1.382-.32.436 0 1.067.062 1.877.183l-.01 2.634c0 .4.079.68.24.858.164.18.401.272.705.272h.871c.317 0 .592-.126.817-.374.22-.244.33-.566.33-.959v-2.613h1.119v2.839c0 .158-.017.326-.05.501l-.014.077.053.06c.168.183.364.309.582.375.207.062 1.338.094 1.338.094.318 0 .592-.126.816-.374.22-.244.332-.566.332-.959v-2.613h1.117v2.839c0 .157-.016.326-.048.501l-.015.077.054.06c.168.183.363.309.58.375.207.062 1.923.094 1.923.094l-.305-.275c-.302-.27-.448-.633-.448-1.11 0-.31.088-.613.263-.9.175-.287.424-.524.739-.7.317-.177.682-.266 1.09-.266.451 0 .837.096 1.144.284.306.187.541.433.695.725.153.296.232.602.232.91 0 .428-.152.774-.46 1.059l-.299.273h.639c.218 0 .44-.062.664-.182.225-.124.416-.318.567-.576.149-.258.224-.582.224-.963 0-.441-.103-.852-.31-1.222-.209-.372-.52-.671-.927-.89-.402-.215-.896-.325-1.464-.325h-.593l-.403-.913h1.016c.782 0 1.469.148 2.04.438.567.288 1.007.683 1.307 1.174.3.49.452 1.044.452 1.645 0 .36-.053.726-.158 1.092l-.02.067.038.06c.132.207.293.361.482.455.188.094.431.14.745.14h1.332v-6.603h1.107v7.515h-2.439zM116.51 34.922L117.627 34.922 117.627 27.405 116.51 27.405zM.707 46.852C.235 46.34 0 45.61 0 44.66c0-.938.25-1.667.752-2.187.483-.498 1.14-.747 1.972-.747.578 0 1.126.134 1.646.4v.802h-.384c-.315-.284-.73-.426-1.243-.426-.54 0-.956.166-1.249.5-.313.361-.469.904-.469 1.631 0 1.488.534 2.234 1.6 2.234.4 0 .73-.063.99-.183v-1.4h-.95v-.71H4.58v2.57c-.553.306-1.205.46-1.955.46-.823 0-1.462-.251-1.917-.752M6.352 44.966h1.927c-.012-.407-.098-.704-.26-.888-.146-.167-.364-.251-.656-.251-.586 0-.923.38-1.011 1.139zm-.015.625c.026.455.142.786.352.996.2.201.493.301.879.301.462 0 .846-.128 1.153-.387h.332v.643c-.44.307-.974.46-1.603.46-.65 0-1.156-.198-1.517-.592-.356-.39-.534-.923-.534-1.604 0-.675.188-1.218.565-1.632.365-.4.832-.6 1.4-.6 1.209 0 1.813.695 1.813 2.086l-.004.329H6.337zM10.548 43.234c.116 0 .199.032.25.096.058.072.093.206.105.397.499-.368 1.022-.552 1.573-.552.747 0 1.12.402 1.12 1.207v3.168h-.911v-2.972c0-.237-.05-.402-.15-.496-.092-.084-.24-.128-.443-.128-.346 0-.741.132-1.183.398v3.198h-.917v-4.316h.556zM15.337 44.966h1.927c-.012-.407-.098-.704-.26-.888-.145-.167-.363-.251-.655-.251-.586 0-.923.38-1.012 1.139zm-.014.625c.026.455.141.786.352.996.2.201.493.301.879.301.462 0 .846-.128 1.153-.387h.332v.643c-.44.307-.974.46-1.604.46-.65 0-1.156-.198-1.517-.592-.355-.39-.533-.923-.533-1.604 0-.675.188-1.218.565-1.632.364-.4.831-.6 1.399-.6 1.21 0 1.813.695 1.813 2.086l-.005.329h-2.834zM21.092 43.99c-.455 0-.856.15-1.203.447v3.112h-.92v-4.315h.56c.113 0 .194.035.247.105.056.076.094.211.109.406.343-.362.73-.543 1.162-.543.094 0 .185.015.273.041v.752l-.228-.004zM24.346 46.487v-.842c-.24-.052-.488-.077-.743-.077-.617 0-.925.227-.925.683 0 .234.07.411.21.533.13.11.308.164.533.164.33 0 .64-.155.925-.46zm.554 1.062c-.166 0-.287-.029-.363-.086-.075-.058-.13-.168-.16-.328-.329.312-.737.47-1.23.47-.407 0-.732-.112-.975-.334-.258-.233-.387-.56-.387-.98 0-.43.157-.764.473-.998.298-.217.7-.327 1.203-.327.31 0 .605.035.885.105v-.502c0-.45-.268-.674-.802-.674-.45 0-.831.114-1.145.34h-.318v-.682c.497-.252 1.018-.378 1.559-.378.537 0 .938.102 1.201.305.28.22.42.562.42 1.03v3.04h-.36zM26.305 47.55v-5.737h.506c.176 0 .288.036.336.109.052.073.078.234.078.483v5.145h-.92zM32.615 42.874l-.765 2.343h1.535l-.77-2.343zm-2.324 4.361l1.901-5.454h.992l1.887 5.454v.314h-.92l-.524-1.59h-2.014l-.51 1.59h-.812v-.314zM38.52 46.483v-3.248h.912v4.314h-.56c-.114 0-.191-.027-.237-.083-.05-.056-.083-.175-.1-.355-.499.332-.994.497-1.486.497-.8 0-1.198-.392-1.198-1.175v-3.198h.915v3.016c0 .234.057.399.169.496.094.082.238.123.433.123.34 0 .724-.129 1.153-.387M40.17 43.234h.506V42.09h.91v1.144h.94v.674h-.94v2.456c0 .202.047.343.138.424.085.072.226.11.424.11h.424v.615c-.243.06-.482.091-.716.091-.787 0-1.18-.38-1.18-1.139v-2.557h-.506v-.674zM44.207 43.722c.498-.365 1.02-.547 1.567-.547.748 0 1.122.402 1.122 1.208v3.166h-.913v-2.97c0-.237-.048-.404-.15-.496-.09-.086-.238-.129-.442-.129-.345 0-.74.132-1.184.396v3.2h-.916v-5.738h.502c.175 0 .288.034.336.101.053.073.078.237.078.491v1.318zM50.573 46.52c.203-.259.305-.629.305-1.112 0-.492-.102-.871-.305-1.135-.201-.258-.477-.388-.83-.388-.347 0-.62.13-.82.388-.209.267-.314.646-.314 1.135 0 .48.105.848.314 1.106.198.25.472.375.82.375.355 0 .632-.123.83-.37m-2.297.497c-.396-.404-.592-.94-.592-1.608 0-.675.196-1.22.592-1.632.38-.4.87-.6 1.468-.6.597 0 1.089.2 1.471.6.395.413.593.957.593 1.632 0 .667-.198 1.204-.593 1.608-.38.391-.87.588-1.471.588-.599 0-1.087-.197-1.468-.588M54.733 43.99c-.456 0-.858.15-1.204.447v3.112h-.92v-4.315h.56c.113 0 .195.035.247.105.057.076.094.211.109.406.343-.362.73-.543 1.162-.543.094 0 .184.015.274.041v.752l-.228-.004zM55.7 47.55v-4.316h.505c.176 0 .286.041.333.123.048.083.072.269.072.561v3.632h-.91zm.09-4.84c-.107-.1-.16-.22-.16-.363 0-.147.053-.272.16-.375.106-.103.23-.154.373-.154.14 0 .264.051.37.154.106.107.159.23.159.375 0 .142-.053.263-.16.363-.102.098-.225.146-.369.146-.143 0-.267-.048-.374-.146zM57.298 43.234h.506V42.09h.911v1.144h.94v.674h-.94v2.456c0 .202.045.343.137.424.084.072.226.11.424.11h.424v.615c-.244.06-.482.091-.716.091-.786 0-1.18-.38-1.18-1.139v-2.557h-.506v-.674zM61.093 48.57L61.672 47.263 60.091 43.512 60.091 43.234 60.948 43.234 62.118 46.127 63.212 43.234 64.001 43.234 64.001 43.508 61.881 48.857 61.093 48.857zM69.687 46.52c.204-.259.305-.629.305-1.112 0-.492-.1-.871-.305-1.135-.2-.258-.477-.388-.83-.388-.346 0-.62.13-.82.388-.209.267-.314.646-.314 1.135 0 .48.105.848.314 1.106.198.25.472.375.82.375.355 0 .633-.123.83-.37m-2.297.497c-.395-.404-.592-.94-.592-1.608 0-.675.197-1.22.592-1.632.38-.4.87-.6 1.468-.6s1.09.2 1.472.6c.394.413.592.957.592 1.632 0 .667-.198 1.204-.592 1.608-.38.391-.872.588-1.472.588-.599 0-1.087-.197-1.468-.588M71.346 43.234h.505v-.309c0-.781.397-1.172 1.19-1.172.25 0 .469.033.66.096v.601H73.3c-.184 0-.317.032-.396.096-.094.076-.142.212-.142.411v.277h.862v.674h-.862v3.642h-.91v-3.642h-.506v-.674zM76.322 46.788L79.283 42.528 76.545 42.528 76.545 41.781 80.332 41.781 80.332 42.555 77.378 46.806 80.29 46.806 80.29 47.55 76.322 47.55zM83.384 46.487v-.842c-.24-.052-.487-.077-.742-.077-.617 0-.925.227-.925.683 0 .234.07.411.21.533.13.11.307.164.533.164.33 0 .639-.155.924-.46zm.555 1.062c-.167 0-.288-.029-.364-.086-.075-.058-.128-.168-.16-.328-.328.312-.736.47-1.23.47-.406 0-.731-.112-.975-.334-.258-.233-.386-.56-.386-.98 0-.43.157-.764.473-.998.297-.217.698-.327 1.203-.327.31 0 .605.035.884.105v-.502c0-.45-.267-.674-.802-.674-.45 0-.83.114-1.145.34h-.318v-.682c.498-.252 1.019-.378 1.56-.378.536 0 .937.102 1.202.305.279.22.418.562.418 1.03v3.04h-.36zM86.264 45.139l1.654-1.905h.747v.31l-1.29 1.435c.158.253.399.63.72 1.135.32.501.557.879.716 1.135v.301h-.82l-1.235-1.933-.492.557v1.376h-.917v-5.738h.498c.176 0 .29.036.34.11.053.073.079.234.079.483v2.734zM91.878 46.487v-.842c-.24-.052-.487-.077-.743-.077-.617 0-.925.227-.925.683 0 .234.07.411.21.533.13.11.307.164.533.164.33 0 .64-.155.925-.46zm.555 1.062c-.167 0-.288-.029-.364-.086-.076-.058-.13-.168-.16-.328-.329.312-.738.47-1.23.47-.407 0-.732-.112-.975-.334-.258-.233-.387-.56-.387-.98 0-.43.157-.764.474-.998.297-.217.698-.327 1.203-.327.31 0 .604.035.884.105v-.502c0-.45-.268-.674-.803-.674-.449 0-.83.114-1.144.34h-.318v-.682c.498-.252 1.018-.378 1.558-.378.538 0 .939.102 1.203.305.279.22.42.562.42 1.03v3.04h-.36zM93.454 43.234h.505V42.09h.912v1.144h.938v.674h-.938v2.456c0 .202.045.343.136.424.085.072.226.11.424.11h.424v.615c-.243.06-.481.091-.715.091-.787 0-1.18-.38-1.18-1.139v-2.557h-.506v-.674zM106.559 47.55L106.559 42.529 104.918 42.529 104.918 41.781 109.161 41.781 109.161 42.529 107.53 42.529 107.53 47.55zM112.213 46.487v-.842c-.24-.052-.487-.077-.742-.077-.617 0-.926.227-.926.683 0 .234.07.411.21.533.13.11.309.164.533.164.331 0 .64-.155.925-.46zm.555 1.062c-.167 0-.288-.029-.364-.086-.075-.058-.13-.168-.16-.328-.328.312-.736.47-1.228.47-.408 0-.733-.112-.976-.334-.259-.233-.387-.56-.387-.98 0-.43.157-.764.473-.998.297-.217.7-.327 1.203-.327.31 0 .605.035.884.105v-.502c0-.45-.267-.674-.802-.674-.45 0-.83.114-1.145.34h-.318v-.682c.498-.252 1.019-.378 1.56-.378.537 0 .937.102 1.202.305.279.22.418.562.418 1.03v3.04h-.36zM113.88 47.248l1.267-1.908-1.213-1.801v-.305h.84l1.002 1.536.935-1.536h.747v.301l-1.121 1.772c.094.147.524.795 1.29 1.946v.297h-.83l-1.098-1.7-1.048 1.7h-.77v-.302zM100.544 46.952c-.368 0-.65-.102-.847-.305-.176-.182-.265-.42-.265-.715 0-.45.216-.804.647-1.062l1.425 1.66c-.272.281-.593.422-.96.422zm.218-2.91c-.095.032-.19.055-.286.077-.183-.26-.274-.488-.274-.68 0-.219.072-.394.215-.524.049-.045.11-.071.17-.1.156-.042.3-.05.422-.002.153.06.263.19.33.386.132.382-.06.663-.577.842zm1.627 2.31c.304-.526.51-1.116.615-1.77v-.2h-.678c-.035.46-.162.942-.388 1.449l-1.103-1.271c.074-.018.147-.03.22-.055.423-.148.727-.356.914-.625.197-.289.233-.613.107-.975-.122-.352-.325-.588-.61-.71-.528-.225-1.211-.118-1.642.265-.276.246-.415.571-.415.974 0 .362.112.698.332 1.007-.76.343-1.144.865-1.144 1.564 0 .476.154.855.462 1.135.321.291.772.437 1.353.437.588 0 1.088-.202 1.499-.603l.482.557h.798v-.255l-.802-.925z" transform="translate(0 .057)"/>
            <path fill="#D19F2A" d="M154.685 47.617l.145-1.854c.06-1.17-.448-2.297-1.365-3.026l-3.93-3.148 10.577-8.705c1.085-.936 1.713-2.293 1.722-3.726l.012-1.644c0-.129-.15-.201-.249-.117l-16.715 13.978c-.138.117-.138.33 0 .445l9.477 7.944c.128.101.318.016.326-.147M130.23 47.617l-.145-1.854c-.06-1.17.448-2.297 1.364-3.026l3.931-3.148-10.578-8.705c-1.085-.936-1.712-2.293-1.722-3.726l-.01-1.644c0-.129.148-.201.248-.117l16.714 13.978c.139.117.139.33 0 .445l-9.477 7.944c-.127.101-.317.016-.325-.147" transform="translate(0 .057)"/>
            <path fill="#006450" fill-rule="nonzero" d="M158.859 11.847c-4.27-1.79-9.11-1.752-13.334.049 1.907-3.001 4.867-5.18 8.373-6.104l1.247-.33c.055-.014.076-.082.037-.125l-.815-.928c-.76-.864-1.978-1.165-3.05-.75-3.01 1.17-5.595 3.15-7.495 5.718V2.5c0-.383-.148-.75-.412-1.028l-.388-.408c-.334-.35-.896-.35-1.23 0l-.387.408c-.265.277-.413.645-.413 1.028v6.773c-1.886-2.509-4.431-4.447-7.386-5.601-1.083-.423-2.312-.133-3.08.738l-.814.928c-.038.043-.018.111.037.126l1.247.33c3.507.922 6.466 3.102 8.374 6.103-4.226-1.801-9.064-1.839-13.335-.05-1.06.446-1.723 1.515-1.666 2.664l.06 1.23c.003.057.065.09.117.063l1.122-.633c4.092-2.304 9.066-2.403 13.216-.388-2.565.598-4.954 1.78-6.988 3.464-.891.74-1.229 1.955-.838 3.046l.416 1.161c.019.055.088.07.128.028l.89-.932c2.269-2.368 5.263-3.868 8.5-4.273v14.946c0 .066.006.13.016.195l-7.335-6.133c-.205-.17-.517-.026-.517.241v1.804c0 1.044.463 2.034 1.263 2.703l7.835 6.551c.112.095.274.095.386 0l7.835-6.55c.8-.67 1.263-1.66 1.263-2.704v-1.804c0-.267-.312-.413-.516-.241l-7.425 6.209c.016-.09.025-.18.025-.27V17.266c3.268.389 6.293 1.894 8.578 4.282l.892.932c.04.042.11.027.129-.028l.416-1.161c.39-1.09.053-2.307-.84-3.046-2.033-1.684-4.421-2.866-6.988-3.464 4.151-2.015 9.125-1.916 13.217.388l1.123.633c.05.028.113-.006.116-.064l.06-1.229c.057-1.149-.605-2.218-1.666-2.663" transform="translate(0 .057)"/>
        </g>
    </g>
</svg>
