<svg xmlns="http://www.w3.org/2000/svg" width="15" height="20" viewBox="0 0 15 20">
    <path fill="#AA0C19" fill-rule="evenodd" d="M14.107.146c.33-.312.893-.09.893.35v19.007c0 .442-.564.663-.893.35l-1.374-1.301-1.375 1.302c-.204.193-.535.193-.74 0l-1.374-1.302-1.374 1.302c-.204.193-.536.193-.74 0l-1.374-1.302-1.374 1.302c-.205.193-.536.193-.74 0l-1.375-1.302-1.374 1.302c-.33.312-.893.09-.893-.35V.496c0-.442.564-.663.893-.35l1.374 1.301L3.642.146c.204-.193.535-.193.74 0l1.374 1.302L7.13.146c.204-.193.536-.193.74 0l1.374 1.302L10.618.146c.205-.193.536-.193.74 0l1.375 1.302zm-3.119 1.052L9.614 2.5c-.204.194-.535.194-.74 0L7.5 1.198 6.126 2.5c-.205.194-.536.194-.74 0L4.012 1.198 2.637 2.5c-.204.194-.535.194-.74 0l-.85-.806v16.612l.85-.806c.205-.194.536-.194.74 0l1.375 1.302L5.386 17.5c.204-.194.535-.194.74 0L7.5 18.802 8.874 17.5c.205-.194.536-.194.74 0l1.374 1.302 1.375-1.302c.204-.194.535-.194.74 0l.85.806V1.694l-.85.806c-.205.194-.536.194-.74 0l-1.375-1.302zM7.5 13.479c.245 0 .45.177.492.41l.008.09v.958c0 .276-.224.5-.5.5-.245 0-.45-.177-.492-.41L7 14.937v-.958c0-.276.224-.5.5-.5zm0-9.979c.245 0 .45.177.492.41L8 4v7.483c0 .276-.224.5-.5.5-.245 0-.45-.177-.492-.41L7 11.483V4c0-.276.224-.5.5-.5z"/>
</svg>
