<svg xmlns="http://www.w3.org/2000/svg" width="24" height="24" viewBox="0 0 24 24">
    <path fill="#999" d="M10.369 1.137L8.293 6.704c-.116.309-.407.512-.733.512H1.746c-1.618 0-2.361 2.02-1.135 3.077l5.084 4.383c.242.209.335.546.233.85L3.887 21.69c-.539 1.616 1.312 2.973 2.683 1.962l4.969-3.664c.275-.203.648-.203.923 0l4.967 3.664c1.37 1.01 3.222-.345 2.685-1.962l-2.043-6.164c-.1-.304-.007-.641.235-.85l5.084-4.383c1.225-1.057.482-3.077-1.135-3.077H16.44c-.325 0-.617-.203-.733-.513l-2.076-5.567c-.564-1.515-2.7-1.515-3.262 0zm2.363.334l2.076 5.568c.255.684.905 1.137 1.632 1.137h5.815c.725 0 1.06.913.508 1.39l-5.084 4.383c-.536.463-.742 1.206-.52 1.879l2.044 6.164c.242.731-.59 1.34-1.204.888l-4.967-3.665c-.614-.452-1.449-.452-2.063 0L6 22.88c-.614.453-1.446-.157-1.202-.887l2.041-6.165c.224-.672.02-1.416-.517-1.879L1.238 9.566c-.554-.477-.218-1.39.508-1.39H7.56c.727 0 1.375-.453 1.632-1.136l2.077-5.569c.253-.681 1.209-.681 1.463 0z"/>
</svg>
