<svg xmlns="http://www.w3.org/2000/svg" width="24" height="24" viewBox="0 0 24 24">
    <path fill="#D99A29" d="M10.18 1.268c.608-1.638 2.864-1.689 3.576-.154l.064.153 2.035 5.458c.068.18.223.308.405.341l.093.008h5.7c1.753 0 2.584 2.125 1.378 3.326l-.112.104-4.983 4.296c-.142.123-.21.31-.182.492l.021.09 2.003 6.043c.583 1.756-1.362 3.236-2.877 2.268l-.118-.081-4.87-3.593c-.16-.117-.368-.134-.542-.05l-.083.05-4.872 3.593c-1.49 1.098-3.488-.31-3.034-2.049l.04-.138 2.003-6.044c.059-.177.02-.372-.096-.514l-.064-.066-4.984-4.297C-.647 9.36.097 7.202 1.795 7.08l.152-.006h5.7c.19 0 .362-.101.457-.263l.041-.086 2.035-5.457zm2.703.348c-.29-.78-1.347-.82-1.714-.116l-.052.117-2.035 5.457c-.208.555-.71.938-1.288.993l-.146.007H1.947c-.837 0-1.244 1.005-.694 1.595l.081.078 4.985 4.297c.435.376.622.963.493 1.515l-.038.137L4.77 21.74c-.28.843.633 1.553 1.362 1.126l.09-.06 4.871-3.593c.498-.367 1.161-.395 1.685-.084l.128.085 4.87 3.592c.71.524 1.664-.13 1.48-.963l-.028-.105-2.003-6.043c-.18-.546-.04-1.145.353-1.555l.104-.098 4.984-4.297c.637-.549.294-1.577-.502-1.665l-.111-.007h-5.701c-.591 0-1.123-.34-1.377-.865l-.058-.135-2.035-5.458z"/>
</svg>
