<svg xmlns="http://www.w3.org/2000/svg" width="24" height="24" viewBox="0 0 24 24">
    <path fill="#D99A29" d="M10.369 1.137L8.293 6.704c-.116.309-.407.512-.733.512H1.746c-1.618 0-2.361 2.02-1.135 3.077l5.084 4.383c.242.209.335.546.233.85L3.887 21.69c-.539 1.616 1.312 2.973 2.683 1.962l4.969-3.664c.275-.203.648-.203.923 0l4.967 3.664c1.37 1.01 3.222-.345 2.685-1.962l-2.043-6.164c-.1-.304-.007-.641.235-.85l5.084-4.383c1.225-1.057.482-3.077-1.135-3.077H16.44c-.325 0-.617-.203-.733-.513l-2.076-5.567c-.564-1.515-2.7-1.515-3.262 0z"/>
</svg>
