<svg xmlns="http://www.w3.org/2000/svg" width="48" height="48" viewBox="0 0 48 48">
    <g fill="none">
        <path fill="#D99A29" d="M45.183 9.467c.427-.35 1.057-.288 1.408.138.312.38.297.92-.01 1.281l-.128.127-21.818 17.92c-.323.265-.77.298-1.124.1l-.146-.1-21.818-17.92c-.427-.35-.488-.98-.138-1.408.312-.38.844-.47 1.258-.24l.15.102L24 26.864 45.183 9.467z"/>
        <path fill="#006450" d="M43.636 8.12H4.364C1.998 8.12.09 10.077.09 12.48v24.64c0 2.401 1.908 4.36 4.273 4.36h39.272c2.365 0 4.273-1.959 4.273-4.36V12.48c0-2.403-1.907-4.36-4.273-4.36zm-39.272 2h39.272c1.25 0 2.273 1.05 2.273 2.36v24.64c0 1.308-1.024 2.36-2.273 2.36H4.364c-1.249 0-2.273-1.052-2.273-2.36V12.48c0-1.31 1.023-2.36 2.273-2.36z"/>
    </g>
</svg>
