<svg xmlns="http://www.w3.org/2000/svg" width="24" height="24" viewBox="0 0 24 24">
    <path fill="#006450" d="M22 4c1.104 0 2 .895 2 2v12c0 1.104-.896 2-2 2H2c-1.104 0-2-.896-2-2V6c0-1.105.896-2 2-2zm0 1H2c-.552 0-1 .448-1 1v12c0 .552.448 1 1 1h20c.552 0 1-.448 1-1V6c0-.552-.448-1-1-1zM7.434 13.752c.122.213.07.478-.112.63l-.074.052-3.5 2c-.24.137-.545.054-.682-.186-.122-.213-.07-.478.112-.63l.074-.052 3.5-2c.24-.137.545-.054.682.186zm9.732-.224l.082.038 3.5 2c.24.137.323.442.186.682-.122.213-.377.303-.6.224l-.082-.038-3.5-2c-.24-.137-.323-.442-.186-.682.122-.213.377-.303.6-.224zm3.754-5.3c.133.206.096.474-.077.636l-.071.056-8.5 5.5c-.138.089-.309.104-.457.044l-.087-.044-8.5-5.5c-.231-.15-.298-.46-.148-.692.134-.206.393-.281.612-.19l.08.042 8.227 5.324 8.23-5.324c.231-.15.54-.083.69.148z"/>
</svg>
