<svg xmlns="http://www.w3.org/2000/svg" width="24" height="24" viewBox="0 0 24 24">
    <path fill="#999" d="M19.5 0c.245 0 .45.177.492.41L20 .5v7.986l3.783 2.602.031.023-.03-.023c.024.017.048.037.069.058l.024.025.027.034.012.018.014.022.016.03-.03-.052c.02.03.037.062.05.095l.015.045.007.028.002.012.005.027c.003.018.004.036.005.055V22c0 1.054-.816 1.918-1.85 1.995L22 24H2C.946 24 .082 23.184.005 22.15L0 22V11.5c0-.03.002-.053.006-.075L0 11.5c0-.037.004-.073.012-.108.013-.06.037-.116.072-.17.035-.052.08-.097.129-.131l.004-.003L4 8.486V.5c0-.245.177-.45.41-.492L4.5 0h15zM19 1H5v12.898l1.777 1.186c.23.153.292.464.139.693-.136.205-.397.276-.614.182l-.08-.043L1 12.435V22c0 .512.386.935.883.993L2 23h20c.512 0 .935-.386.993-.883L23 22v-9.566l-5.223 3.482c-.23.153-.54.091-.693-.139-.136-.204-.102-.472.068-.636l.07-.057L19 13.898V1zm-3.5 15c.085 0 .168.022.242.063l.07.047 5 4c.216.172.25.487.078.702-.153.192-.419.24-.627.128l-.075-.05L15.324 17H8.675l-4.863 3.89c-.191.154-.461.143-.64-.013l-.062-.065c-.154-.191-.143-.461.013-.64l.065-.062 5-4c.066-.054.145-.089.228-.103L8.5 16h7zM4 9.7l-2.608 1.793L4 13.232V9.7zm16 .001v3.53l2.607-1.738L20 9.701zM16.5 9c.276 0 .5.224.5.5 0 .245-.177.45-.41.492L16.5 10h-9c-.276 0-.5-.224-.5-.5 0-.245.177-.45.41-.492L7.5 9h9zm0-3c.276 0 .5.224.5.5 0 .245-.177.45-.41.492L16.5 7h-7c-.276 0-.5-.224-.5-.5 0-.245.177-.45.41-.492L9.5 6h7zm-7-3c.276 0 .5.224.5.5 0 .245-.177.45-.41.492L9.5 4h-2c-.276 0-.5-.224-.5-.5 0-.245.177-.45.41-.492L7.5 3h2z"/>
</svg>
