<svg xmlns="http://www.w3.org/2000/svg" width="24" height="24" viewBox="0 0 24 24">
    <g fill="none" fill-rule="evenodd">
        <g fill-rule="nonzero">
            <g>
                <path fill="#006450" d="M11.985 0C18.62 0 24 5.38 24 11.985 24 18.62 18.62 24 11.985 24 5.38 24 0 18.62 0 11.985 0 5.38 5.38 0 11.985 0z" transform="translate(-287 -475) translate(287 475)"/>
                <path fill="#FFF" d="M18.873 6.845c.196-.195.512-.193.707.003.173.174.19.444.055.638l-.058.07-10.15 10.06c-.168.166-.426.19-.619.067l-.078-.06-4.345-4.15c-.2-.191-.207-.508-.016-.707.17-.178.438-.203.636-.073l.07.056 3.994 3.813 9.804-9.717z" transform="translate(-287 -475) translate(287 475)"/>
            </g>
        </g>
    </g>
</svg>
