<?xml version="1.0" encoding="UTF-8"?>
<svg width="24px" height="24px" viewBox="0 0 24 24" version="1.1" xmlns="http://www.w3.org/2000/svg" xmlns:xlink="http://www.w3.org/1999/xlink">
    <title>07F85FAA-B73F-41CB-94D4-A1068E550DEA</title>
    <g id="Refunds" stroke="none" stroke-width="1" fill="none" fill-rule="evenodd">
        <g id="VAT-Refunds-Details-1" transform="translate(-296.000000, -388.000000)" fill-rule="nonzero">
            <g id="Components-/-Summary-/-01-Copy-2" transform="translate(268.000000, 360.000000)">
                <g id="Partials-/-Icon-/-Summary" transform="translate(16.000000, 16.000000)">
                    <g id="Icons-/-24px-/-Main-/-Amount" transform="translate(12.000000, 12.000000)">
                        <path d="M16,13.5 C16,13.7761424 15.7761424,14 15.5,14 C15.2545401,14 15.0503916,13.8231248 15.0080557,13.5898756 L15,13.5 L15.0010916,12.7928426 C13.6434213,13.5625245 11.0340069,14 8,14 L7.3980405,13.9941754 C4.62371191,13.9400769 2.26669341,13.5111731 0.999471091,12.7930503 L1,14.5 C1,15.1359423 4.01026198,15.9555621 7.69943605,15.9982595 L8.5,16 C8.77614237,16 9,16.2238576 9,16.5 C9,16.7454599 8.82312484,16.9496084 8.58987563,16.9919443 L8.5,17 L8,17 C4.96696721,17 2.35778833,16.5626431 0.999769562,15.7932194 L1,17.5 C1,18.1359423 4.01026198,18.9555621 7.69943605,18.9982595 L8.5,19 C8.77614237,19 9,19.2238576 9,19.5 C9,19.7454599 8.82312484,19.9496084 8.58987563,19.9919443 L8.5,20 L8,20 C3.64351705,20 0.16148218,19.0976941 0.00545811714,17.6050891 L0,17.5 L0,2.5 L0.00545811714,2.39491093 C0.157767321,0.937844091 3.47959136,0.0433015832 7.69034289,0.0015303225 L8,0 L8.30253231,0.0014599416 C12.5172313,0.042283407 15.8421738,0.93694099 15.9945428,2.39490559 L16,2.5 L16,13.5 Z M15.0010916,9.79284257 C13.6434213,10.5625245 11.0340069,11 8,11 L7.3980405,10.9941754 C4.62371191,10.9400769 2.26669341,10.5111731 0.999471091,9.79305026 L1,11.5 C1,12.15313 4.17517772,13 8,13 C11.724827,13 14.8324701,12.1972125 14.9934508,11.5519541 L15,11.5 L15.0010916,9.79284257 Z M15.0010916,6.79284257 C13.6434213,7.56252451 11.0340069,8 8,8 L7.3980405,7.99417543 C4.62371191,7.94007689 2.26669341,7.51117307 0.999471091,6.79305026 L1,8.5 C1,9.15312998 4.17517772,10 8,10 C11.724827,10 14.8324701,9.19721253 14.9934508,8.55195409 L15,8.5 L15.0010916,6.79284257 Z M15.0011226,3.79282499 C13.791735,4.47845758 11.5890659,4.90048033 8.97779362,4.98448303 L8.60203824,4.99417592 L8,5 C4.96715316,5 2.35810827,4.56269675 1.00001936,3.7933609 L1,5.5 C1,6.15312998 4.17517772,7 8,7 C11.724827,7 14.8324701,6.19721253 14.9934508,5.55195409 L15,5.5 L15.0011226,3.79282499 Z M8,1 L7.69943605,1.00174046 C4.01026198,1.04443794 1,1.86405765 1,2.5 C1,3.15312998 4.17517772,4 8,4 C11.825498,4 15,3.15323221 15,2.5 C15,1.84676779 11.825498,1 8,1 Z" id="Combined-Primary" fill="#006450"></path>
                        <path d="M24,21.5 C24,23.0553204 20.4584302,24 16,24 L15.3980405,23.9941754 C11.3268021,23.9147876 8.15422525,23.0282706 8.00545812,21.6050891 L8,21.5 L8,15.5 L8.00545812,15.3949109 C8.16148218,13.9023059 11.6435171,13 16,13 L16,13 L16.3025323,13.0014599 C20.6175813,13.0432554 24,13.9800278 24,15.5 L24,15.5 L24,21.5 Z M16,21 L15.3980405,20.9941754 C12.6237119,20.9400769 10.2666934,20.5111731 8.99947109,19.7930503 L9,21.5 C9,22.15313 12.1751777,23 16,23 C19.724827,23 22.8324701,22.1972125 22.9934508,21.5519541 L23,21.5 L23.0010916,19.7928426 C21.6434213,20.5625245 19.0340069,21 16,21 Z M23.0011226,16.792825 C21.7341451,17.5111068 19.3770355,17.9400752 16.6020382,17.9941759 L16.6020382,17.9941759 L16,18 C12.9671532,18 10.3581083,17.5626967 9.00001936,16.7933609 L9,18.5 C9,19.15313 12.1751777,20 16,20 C19.724827,20 22.8324701,19.1972125 22.9934508,18.5519541 L23,18.5 Z M16,14 L15.699436,14.0017405 C12.010262,14.0444379 9,14.8640577 9,15.5 C9,16.15313 12.1751777,17 16,17 C19.825498,17 23,16.1532322 23,15.5 C23,14.8467678 19.825498,14 16,14 L16,14 Z" id="Combined-Gold" fill="#D99A29"></path>
                    </g>
                </g>
            </g>
        </g>
    </g>
</svg>