<svg xmlns="http://www.w3.org/2000/svg" width="48px" height="48px" viewBox="0 0 48 48">
    <g fill="none" fill-rule="evenodd">
        <g fill="#999" fill-rule="nonzero">
        <circle cx="24" cy="24" r="24" fill="#006450" opacity=".1"/>
            <g>
                <g>
                    <path fill="#006450" d="M11.341 0c3.243 0 5.565 2.691 5.667 6.256l.003.244v9c0 .276-.211.5-.472.5-.232 0-.425-.177-.465-.41l-.008-.09v-9c0-3.158-1.958-5.5-4.725-5.5-2.698 0-4.627 2.226-4.722 5.265l-.003.235V19c0 2.339 1.329 4 3.307 4 1.915 0 3.222-1.556 3.304-3.776l.004-.224V9.5c0-1.529-.706-2.5-1.89-2.5-1.134 0-1.83.892-1.887 2.312l-.003.188V17c0 .276-.212.5-.473.5-.232 0-.425-.177-.465-.41L8.506 17V9.5c0-2.032 1.067-3.5 2.835-3.5 1.707 0 2.76 1.368 2.831 3.292l.004.208V19c0 2.858-1.714 5-4.253 5-2.468 0-4.157-2.025-4.249-4.764L5.67 19V6.5c0-3.685 2.354-6.5 5.671-6.5z" transform="translate(-914 -508) translate(729 463) translate(195.632 56)"/>
                </g>
            </g>
        </g>
    </g>
</svg>