<svg xmlns="http://www.w3.org/2000/svg" xmlns:xlink="http://www.w3.org/1999/xlink" width="1440" height="144" viewBox="0 0 1440 144">
    <defs>
        <linearGradient id="yjrvc5wn6b" x1="49.632%" x2="50.505%" y1="-1.582%" y2="100%">
            <stop offset="0%" stop-color="#067962"/>
            <stop offset="100%" stop-color="#006450"/>
        </linearGradient>
        <linearGradient id="g5j4mth3ld" x1="50%" x2="50%" y1="134.575%" y2="0%">
            <stop offset="0%" stop-color="#56A894"/>
            <stop offset="100%" stop-color="#8FD3C6"/>
        </linearGradient>
        <path id="3b48h24yla" d="M648.416 -648.137L793.263 -648.137 793.263 793.47 648.416 793.47z"/>
    </defs>
    <g fill="none" fill-rule="evenodd">
        <g>
            <g>
                <g transform="translate(-37 -248) translate(35 247) translate(.464 .333)">
                    <mask id="fyu86ai5pc" fill="#fff">
                        <use xlink:href="#3b48h24yla"/>
                    </mask>
                    <path fill="url(#yjrvc5wn6b)" fill-rule="nonzero" d="M648.612 -648.303L793.459 -648.303 793.459 793.304 648.612 793.304z" mask="url(#fyu86ai5pc)" transform="rotate(-90 721.036 72.5)"/>
                    <g stroke="url(#g5j4mth3ld)" stroke-width="200" mask="url(#fyu86ai5pc)" opacity=".088">
                        <g>
                            <path d="M1043.379-83.157c28.53-7.23 59.817-3.576 87.1 12.675 15.037 8.957 27.831 21.228 37.408 35.879h0l341.48 522.395c17.375 26.58 22.332 57.688 16.299 86.495-6.033 28.806-23.055 55.31-49.636 72.686-18.707 12.229-40.573 18.741-62.922 18.741h0-652.644c-31.756 0-60.506-12.872-81.317-33.682-20.811-20.811-33.683-49.561-33.683-81.318 0-20.718 5.597-41.05 16.2-58.85h0L972.826-30.532c16.251-27.283 42.023-45.396 70.552-52.625z" transform="rotate(-90 208 598.5) matrix(1 0 0 -1 0 565.714)"/>
                            <path d="M309.309 848.985c28.53-7.23 59.817-3.575 87.1 12.676 15.037 8.957 27.831 21.228 37.408 35.878h0l341.48 522.396c17.375 26.58 22.332 57.688 16.299 86.494-6.033 28.807-23.055 55.311-49.636 72.687-18.707 12.229-40.573 18.741-62.922 18.741h0H26.394c-31.756 0-60.506-12.872-81.317-33.683-20.811-20.81-33.683-49.56-33.683-81.317 0-20.718 5.597-41.05 16.2-58.85h0L238.756 901.61c16.251-27.283 42.023-45.396 70.552-52.626z" transform="rotate(-90 208 598.5) matrix(-1 0 0 1 706.763 0)"/>
                        </g>
                    </g>
                </g>
            </g>
        </g>
    </g>
</svg>
