<svg xmlns="http://www.w3.org/2000/svg" width="24" height="24" viewBox="0 0 24 24">
    <path fill="#999" d="M7.492 0c.237 0 .433.17.474.394l.007.087v1.522h8.053V.481c0-.236.17-.433.395-.473L16.508 0h3.005c.236 0 .432.17.473.394l.007.087v1.522h3.526c.236 0 .433.17.473.395l.008.086V23.52c0 .236-.17.433-.394.473l-.087.008H.481c-.236 0-.433-.17-.473-.394L0 23.519V2.484c0-.236.17-.432.394-.473l.087-.008h3.525V.481c0-.236.17-.433.395-.473L4.487 0h3.005zm15.546 8.011H.961v15.027h22.077V8.011zm-6.511 1.004c.245 0 .45.17.492.394l.008.087-.001 1.522h4.49c.236 0 .432.177.473.41l.008.09c0 .246-.17.45-.395.492l-.086.008h-4.49v3.007h4.49c.236 0 .432.177.473.41l.008.09c0 .246-.17.45-.395.492l-.086.008h-4.49v3.006h4.49c.236 0 .432.17.473.395l.008.087c0 .236-.17.432-.395.473l-.086.007h-4.49v1.523c0 .236-.176.432-.41.473l-.09.008c-.245 0-.449-.17-.491-.395l-.008-.086-.001-1.523h-4.008v1.523c0 .236-.177.432-.41.473l-.09.008c-.245 0-.45-.17-.492-.395l-.008-.086v-1.523H7.01v1.523c0 .236-.177.432-.41.473l-.09.008c-.245 0-.45-.17-.492-.395l-.008-.086v-1.523H2.484c-.236 0-.432-.17-.473-.394l-.008-.086c0-.237.17-.433.395-.474l.086-.007 3.526-.001v-3.006H2.484c-.236 0-.432-.177-.473-.41l-.008-.09c0-.245.17-.45.395-.492l.086-.008H6.01v-3.007H2.484c-.236 0-.432-.177-.473-.41l-.008-.09c0-.245.17-.45.395-.492l.086-.008H6.01V9.496c0-.236.177-.433.41-.473l.09-.008c.245 0 .45.17.492.394l.008.087v1.522h4.008V9.496c0-.236.177-.433.41-.473l.09-.008c.246 0 .45.17.492.394l.008.087v1.522h4.008V9.496c0-.236.178-.433.41-.473l.09-.008zm-5.509 7.01H7.01v3.006h4.008v-3.006zm5.008 0h-4.008v3.006h4.008v-3.006zm-5.008-4.007H7.01v3.007h4.008v-3.007zm5.008 0h-4.008v3.007h4.008v-3.007zM4.006 2.964H.962L.96 7.012h22.077V2.965l-3.045-.001v1.523c0 .237-.17.433-.394.474l-.086.007h-3.005c-.237 0-.433-.17-.474-.394l-.007-.087-.001-1.484H7.973v1.484c0 .237-.17.433-.394.474l-.087.007H4.487c-.236 0-.432-.17-.473-.394l-.007-.087-.001-1.523zM7.012.962H4.968v3.045h2.044V.962zm12.02 0h-2.044v3.045h2.044V.962z"/>
</svg>
