<svg xmlns="http://www.w3.org/2000/svg" width="24" height="24" viewBox="0 0 24 24">
    <g fill="none">
        <path fill="#006450" d="M18.5 9c.855 0 1.628.435 2.082 1.122l.08.131.155.005c.763.046 1.476.438 1.917 1.088l.097.154c.422.732.437 1.604.083 2.334l-.089.166c.442.76.46 1.713.006 2.5-.208.36-.496.652-.83.863L22 23.5c0 .396-.43.624-.753.432l-.067-.048-2.68-2.233-2.68 2.233c-.304.253-.755.069-.814-.302L15 23.5v-6.137c-.285-.18-.536-.418-.733-.708l-.096-.155c-.455-.787-.437-1.738.004-2.5l-.088-.166c-.326-.674-.339-1.47-.007-2.163l.09-.17c.428-.742 1.191-1.193 2.012-1.242l.155-.005.081-.131c.421-.638 1.117-1.06 1.9-1.116zm2.5 8.724c-.06.008-.12.014-.181.017l-.156.004-.08.133c-.422.638-1.118 1.059-1.901 1.115L18.5 19c-.855 0-1.627-.435-2.08-1.122l-.082-.132-.155-.004c-.061-.004-.122-.01-.183-.018v4.707l2.18-1.815c.162-.135.389-.152.567-.05l.073.05L21 22.432zM18.5 10c-.622 0-1.171.385-1.394.959-.085.219-.31.349-.542.313-.61-.094-1.217.19-1.527.728-.312.54-.253 1.207.133 1.687.146.183.146.443 0 .626-.386.48-.445 1.149-.133 1.687.31.54.918.823 1.528.729.231-.036.457.094.542.313.223.573.772.958 1.393.958.623 0 1.172-.385 1.396-.96.085-.218.31-.348.542-.312.608.094 1.215-.189 1.527-.728.311-.538.252-1.207-.134-1.687-.147-.182-.147-.443 0-.626.386-.481.445-1.148.134-1.687-.312-.539-.92-.823-1.528-.729-.232.036-.457-.094-.542-.313-.223-.573-.773-.958-1.395-.958zm5-10c.245 0 .45.177.492.41L24 .5V9c0 .276-.224.5-.5.5-.245 0-.45-.177-.492-.41L23 9V1H1v15h11c.245 0 .45.177.492.41l.008.09c0 .245-.177.45-.41.492L12 17H.5c-.245 0-.45-.177-.492-.41L0 16.5V.5C0 .255.177.05.41.008L.5 0h23zm-5 12c1.104 0 2 .895 2 2 0 1.104-.896 2-2 2s-2-.896-2-2c0-1.105.896-2 2-2zm0 1c-.552 0-1 .448-1 1s.448 1 1 1 1-.448 1-1-.448-1-1-1z"/>
        <path fill="#D99A29" d="M18.5 2c.276 0 .5.224.5.5C19 3.88 20.12 5 21.5 5c.245 0 .45.177.492.41L22 5.5V8c0 .276-.224.5-.5.5-.245 0-.45-.177-.492-.41L21 8V5.963l-.068-.009c-1.478-.24-2.645-1.408-2.886-2.886L18.036 3H5.963l-.009.068c-.241 1.478-1.408 2.645-2.886 2.886L3 5.963v5.073l.068.01c1.478.24 2.645 1.408 2.886 2.886l.009.068H12c.245 0 .45.177.492.41l.008.09c0 .245-.177.45-.41.492L12 15H5.5c-.276 0-.5-.224-.5-.5C5 13.12 3.88 12 2.5 12c-.245 0-.45-.177-.492-.41L2 11.5v-6c0-.276.224-.5.5-.5C3.88 5 5 3.88 5 2.5c0-.245.177-.45.41-.492L5.5 2h13z"/>
    </g>
</svg>
