<svg xmlns="http://www.w3.org/2000/svg" width="24" height="24" viewBox="0 0 24 24">
    <g fill="none" fill-rule="evenodd">
        <g fill="#999" fill-rule="nonzero">
            <path d="M12 0c6.627 0 12 5.373 12 12s-5.373 12-12 12S0 18.627 0 12 5.373 0 12 0zm0 1C5.925 1 1 5.925 1 12s4.925 11 11 11 11-4.925 11-11S18.075 1 12 1zM9.869 5.338l.071.056 6.72 6.24c.19.175.21.461.063.662l-.063.07-6.72 6.24c-.202.188-.518.177-.706-.026-.167-.18-.177-.45-.035-.64l.06-.066L15.585 12 9.26 6.126c-.18-.167-.21-.435-.082-.635l.056-.071c.167-.18.435-.21.635-.082z" transform="rotate(90 12 12)"/>
        </g>
    </g>
</svg>
