<svg xmlns="http://www.w3.org/2000/svg" width="30" height="30" viewBox="0 0 30 30">
    <path fill="#AA0C19" fill-rule="evenodd" d="M15 0c8.284 0 15 6.716 15 15 0 8.284-6.716 15-15 15-8.287 0-15-6.714-15-15S6.713 0 15 0zm0 1.488C7.535 1.488 1.488 7.536 1.488 15S7.535 28.512 15 28.512c7.462 0 13.512-6.05 13.512-13.512 0-7.463-6.05-13.512-13.512-13.512zm-.62 5.95c.411 0 .744.333.744.744v6.49l7.197 6.598c.303.277.323.748.045 1.05-.277.304-.748.324-1.05.046l-7.438-6.818c-.154-.14-.242-.34-.242-.548V8.182c0-.411.333-.744.744-.744z"/>
</svg>
