<svg xmlns="http://www.w3.org/2000/svg" width="24" height="24" viewBox="0 0 24 24">
    <g fill="none" fill-rule="evenodd">
        <g fill-rule="nonzero">
            <g>
                <g>
                    <g>
                        <path fill="#006450" d="M21.499 0c.276 0 .5.224.5.5v.551c1.088.221 1.92 1.15 1.994 2.285l.005.164.002 8c0 .276-.224.5-.5.5-.245 0-.45-.177-.492-.41L23 11.5l-.002-8c0-.652-.417-1.208-1-1.413L22 8.5 22 19c0 .276-.224.5-.5.5H21V21c0 .245-.177.45-.41.492l-.09.008H20v2c0 .276-.224.5-.5.5-.245 0-.45-.177-.492-.41L19 23.5v-2h-.5c-.245 0-.45-.177-.492-.41L18 21v-1.5h-.501c-.245 0-.45-.177-.492-.41L17 19l-.001-10.491v-.01L17 .5c0-.275.224-.499.5-.499zM14.5 2c.276 0 .5.224.5.5v14c0 .029-.003.058-.007.086L15 16.5c0 .037-.004.073-.012.108-.004.02-.01.04-.016.058l-.013.032-.02.041c-.006.012-.014.024-.022.036-.018.028-.04.054-.063.079l.042-.049-.03.036-.012.013-5 5-.013.012-.036.03-.03.021c-.012.008-.024.016-.036.022l-.04.02-.033.013c-.019.006-.038.012-.058.016l-.018.004c-.032.005-.061.008-.09.008h-9c-.276 0-.5-.224-.5-.5v-19c0-.276.224-.5.5-.5zM14 3H1v18h8v-4.5c0-.245.177-.45.41-.492L9.5 16H14V3zm6 16.5h-1v1h1v-1zM13.292 17H10v3.292L13.292 17zm7.707-8h-3.002l.001 9.5H21L20.999 9zm0-8h-3l-.002 7h3.002V1.511l-.001-.01v-.01L20.999 1z" transform="translate(-306 -1235) translate(270 1211) translate(24 12) translate(12 12)"/>
                        <path fill="#D99A29" d="M7.354 10.146c.173.174.192.443.057.638l-.057.07-3 3c-.174.173-.443.192-.638.057l-.07-.057-1.5-1.5c-.195-.196-.195-.512 0-.708.174-.173.443-.192.638-.057l.07.057L4 12.793l2.646-2.647c.196-.195.512-.195.708 0zM12 12c.276 0 .5.224.5.5 0 .245-.177.45-.41.492L12 13H8.5c-.276 0-.5-.224-.5-.5 0-.245.177-.45.41-.492L8.5 12H12zM7.354 4.646c.173.174.192.443.057.638l-.057.07-3 3c-.174.173-.443.192-.638.057l-.07-.057-1.5-1.5c-.195-.196-.195-.512 0-.708.174-.173.443-.192.638-.057l.07.057L4 7.293l2.646-2.647c.196-.195.512-.195.708 0zM12 7c.276 0 .5.224.5.5 0 .245-.177.45-.41.492L12 8H8.5c-.276 0-.5-.224-.5-.5 0-.245.177-.45.41-.492L8.5 7H12z" transform="translate(-306 -1235) translate(270 1211) translate(24 12) translate(12 12)"/>
                    </g>
                </g>
            </g>
        </g>
    </g>
</svg>
