<svg xmlns="http://www.w3.org/2000/svg" xmlns:xlink="http://www.w3.org/1999/xlink" width="851" height="48" viewBox="0 0 851 48">
    <defs>
        <filter id="ew2lshlraa" width="101.6%" height="129.2%" x="-.8%" y="-10.4%" filterUnits="objectBoundingBox">
            <feOffset dy="2" in="SourceAlpha" result="shadowOffsetOuter1"/>
            <feGaussianBlur in="shadowOffsetOuter1" result="shadowBlurOuter1" stdDeviation="2"/>
            <feColorMatrix in="shadowBlurOuter1" values="0 0 0 0 0.137254902 0 0 0 0 0.137254902 0 0 0 0 0.137254902 0 0 0 0.1 0"/>
        </filter>
        <rect id="t7rzsbr96b" width="851" height="48" x="0" y="0" rx="14"/>
    </defs>
    <g fill="none" fill-rule="evenodd">
        <g>
            <g>
                <g fill-rule="nonzero" transform="translate(-270 -373) translate(270 373)">
                    <use fill="#000" filter="url(#ew2lshlraa)" xlink:href="#t7rzsbr96b"/>
                    <rect width="851" height="48" fill="#FFF" rx="14"/>
                    <rect width="850" height="47" x=".5" y=".5" stroke="#999" rx="14"/>
                </g>
                <g fill="#999">
                    <g font-family="SST-Roman, SST" font-size="16">
                        <text transform="translate(-270 -373) translate(270 373) translate(12 12)">
                            <tspan x="0" y="17">Search</tspan>
                        </text>
                    </g>
                    <g fill-rule="nonzero">
                        <path d="M8.5 0C13.194 0 17 3.806 17 8.5c0 2.167-.811 4.145-2.146 5.646l9 9c.195.196.195.513 0 .708-.174.173-.443.193-.638.058l-.07-.058-9-9C12.645 16.189 10.667 17 8.5 17 3.806 17 0 13.194 0 8.5S3.806 0 8.5 0zm0 1C4.358 1 1 4.358 1 8.5 1 12.642 4.358 16 8.5 16c4.142 0 7.5-3.358 7.5-7.5C16 4.358 12.642 1 8.5 1z" transform="translate(-270 -373) translate(270 373) translate(12 12) translate(803)"/>
                    </g>
                </g>
            </g>
        </g>
    </g>
</svg>
