<svg xmlns="http://www.w3.org/2000/svg" width="24" height="24" viewBox="0 0 24 24">
    <path fill="#999" d="M15.5 0c.276 0 .5.224.5.5V3h7c.276 0 .5.224.5.5 0 .245-.177.45-.41.492L23 4h-3v19.5c0 .245-.177.45-.41.492L19.5 24h-16c-.276 0-.5-.224-.5-.5V4H1c-.276 0-.5-.224-.5-.5 0-.245.177-.45.41-.492L1 3h6V.5c0-.245.177-.45.41-.492L7.5 0zM19 4H4v19h15V4zm-3.5 2.5c.245 0 .45.177.492.41L16 7v12c0 .276-.224.5-.5.5-.245 0-.45-.177-.492-.41L15 19V7c0-.276.224-.5.5-.5zm-8 0c.245 0 .45.177.492.41L8 7v12c0 .276-.224.5-.5.5-.245 0-.45-.177-.492-.41L7 19V7c0-.276.224-.5.5-.5zm4 0c.245 0 .45.177.492.41L12 7v12c0 .276-.224.5-.5.5-.245 0-.45-.177-.492-.41L11 19V7c0-.276.224-.5.5-.5zM15 1H8v2h7V1z"/>
</svg>
