<svg xmlns="http://www.w3.org/2000/svg" width="24" height="24" viewBox="0 0 24 24">
    <g fill="none" fill-rule="evenodd">
        <g fill-rule="nonzero">
            <g>
                <path fill="#006450" d="M12 0c.245 0 .45.177.492.41L12.5.5v15.793l3.146-3.147c.174-.173.443-.192.638-.057l.07.057c.173.174.192.443.057.638l-.057.07-4 4-.013.011c-.012.012-.025.023-.039.033l.052-.044c-.027.026-.056.05-.087.069l-.035.02-.041.02-.04.014c-.015.005-.03.009-.046.012l-.033.006-.051.005h-.041l-.052-.005L12 18c-.036 0-.071-.004-.105-.011l-.046-.012-.04-.015c-.014-.005-.027-.012-.04-.019-.013-.006-.025-.013-.036-.02l-.017-.012-.018-.013c-.014-.01-.027-.02-.04-.033l-.012-.011-4-4c-.195-.196-.195-.512 0-.708.174-.173.443-.192.638-.057l.07.057 3.146 3.147V.5c0-.276.224-.5.5-.5z" transform="translate(-1145 -238) translate(1145 238)"/>
                <path fill="#D99A29" d="M23.52 23c.265 0 .48.224.48.5 0 .245-.17.45-.394.492L23.52 24H.48c-.265 0-.48-.224-.48-.5 0-.245.17-.45.394-.492L.48 23h23.04z" transform="translate(-1145 -238) translate(1145 238) rotate(-180 12 23.5)"/>
            </g>
        </g>
    </g>
</svg>
