<svg xmlns="http://www.w3.org/2000/svg" width="24" height="24" viewBox="0 0 24 24">
    <g fill="none" fill-rule="evenodd">
        <g fill="#AA0C19">
            <g>
                <path d="M12 0c6.626 0 12 5.372 12 12 0 6.626-5.374 12-12 12-6.628 0-12-5.374-12-12C0 5.372 5.372 0 12 0zM7.728 6.856c-.244-.169-.582-.145-.8.073-.245.245-.245.642 0 .887L11.112 12l-4.184 4.185-.073.087c-.169.244-.145.582.073.8.245.245.642.245.887 0l4.184-4.185 4.185 4.185.087.073c.245.17.583.145.8-.073.245-.244.245-.642 0-.887L12.886 12l4.185-4.184.073-.087c.17-.245.145-.583-.073-.8-.245-.245-.642-.245-.887 0L12 11.113 7.815 6.929z" transform="translate(-731 -713) translate(731 713)"/>
            </g>
        </g>
    </g>
</svg>
