<svg xmlns="http://www.w3.org/2000/svg" width="32" height="32" viewBox="0 0 32 32">
    <g fill="none">
        <path fill="#D99A29" d="M8.687 18.362c.029 0 .051.015.068.045l.525.908h.009l.523-.908c.017-.03.04-.045.069-.045h.46c.037 0 .045.02.025.058l-.8 1.389.864 1.496c.02.039.011.057-.025.057H9.94c-.028 0-.051-.015-.068-.044L9.289 20.3h-.01l-.587 1.02c-.018.028-.04.043-.069.043h-.46c-.037 0-.046-.018-.026-.057l.865-1.496-.8-1.39c-.02-.037-.013-.057.025-.057h.46zm-3.132 0c.028 0 .042.015.042.045v.38c0 .028-.014.043-.042.043h-.76c-.016 0-.025.009-.025.027v2.461c0 .03-.014.044-.042.044H4.31c-.028 0-.043-.015-.043-.044v-2.461c0-.018-.008-.027-.025-.027h-.758c-.029 0-.043-.015-.043-.044v-.379c0-.03.014-.045.043-.045h2.07zm1.398 0c.028 0 .047.015.055.045l.98 2.912c.009.029-.002.043-.03.043H7.54c-.028 0-.046-.014-.055-.043l-.191-.583H6.202l-.191.583c-.009.029-.028.043-.056.043h-.413c-.029 0-.039-.014-.03-.043l.993-2.912c.009-.03.027-.044.056-.044h.392zm-.197.746h-.012l-.389 1.165h.785l-.384-1.165z" transform="translate(-1)"/>
        <path fill="#006450" d="M7.118 13.03c3.654 0 6.617 2.962 6.617 6.617 0 2.37-1.246 4.45-3.118 5.618h13.442c.718 0 1.309-.549 1.376-1.25l.006-.133V22.07c0-.276.224-.5.5-.5.246 0 .45.177.492.41l.008.09v1.812c0 1.261-.98 2.293-2.22 2.377l-.162.006H7.118l-.233-.004C3.338 26.138.5 23.224.5 19.647c0-3.655 2.963-6.618 6.618-6.618zm0 1c-3.103 0-5.618 2.515-5.618 5.617 0 3.103 2.515 5.618 5.618 5.618 3.102 0 5.617-2.515 5.617-5.618 0-3.102-2.515-5.618-5.617-5.618zm17.526-.393l.007.086v1.659h2.118c.245 0 .45.177.492.41l.008.09c0 .246-.177.45-.41.492l-.09.008H24.15c-.245 0-.45-.177-.492-.41l-.008-.09v-.953l-3.447 3.447 3.447 3.447V20.8c0-.246.177-.45.41-.492l.09-.008h8.07c.276 0 .5.224.5.5 0 .245-.177.45-.41.492l-.09.008-7.57-.001v1.73c0 .417-.469.639-.788.41l-.065-.056-4.654-4.653c-.173-.174-.193-.443-.058-.638l.058-.07 4.654-4.653c.294-.294.782-.119.846.268zm5.994 5.024c.277 0 .5.223.5.5 0 .245-.176.45-.41.491l-.09.009H25.22c-.276 0-.5-.224-.5-.5 0-.246.177-.45.41-.492l.09-.008h5.418zM18.646 7.916l.007.086-.001 1.429h4.669c.245 0 .45.177.491.41l.009.09c0 .246-.177.45-.41.492l-.09.008h-5.168c-.246 0-.45-.176-.492-.41l-.008-.09-.001-.722-3.46 3.461 3.46 3.46v-.784c0-.246.178-.45.41-.492l.09-.008h1.968c.276 0 .5.224.5.5 0 .245-.177.45-.41.492l-.09.008-1.468-.001v1.493c0 .416-.468.638-.787.41l-.066-.056-4.668-4.669c-.174-.173-.193-.442-.058-.637l.058-.07L17.8 7.648c.294-.294.783-.119.847.268zM24.059 5.5c1.26 0 2.293.98 2.377 2.22l.005.162v4.079c0 .276-.224.5-.5.5-.245 0-.45-.177-.492-.41l-.008-.09V7.882c0-.718-.548-1.309-1.249-1.376l-.133-.006H9c-.719 0-1.309.548-1.376 1.25l-.006.132v4.079c0 .276-.224.5-.5.5-.246 0-.45-.177-.492-.41l-.008-.09V7.882c0-1.26.98-2.293 2.219-2.377L9 5.5h15.059zm-1.48 5.593c.277 0 .5.224.5.5 0 .246-.176.45-.41.492l-.09.008h-3.29c-.276 0-.5-.224-.5-.5 0-.245.177-.45.41-.492l.09-.008h3.29z" transform="translate(-1)"/>
    </g>
</svg>
