<svg xmlns="http://www.w3.org/2000/svg" width="24" height="25" viewBox="0 0 24 25">
    <path fill="#999" d="M9.268 16.765c1.601 0 2.929 1.14 3.171 2.627h11.053c.28 0 .507.225.507.5 0 .246-.18.45-.416.493l-.091.008H12.436C12.185 21.871 10.862 23 9.268 23S6.35 21.871 6.1 20.393H.507c-.28 0-.507-.224-.507-.5 0-.246.18-.45.416-.492l.091-.008h5.59c.242-1.488 1.57-2.628 3.17-2.628zm0 .98c-1.212 0-2.197.957-2.197 2.138 0 1.18.985 2.137 2.197 2.137 1.212 0 2.197-.957 2.197-2.137l-.004.048-.001-.038.005-.044c-.019-1.165-.997-2.104-2.197-2.104zM6.564 8.883c1.601 0 2.93 1.14 3.171 2.627h13.757c.28 0 .507.224.507.5 0 .246-.18.45-.416.492l-.091.008H9.732c-.251 1.478-1.574 2.607-3.168 2.607-1.595 0-2.918-1.129-3.169-2.607H.507c-.28 0-.507-.224-.507-.5 0-.245.18-.45.416-.492l.091-.008h2.885c.242-1.488 1.57-2.627 3.172-2.627zm0 .98c-1.212 0-2.197.956-2.197 2.137 0 1.18.985 2.138 2.197 2.138 1.212 0 2.197-.957 2.197-2.138l-.004.049-.002-.039.006-.043c-.019-1.166-.997-2.105-2.197-2.105zM11.972 1c1.601 0 2.929 1.14 3.172 2.627h8.349c.28 0 .507.224.507.5 0 .246-.18.45-.416.492l-.091.009H15.14c-.25 1.478-1.574 2.607-3.168 2.607s-2.917-1.13-3.168-2.607H.507c-.28 0-.507-.224-.507-.5 0-.246.18-.45.416-.492l.091-.008L8.8 3.627C9.043 2.139 10.37 1 11.972 1zm0 .98c-1.212 0-2.197.957-2.197 2.137 0 1.18.985 2.138 2.197 2.138 1.212 0 2.197-.957 2.197-2.138l-.002.03v-.02l.002-.026c-.009-1.173-.99-2.121-2.197-2.121z"/>
</svg>
