<svg xmlns="http://www.w3.org/2000/svg" width="24" height="24" viewBox="0 0 24 24">
    <g fill="none" fill-rule="evenodd">
        <g fill-rule="nonzero">
            <g>
                <g>
                    <g>
                        <path fill="#006450" d="M.5 23c-.276 0-.5-.224-.5-.5 0-.245.177-.45.41-.492L.5 22H1v-4.5c0-.245.177-.45.41-.492L1.5 17h3c.245 0 .45.177.492.41L5 17.5V22h2v-9.5c0-.245.177-.45.41-.492L7.5 12h3c.245 0 .45.177.492.41l.008.09V22h2v-7.5c0-.245.177-.45.41-.492L13.5 14h3c.245 0 .45.177.492.41l.008.09V22h2V7.5c0-.245.177-.45.41-.492L19.5 7h3c.245 0 .45.177.492.41L23 7.5V22h.5c.276 0 .5.224.5.5 0 .245-.177.45-.41.492L23.5 23H.5zM22 22V8h-2v14h2zm-6-7.001h-2V22h2v-7.001zM10 13H8v9h2v-9zm-6 4.999H2V22h2v-4.001z" transform="translate(-306 -899) translate(270 863) translate(24 24) translate(12 12)"/>
                        <path fill="#D99A29" d="M21.5 0c.03 0 .054.002.078.006L21.5 0c.032 0 .064.003.094.009.022.004.043.01.065.017l.02.007.05.022.033.019.026.017c.016.011.03.023.045.036l.007.007.019.018.033.038-.052-.056c.03.027.054.056.076.088.008.013.017.027.024.041.007.011.012.023.017.035.007.014.012.028.017.042l.014.05.004.02.007.063L22 .5v4c0 .276-.224.5-.5.5-.245 0-.45-.177-.492-.41L21 4.5l-.001-2.727-5.633 6.067c-.11.12-.272.176-.43.156l-.094-.022-5.736-1.912-5.786 4.822c-.188.157-.459.152-.64 0l-.064-.064c-.157-.188-.152-.459 0-.64l.064-.064 6-5c.11-.092.255-.132.395-.11l.083.02 5.694 1.897L20.352 1H17.5c-.245 0-.45-.177-.492-.41L17 .5c0-.245.177-.45.41-.492L17.5 0h4z" transform="translate(-306 -899) translate(270 863) translate(24 24) translate(12 12)"/>
                    </g>
                </g>
            </g>
        </g>
    </g>
</svg>
