<svg xmlns="http://www.w3.org/2000/svg" width="24" height="24" viewBox="0 0 24 24">
    <g fill="none" fill-rule="evenodd">
        <g fill-rule="nonzero">
            <g>
                <path fill="#D99A29" d="M11.5 6c.245 0 .45.177.492.41L12 6.5v5.28l5.838 5.351c.18.166.212.435.085.635l-.054.072c-.166.18-.435.212-.635.085l-.072-.054-6-5.5c-.083-.076-.137-.177-.155-.286L11 12V6.5c0-.276.224-.5.5-.5z" transform="translate(-731 -481) translate(731 481)"/>
                <path fill="#006450" d="M12 0C5.37 0 0 5.371 0 12s5.37 12 12 12c6.627 0 12-5.373 12-12S18.627 0 12 0zm0 1c6.075 0 11 4.925 11 11s-4.925 11-11 11C5.923 23 1 18.077 1 12S5.923 1 12 1z" transform="translate(-731 -481) translate(731 481)"/>
            </g>
        </g>
    </g>
</svg>
