<svg xmlns="http://www.w3.org/2000/svg" width="184" height="56" viewBox="0 0 184 56">
    <g fill="none" fill-rule="evenodd">
        <g>
            <g>
                <path fill="#000" d="M9.77 33.879L11.076 33.879 11.076 32.743 9.77 32.743z" transform="translate(-936 -40) translate(937 40)"/>
                <g>
                    <path fill="#000" d="M2.744 42.864c-.918 0-1.593-.245-2.01-.727C.314 41.65.1 41.025.1 40.28v-2.143h1.26v1.881c0 1.173.646 1.793 1.87 1.793H4.75v-9.839h1.26v7.584s4.883.055 5.085.03c.477-.062.957-.188 1.429-.375l.17-.068-.6-1.497c-.166-.423-.426-.754-.77-.984-.342-.23-.755-.346-1.224-.346-.442 0-.857.08-1.234.24l-.447-1.034c.599-.298 1.245-.449 1.923-.449.69 0 1.298.176 1.808.523.508.348.877.827 1.1 1.423l.622 1.647c.194.525.603.852 1.22.973l-.475 1.097c-.207-.02-.443-.093-.7-.217-.307-.148-.573-.343-.785-.579l-.095-.103-.12.067c-.481.27-1.034.478-1.64.621-.612.144-1.209.217-1.776.217H6.01v2.122H2.744zM22.387 40.741c-.63 0-1.133-.062-1.492-.187-.342-.119-.607-.306-.783-.56l-.105-.15-.144.111c-.672.521-1.392.786-2.138.786h-1.292l-.463-1.064h1.512c.872 0 1.588-.17 2.13-.503l.127-.079-1.493-4.022h1.348l1.397 3.758c.104.294.274.511.501.648.222.133.514.198.895.198h.986v-7.705h1.246v8.77h-2.232zM26.132 40.742L27.391 40.742 27.391 31.973 26.132 31.973zM30.797 42.371c.382-.062.698-.145.943-.245.312-.129.554-.324.72-.58.165-.258.247-.603.247-1.028v-4.264l-.14-.029c-.28-.058-.54-.087-.772-.087-.721 0-1.581.314-1.581 1.816 0 .522.137.943.408 1.251.275.313.67.472 1.173.472h1.096l-.762 1.064h-.611c-.496 0-.95-.117-1.346-.347-.396-.228-.71-.556-.934-.978-.227-.424-.341-.923-.341-1.484 0-.538.124-1.03.367-1.465.243-.433.59-.777 1.03-1.022.445-.247.968-.372 1.558-.372.492 0 1.202.072 2.115.213v5.174c0 .704-.116 1.27-.346 1.685-.227.412-.54.721-.932.922-.378.195-.848.343-1.399.444l-.493-1.14zM40.969 33.813L42.274 33.813 42.274 32.677 40.969 32.677zM38.666 33.813L39.971 33.813 39.971 32.677 38.666 32.677zM40.389 36.138c-.721 0-1.582.315-1.582 1.816 0 .523.138.944.41 1.252.274.312.669.47 1.172.47h.913v-3.422l-.142-.03c-.28-.057-.539-.086-.771-.086zm-.276 4.604c-.498 0-.951-.117-1.347-.347-.396-.23-.709-.558-.934-.98-.226-.422-.34-.922-.34-1.483 0-.537.123-1.03.367-1.465.242-.433.59-.776 1.03-1.022.444-.246.968-.371 1.558-.371.49 0 1.202.07 2.114.212v5.456h-2.448zM46.422 40.741c-.604 0-1.05-.184-1.362-.562-.316-.38-.476-.906-.476-1.556v-6.65h1.258v6.387c0 .465.089.793.271 1 .184.21.45.317.793.317h7.002l.04-.123c.153-.456.228-.848.228-1.17 0-.583-.174-1.013-.521-1.275-.328-.249-.805-.375-1.416-.375h-2.73l-.527-1.214 3.105-3.548h1.467l-3.548 3.697h2.52c.964 0 1.7.225 2.187.67.486.445.723 1.075.723 1.925 0 .402-.071.85-.212 1.331-.13.441-.263.826-.405 1.146h-8.397zM57.459 33.813L58.764 33.813 58.764 32.677 57.459 32.677zM56.04 42.367c.287-.053.518-.119.702-.2.253-.113.445-.3.571-.558.12-.247.18-.573.18-.995v-5.422h1.259v3.85l.035.05c.257.356.66.551 1.196.576.342-.026.62-.17.845-.428.248-.284.373-.66.373-1.118v-6.15h1.258v6.412c0 .216-.022.428-.064.63l-.019.084.053.07c.266.338.687.51 1.255.51h1.328v-7.706h1.247v8.77h-2.575c-.228 0-.485-.06-.762-.178-.275-.117-.526-.296-.746-.53l-.135-.146-.127.154c-.382.471-.88.7-1.522.7h-.67l-.012-.045-.088-.028c-.204-.059-.406-.15-.603-.272l-.267-.165v.323c0 .991-.218 1.716-.645 2.167-.407.427-.934.694-1.57.793l-.496-1.148zM73.434 33.813L74.74 33.813 74.74 32.677 73.434 32.677zM71.131 33.813L72.436 33.813 72.436 32.677 71.131 32.677zM79.349 36.138c-.25 0-.509.029-.774.087l-.14.032v3.42h2.221l.037-.132c.157-.564.236-1.098.236-1.591 0-1.501-.859-1.816-1.58-1.816zm-3.755 4.604c-.603 0-1.05-.182-1.362-.557-.097-.116-.179-.246-.247-.388l-.078-.165-.05-.188c-.067-.243-.1-.52-.1-.821v-2.37l-.142-.03c-.28-.056-.536-.085-.761-.085-.721 0-1.582.315-1.582 1.816 0 .523.138.944.41 1.252.275.312.669.47 1.172.47h1.238l-.383 1.066h-1.108c-.497 0-.952-.117-1.354-.347-.399-.23-.716-.558-.944-.98-.23-.422-.348-.922-.348-1.483 0-.537.125-1.03.37-1.465.242-.433.59-.776 1.03-1.022.444-.246.968-.371 1.557-.371.49 0 1.202.07 2.113.212l-.01 3.075c0 .465.089.792.27.999.183.21.45.317.793.317h1.098v-4.391c.912-.141 1.624-.212 2.114-.212.59 0 1.114.125 1.557.37.442.247.788.59 1.032 1.023.243.435.366.928.366 1.465 0 .698-.214 1.643-.635 2.81h-6.016zM90.276 36.08c-.492 0-1.089.16-1.777.48l-.17.08.084.17c.213.43.493.886.835 1.357.342.473.691.876 1.036 1.2l.089.084.108-.056c.422-.213.793-.492 1.102-.824.327-.35.493-.735.493-1.14 0-.422-.186-.76-.553-1.007-.342-.23-.762-.345-1.247-.345zm3.623 4.662l-.086-.01-.022.01c-1.192-.004-2.26-.149-3.176-.434l-.047-.014-.049.012c-1.09.286-2.354.432-3.756.436l-.12-.003-.003.003h-.648c-.603 0-1.05-.184-1.362-.563-.316-.382-.477-.905-.477-1.556v-6.65h1.26v6.387c0 .466.088.792.27 1 .184.21.45.317.792.317l.283.002.005-.002c.844-.002 1.502-.042 1.954-.12l.309-.057-.206-.246c-.42-.504-.936-1.277-1.534-2.295l.32-1.388c.55-.24 1.037-.425 1.452-.546.426-.127.868-.19 1.31-.19.523 0 1.021.112 1.479.334.456.221.823.514 1.093.871.26.348.394.714.394 1.093 0 .354-.1.724-.3 1.097-.203.38-.485.725-.834 1.027l-.296.257.38.065c.37.063.876.097 1.505.098l.11.01.015-.01h1.099v-7.704h1.247v8.77H93.9zM97.714 40.742L98.973 40.742 98.973 31.973 97.714 31.973zM103.217 33.813L104.522 33.813 104.522 32.677 103.217 32.677zM105.52 33.813L106.825 33.813 106.825 32.677 105.52 32.677zM109.641 34.015l.131-.646h.707l-.128-.266c-.062-.133-.095-.266-.095-.395 0-.34.096-.601.296-.797.201-.2.474-.295.828-.295.152 0 .317.02.488.062l-.176.554c-.077-.02-.147-.03-.209-.03-.162 0-.305.062-.41.177-.104.115-.158.269-.158.46 0 .182.042.335.126.454l.053.076h1.237v.646h-2.69zM115.878 43.294L117.184 43.294 117.184 42.157 115.878 42.157zM113.577 43.294L114.881 43.294 114.881 42.157 113.577 42.157zM120.717 36.948c-.314 0-.58.106-.785.315-.208.21-.314.52-.314.918 0 .736.39 1.25 1.127 1.488l.026.008h.074c.37 0 .665-.142.875-.423.201-.267.304-.612.304-1.026 0-.197-.056-.397-.16-.595-.109-.198-.26-.362-.453-.489-.198-.13-.431-.196-.694-.196zm6.321 3.793c-.255 0-.543-.075-.853-.222-.307-.146-.575-.36-.794-.64l-.138-.176-.137.176c-.452.58-1.014.862-1.716.862h-5.315c-.455-.007-.823-.073-1.09-.193-.266-.12-.522-.336-.764-.646l-.145-.185-.136.194c-.182.261-.415.467-.69.611-.277.145-.59.22-.928.22h-.949c-.455-.008-.824-.074-1.093-.194-.263-.12-.52-.336-.762-.646l-.144-.185-.137.194c-.182.261-.414.467-.69.611-.278.145-.59.22-.928.22h-1.948c-.604 0-1.05-.183-1.364-.558-.314-.377-.474-.903-.474-1.56v-2.37l-.143-.03c-.28-.057-.534-.087-.76-.087-.722 0-1.582.316-1.582 1.817 0 .522.138.943.41 1.252.275.311.67.471 1.173.471h1.083l-.391 1.064h-.946c-.497 0-.952-.116-1.354-.347-.399-.228-.715-.557-.944-.979-.231-.422-.347-.922-.347-1.484 0-.537.124-1.03.368-1.464.243-.433.59-.777 1.03-1.022.444-.246.968-.372 1.558-.372.491 0 1.202.071 2.114.213l-.012 3.073c0 .466.09.793.272 1.001.183.21.45.317.792.317h.982c.358 0 .667-.147.92-.436.248-.285.372-.66.372-1.119v-3.049h1.26v3.312c0 .185-.019.381-.055.585l-.016.09.059.07c.19.213.41.36.655.437.234.073 1.507.11 1.507.11.359 0 .668-.147.92-.436.249-.285.374-.66.374-1.119v-3.049h1.258v3.312c0 .184-.018.381-.054.585l-.017.09.06.07c.19.213.41.36.655.437.233.073 2.166.11 2.166.11l-.344-.32c-.34-.317-.505-.74-.505-1.296 0-.36.1-.715.297-1.049.197-.336.478-.612.832-.818.357-.206.769-.31 1.227-.31.509 0 .943.112 1.29.331.345.22.61.505.782.846.173.346.262.703.262 1.061 0 .5-.171.904-.519 1.236l-.336.32h.72c.245 0 .496-.073.748-.214.253-.144.468-.37.638-.67.168-.302.253-.68.253-1.125 0-.515-.117-.994-.35-1.426-.235-.434-.585-.783-1.044-1.038-.453-.25-1.01-.379-1.65-.379h-.666l-.455-1.065h1.145c.88 0 1.654.172 2.297.511.64.336 1.134.797 1.472 1.37.34.571.51 1.217.51 1.92 0 .418-.06.846-.178 1.272l-.022.08.043.068c.147.242.329.422.542.531.212.11.486.164.84.164h1.5v-7.704h1.246v8.768h-2.747zM131.241 40.742L132.499 40.742 132.499 31.973 131.241 31.973zM.796 54.661C.265 54.062 0 53.211 0 52.103c0-1.094.282-1.945.847-2.55.544-.582 1.285-.873 2.222-.873.65 0 1.268.157 1.854.467v.936H4.49c-.355-.332-.822-.498-1.4-.498-.61 0-1.077.194-1.407.583-.352.422-.528 1.056-.528 1.904 0 1.736.6 2.606 1.8 2.606.453 0 .824-.073 1.116-.214v-1.632H3.002v-.829h2.156v2.998c-.623.357-1.357.537-2.202.537-.927 0-1.647-.293-2.16-.877M7.155 52.46h2.17c-.013-.475-.11-.821-.291-1.036-.165-.195-.41-.293-.74-.293-.66 0-1.04.443-1.14 1.329zm-.017.729c.03.531.16.918.396 1.163.226.234.556.351.99.351.521 0 .954-.15 1.3-.452h.374v.75c-.495.358-1.098.537-1.806.537-.732 0-1.302-.231-1.71-.691-.4-.454-.6-1.077-.6-1.871 0-.787.212-1.421.636-1.904.41-.467.937-.701 1.576-.701 1.362 0 2.043.812 2.043 2.435l-.005.383H7.138zM11.881 50.44c.132 0 .224.038.282.111.065.084.105.24.118.463.562-.428 1.152-.644 1.772-.644.842 0 1.263.47 1.263 1.41v3.694h-1.028v-3.466c0-.277-.056-.47-.168-.58-.104-.097-.27-.148-.499-.148-.39 0-.835.154-1.333.463v3.731h-1.032V50.44h.625zM17.277 52.46h2.17c-.013-.475-.11-.821-.292-1.036-.165-.195-.41-.293-.739-.293-.66 0-1.04.443-1.14 1.329zm-.017.729c.03.531.16.918.397 1.163.225.234.555.351.99.351.52 0 .953-.15 1.298-.452h.375v.75c-.495.358-1.098.537-1.806.537-.733 0-1.303-.231-1.71-.691-.4-.454-.6-1.077-.6-1.871 0-.787.211-1.421.636-1.904.41-.467.937-.701 1.576-.701 1.362 0 2.042.812 2.042 2.435l-.005.383H17.26zM23.76 51.322c-.514 0-.965.174-1.357.521v3.631h-1.036V50.44h.632c.126 0 .218.041.277.123.064.088.106.246.123.473.387-.422.822-.633 1.309-.633.106 0 .208.017.308.048v.877l-.257-.005zM27.424 54.235v-.983c-.27-.06-.55-.09-.837-.09-.694 0-1.042.265-1.042.797 0 .273.08.48.237.622.146.128.346.191.6.191.373 0 .72-.18 1.042-.537zm.625 1.24c-.188 0-.324-.035-.41-.102-.085-.068-.146-.196-.18-.382-.37.364-.83.547-1.385.547-.46 0-.825-.13-1.098-.389-.291-.272-.437-.654-.437-1.143 0-.502.178-.89.533-1.164.336-.254.788-.382 1.356-.382.35 0 .681.041.996.123v-.586c0-.525-.301-.787-.904-.787-.506 0-.935.133-1.289.398h-.358v-.797c.56-.294 1.146-.44 1.755-.44.606 0 1.058.118 1.354.355.315.256.473.656.473 1.201v3.547h-.406zM29.63 55.475v-6.693h.571c.198 0 .324.042.378.127.06.086.088.273.088.564v6.002H29.63zM36.739 50.02l-.862 2.733h1.729l-.867-2.733zm-2.618 5.088l2.142-6.363h1.117l2.125 6.363v.366h-1.036l-.59-1.855H35.61l-.575 1.855h-.914v-.366zM43.39 54.23v-3.79h1.027v5.034h-.631c-.128 0-.215-.031-.267-.096-.055-.066-.092-.206-.112-.416-.562.388-1.12.58-1.674.58-.9 0-1.35-.456-1.35-1.37V50.44h1.032v3.518c0 .273.063.465.19.58.106.094.268.142.487.142.384 0 .816-.15 1.299-.45M45.25 50.44h.569v-1.334h1.025v1.334h1.06v.787h-1.06v2.865c0 .235.053.4.156.494.095.084.254.128.477.128h.478v.718c-.274.07-.543.106-.806.106-.887 0-1.33-.444-1.33-1.328v-2.983h-.57v-.787zM49.797 51.009c.56-.426 1.148-.638 1.765-.638.842 0 1.264.469 1.264 1.409v3.694h-1.029v-3.466c0-.276-.055-.47-.169-.578-.102-.1-.268-.15-.498-.15-.389 0-.833.154-1.333.462v3.732h-1.032V48.78h.565c.197 0 .325.04.378.118.06.085.089.276.089.573v1.537zM56.968 54.273c.228-.302.342-.734.342-1.298 0-.574-.114-1.016-.342-1.324-.227-.3-.538-.452-.935-.452-.391 0-.698.151-.924.453-.236.312-.354.754-.354 1.323 0 .561.118.99.354 1.291.223.293.531.438.924.438.4 0 .712-.144.935-.431m-2.588.58c-.446-.473-.667-1.099-.667-1.878 0-.787.22-1.422.667-1.903.429-.468.979-.7 1.653-.7.673 0 1.227.233 1.658.7.445.481.667 1.116.667 1.903 0 .78-.222 1.405-.667 1.877-.428.457-.981.687-1.658.687-.674 0-1.224-.23-1.653-.687M61.653 51.322c-.514 0-.966.174-1.356.521v3.631H59.26V50.44h.632c.127 0 .219.041.278.123.063.088.106.246.122.473.387-.422.823-.633 1.31-.633.106 0 .207.017.308.048v.877l-.257-.005zM62.742 55.475V50.44h.57c.197 0 .322.048.374.143.054.097.081.314.081.655v4.237h-1.025zm.101-5.646c-.12-.117-.178-.258-.178-.424 0-.171.058-.317.178-.437s.26-.18.421-.18c.158 0 .298.06.416.18.12.124.18.269.18.437 0 .166-.06.307-.18.424-.116.114-.254.17-.416.17-.161 0-.301-.056-.42-.17zM64.543 50.44h.57v-1.334h1.026v1.334h1.058v.787h-1.058v2.865c0 .235.05.4.154.494.095.084.254.128.477.128h.478v.718c-.274.07-.543.106-.806.106-.886 0-1.33-.444-1.33-1.328v-2.983h-.57v-.787zM68.818 56.665L69.469 55.14 67.689 50.764 67.689 50.439 68.654 50.439 69.972 53.815 71.204 50.439 72.093 50.439 72.093 50.759 69.705 57 68.818 57zM78.498 54.273c.23-.302.344-.734.344-1.298 0-.574-.114-1.016-.344-1.324-.226-.3-.537-.452-.934-.452-.39 0-.698.151-.924.453-.236.312-.355.754-.355 1.323 0 .561.12.99.355 1.291.223.293.53.438.924.438.4 0 .712-.144.934-.431m-2.587.58c-.445-.473-.667-1.099-.667-1.878 0-.787.222-1.422.667-1.903.428-.468.979-.7 1.653-.7s1.227.233 1.659.7c.444.481.666 1.116.666 1.903 0 .78-.222 1.405-.666 1.877-.428.457-.982.687-1.66.687-.673 0-1.224-.23-1.652-.687M80.366 50.44h.57v-.36c0-.913.447-1.368 1.34-1.368.281 0 .528.038.744.111v.703h-.452c-.208 0-.358.036-.446.11-.107.09-.16.248-.16.48v.324h.97v.787h-.97v4.248h-1.026v-4.248h-.57v-.787zM85.972 54.586L89.308 49.616 86.223 49.616 86.223 48.744 90.488 48.744 90.488 49.648 87.161 54.607 90.442 54.607 90.442 55.475 85.972 55.475zM93.927 54.235v-.983c-.27-.06-.549-.09-.836-.09-.695 0-1.042.265-1.042.797 0 .273.078.48.236.622.146.128.346.191.601.191.372 0 .72-.18 1.04-.537zm.626 1.24c-.189 0-.325-.035-.41-.102-.086-.068-.146-.196-.18-.382-.37.364-.83.547-1.386.547-.459 0-.824-.13-1.099-.389-.29-.272-.435-.654-.435-1.143 0-.502.178-.89.533-1.164.335-.254.787-.382 1.355-.382.349 0 .682.041.996.123v-.586c0-.525-.301-.787-.904-.787-.506 0-.935.133-1.289.398h-.358v-.797c.56-.294 1.147-.44 1.756-.44.605 0 1.057.118 1.355.355.314.256.471.656.471 1.201v3.547h-.405zM97.17 52.662l1.864-2.223h.842v.363l-1.453 1.673c.177.295.449.736.81 1.325.36.584.627 1.025.807 1.324v.351h-.924l-1.391-2.255-.555.65v1.605h-1.032v-6.694h.561c.198 0 .326.042.384.128.058.085.087.273.087.563v3.19zM103.494 54.235v-.983c-.27-.06-.548-.09-.837-.09-.694 0-1.042.265-1.042.797 0 .273.08.48.237.622.147.128.347.191.6.191.373 0 .72-.18 1.042-.537zm.626 1.24c-.188 0-.324-.035-.41-.102-.085-.068-.146-.196-.18-.382-.37.364-.831.547-1.385.547-.459 0-.826-.13-1.1-.389-.29-.272-.435-.654-.435-1.143 0-.502.177-.89.533-1.164.335-.254.787-.382 1.356-.382.348 0 .68.041.995.123v-.586c0-.525-.3-.787-.903-.787-.506 0-.935.133-1.29.398h-.358v-.797c.561-.294 1.147-.44 1.756-.44.605 0 1.057.118 1.354.355.314.256.473.656.473 1.201v3.547h-.406zM105.27 50.44h.57v-1.334h1.026v1.334h1.057v.787h-1.057v2.865c0 .235.05.4.153.494.096.084.255.128.478.128h.478v.718c-.274.07-.542.106-.806.106-.886 0-1.33-.444-1.33-1.328v-2.983h-.57v-.787zM120.032 55.475L120.032 49.617 118.184 49.617 118.184 48.745 122.963 48.745 122.963 49.617 121.126 49.617 121.126 55.475zM126.4 54.235v-.983c-.27-.06-.548-.09-.835-.09-.695 0-1.043.265-1.043.797 0 .273.08.48.238.622.145.128.346.191.6.191.372 0 .72-.18 1.04-.537zm.627 1.24c-.189 0-.325-.035-.41-.102-.086-.068-.147-.196-.18-.382-.37.364-.83.547-1.385.547-.46 0-.825-.13-1.099-.389-.291-.272-.436-.654-.436-1.143 0-.502.178-.89.533-1.164.335-.254.788-.382 1.355-.382.349 0 .681.041.996.123v-.586c0-.525-.301-.787-.904-.787-.506 0-.934.133-1.289.398h-.358v-.797c.561-.294 1.147-.44 1.756-.44.606 0 1.057.118 1.355.355.314.256.471.656.471 1.201v3.547h-.405zM128.28 55.123l1.426-2.227-1.366-2.1v-.357h.946l1.129 1.792 1.052-1.792h.842v.352l-1.263 2.067c.106.171.59.927 1.452 2.27v.347h-.934l-1.236-1.984-1.18 1.984h-.869v-.352zM113.256 54.777c-.414 0-.733-.119-.954-.356-.198-.212-.298-.49-.298-.834 0-.525.243-.938.729-1.239l1.605 1.936c-.307.33-.668.493-1.082.493zm.246-3.396c-.107.038-.214.065-.322.091-.206-.303-.308-.569-.308-.793 0-.256.08-.46.241-.612.055-.052.124-.083.191-.117.177-.049.338-.057.476-.002.172.07.297.222.373.45.148.446-.07.774-.65.983zm1.833 2.695c.343-.613.573-1.3.692-2.064v-.233h-.764c-.038.536-.182 1.1-.436 1.69l-1.243-1.483c.083-.02.165-.035.247-.064.477-.172.82-.415 1.03-.729.223-.337.263-.715.121-1.137-.137-.41-.366-.687-.686-.829-.596-.262-1.365-.138-1.851.31-.31.286-.467.666-.467 1.136 0 .422.126.814.374 1.175-.857.4-1.289 1.01-1.289 1.824 0 .555.174.998.52 1.324.363.34.87.51 1.524.51.664 0 1.227-.235 1.689-.703l.544.65h.899v-.298l-.904-1.079z" transform="translate(-936 -40) translate(937 40) translate(0 .066)"/>
                    <path fill="#D19F2A" d="M174.243 55.553l.163-2.163c.068-1.364-.505-2.68-1.537-3.53l-4.427-3.673 11.914-10.155c1.222-1.092 1.93-2.676 1.94-4.347l.013-1.92c0-.15-.169-.233-.28-.135L163.2 45.938c-.155.136-.155.384 0 .519l10.675 9.268c.145.118.358.019.368-.172M146.696 55.553l-.164-2.163c-.067-1.364.505-2.68 1.538-3.53l4.427-3.673-11.915-10.155c-1.222-1.092-1.93-2.676-1.94-4.347l-.012-1.92c0-.15.168-.233.28-.135l18.827 16.308c.157.136.157.384 0 .519l-10.675 9.268c-.143.118-.357.019-.366-.172" transform="translate(-936 -40) translate(937 40) translate(0 .066)"/>
                    <path fill="#006450" fill-rule="nonzero" d="M178.944 13.821c-4.809-2.088-10.261-2.044-15.02.057 2.149-3.5 5.483-6.044 9.433-7.12l1.404-.385c.061-.017.086-.097.042-.147l-.918-1.082c-.856-1.008-2.228-1.36-3.436-.875-3.39 1.364-6.302 3.675-8.443 6.671V2.915c0-.447-.166-.876-.463-1.199l-.438-.476c-.376-.409-1.009-.409-1.385 0l-.437.476c-.298.323-.464.752-.464 1.2v7.901c-2.125-2.927-4.992-5.188-8.32-6.535-1.22-.493-2.605-.155-3.47.862l-.917 1.082c-.043.05-.02.13.042.147l1.405.384c3.95 1.077 7.283 3.62 9.432 7.121-4.76-2.1-10.21-2.145-15.02-.057-1.195.52-1.941 1.767-1.877 3.107l.067 1.434c.004.067.074.107.132.074l1.264-.738c4.609-2.688 10.212-2.803 14.887-.453-2.889.698-5.58 2.077-7.871 4.042-1.004.862-1.385 2.281-.944 3.553l.468 1.355c.021.064.1.081.145.032l1.003-1.087c2.555-2.763 5.927-4.512 9.574-4.985v17.437c0 .077.007.152.017.227l-8.262-7.155c-.23-.199-.582-.03-.582.282v2.104c0 1.218.522 2.373 1.422 3.154l8.826 7.643c.127.11.308.11.435 0l8.826-7.643c.901-.78 1.422-1.937 1.422-3.154v-2.105c0-.31-.352-.48-.582-.28l-8.363 7.243c.019-.104.028-.21.028-.316V20.144c3.682.454 7.089 2.21 9.663 4.996l1.004 1.087c.046.05.124.032.146-.032l.468-1.355c.44-1.272.06-2.69-.945-3.553-2.29-1.965-4.981-3.344-7.872-4.042 4.676-2.35 10.28-2.235 14.887.453l1.266.738c.057.033.128-.007.13-.074l.068-1.434c.064-1.34-.681-2.588-1.877-3.107" transform="translate(-936 -40) translate(937 40) translate(0 .066)"/>
                </g>
            </g>
        </g>
    </g>
</svg>
