<svg xmlns="http://www.w3.org/2000/svg" width="24" height="24" viewBox="0 0 24 24">
    <path fill="#A9A9A9" d="M23.478 16.717h-6.26c-.277 0-.5.224-.5.5v6.261c0 .276.223.5.5.5h6.26c.276 0 .5-.224.5-.5v-6.26c0-.277-.224-.5-.5-.5zm-8.348 0c.277 0 .5.224.5.5v6.261c0 .276-.223.5-.5.5H8.87c-.277 0-.5-.224-.5-.5v-6.26c0-.277.223-.5.5-.5zm-8.347 0c.276 0 .5.224.5.5v6.261c0 .276-.224.5-.5.5H.522c-.276 0-.5-.224-.5-.5v-6.26c0-.277.224-.5.5-.5zm16.195 1v5.261h-5.261v-5.261h5.261zm-8.348 0H9.369v5.261h5.261v-5.261zm-8.348 0H1.021v5.261h5.261v-5.261zM15.13 8.37c.277 0 .5.223.5.5v6.26c0 .277-.223.5-.5.5H8.87c-.277 0-.5-.223-.5-.5V8.87c0-.277.223-.5.5-.5zm-8.347 0c.276 0 .5.223.5.5v6.26c0 .277-.224.5-.5.5H.522c-.276 0-.5-.223-.5-.5V8.87c0-.277.224-.5.5-.5zm16.695 0c.276 0 .5.223.5.5v6.26c0 .277-.224.5-.5.5h-6.26c-.277 0-.5-.223-.5-.5V8.87c0-.277.223-.5.5-.5zm-8.848.999H9.369v5.261h5.261V9.369zm-8.348 0H1.021v5.261h5.261V9.369zm16.696 0h-5.261v5.261h5.261V9.369zM15.13.022c.277 0 .5.224.5.5v6.26c0 .277-.223.5-.5.5H8.87c-.277 0-.5-.223-.5-.5V.523c0-.276.223-.5.5-.5zm-8.347 0c.276 0 .5.224.5.5v6.26c0 .277-.224.5-.5.5H.522c-.276 0-.5-.223-.5-.5V.523c0-.276.224-.5.5-.5zm16.695 0c.276 0 .5.224.5.5v6.26c0 .277-.224.5-.5.5h-6.26c-.277 0-.5-.223-.5-.5V.523c0-.276.223-.5.5-.5zm-8.848.999H9.369v5.261h5.261V1.021zm-8.348 0H1.021v5.261h5.261V1.021zm16.696 0h-5.261v5.261h5.261V1.021z"/>
</svg>
