<svg xmlns="http://www.w3.org/2000/svg" xmlns:xlink="http://www.w3.org/1999/xlink" width="1443" height="155" viewBox="0 0 1443 155">
    <defs>
        <linearGradient id="lrzkzgstdb" x1="49.59%" x2="50.562%" y1="-1.582%" y2="100%">
            <stop offset="0%" stop-color="#067962"/>
            <stop offset="100%" stop-color="#006450"/>
        </linearGradient>
        <linearGradient id="psktg0llnd" x1="50%" x2="50%" y1="134.575%" y2="0%">
            <stop offset="0%" stop-color="#56A894"/>
            <stop offset="100%" stop-color="#8FD3C6"/>
        </linearGradient>
        <path id="8rzoxgh3ea" d="M644.392 -644.1L797.286 -644.1 797.286 797.507 644.392 797.507z"/>
    </defs>
    <g fill="none" fill-rule="evenodd" transform="translate(.464 .296)">
        <mask id="q3qjv3gvcc" fill="#fff">
            <use xlink:href="#8rzoxgh3ea"/>
        </mask>
        <path fill="url(#lrzkzgstdb)" fill-rule="nonzero" d="M644.589 -644.275L797.483 -644.275 797.483 797.332 644.589 797.332z" mask="url(#q3qjv3gvcc)" transform="rotate(-90 721.036 76.528)"/>
        <g stroke="url(#psktg0llnd)" stroke-width="200" mask="url(#q3qjv3gvcc)" opacity=".088">
            <g>
                <path d="M1043.379 648.872c28.53 7.23 59.817 3.575 87.1-12.676 15.037-8.957 27.831-21.228 37.408-35.878h0l341.48-522.395c17.375-26.582 22.332-57.69 16.299-86.495-6.033-28.806-23.055-55.311-49.636-72.687-18.707-12.228-40.573-18.741-62.922-18.741h0-652.644c-31.756 0-60.506 12.872-81.317 33.683-20.811 20.81-33.683 49.56-33.683 81.317 0 20.718 5.597 41.051 16.2 58.85h0l311.163 522.396c16.251 27.283 42.023 45.396 70.552 52.626zM397.454 848.985c-28.529-7.23-59.816-3.575-87.1 12.676-15.037 8.957-27.831 21.228-37.408 35.878h0l-341.48 522.396c-17.375 26.58-22.331 57.688-16.299 86.494 6.033 28.807 23.055 55.311 49.636 72.687 18.708 12.229 40.573 18.741 62.923 18.741h652.643c31.757 0 60.507-12.872 81.317-33.683 20.811-20.81 33.683-49.56 33.683-81.317 0-20.718-5.597-41.05-16.199-58.85h0L468.006 901.61c-16.251-27.283-42.022-45.396-70.552-52.626z" transform="rotate(-90 208 598.5)"/>
            </g>
        </g>
    </g>
</svg>
