<svg xmlns="http://www.w3.org/2000/svg" width="24" height="24" viewBox="0 0 24 24">
    <g fill="none" fill-rule="evenodd">
        <g fill-rule="nonzero">
            <g>
                <g>
                    <g>
                        <path fill="#006450" d="M3.5 12c.245 0 .45.176.492.408l.008.089v10.509h5.153v-7.207c0-.244.178-.447.411-.49l.09-.007h5.128c.246 0 .45.176.492.407l.008.09v7.207h5.153v-9.959c0-.244.178-.447.411-.489l.09-.008c.245 0 .45.176.492.408l.008.09v10.455c0 .244-.177.447-.41.489l-.09.008h-6.154c-.245 0-.45-.176-.492-.408l-.008-.089v-7.208h-4.129v7.208c0 .244-.176.447-.41.489l-.09.008H3.5c-.245 0-.45-.176-.492-.408L3 23.503V12.497c0-.275.224-.497.5-.497z" transform="translate(-306 -1295) translate(270 1259) translate(24 24) translate(12 12)"/>
                        <path fill="#D99A29" d="M11.64.164c.172-.194.454-.216.651-.065l.07.065 11.511 12.994c.182.205.168.523-.031.71-.177.167-.44.174-.625.03l-.064-.062L12 1.25.848 13.836c-.161.182-.423.214-.619.088l-.07-.055c-.177-.167-.208-.437-.085-.638l.054-.073L11.64.164z" transform="translate(-306 -1295) translate(270 1259) translate(24 24) translate(12 12)"/>
                    </g>
                </g>
            </g>
        </g>
    </g>
</svg>
