<svg xmlns="http://www.w3.org/2000/svg" width="28" height="28" viewBox="0 0 28 28">
    <g fill="none" fill-rule="evenodd">
        <g fill-rule="nonzero">
            <g>
                <g>
                    <g>
                        <path fill="#D99A29" d="M17.208 16.625h-5.833c-.242 0-.438.196-.438.438v10.5c0 .241.196.437.438.437h5.833c.242 0 .438-.196.438-.438v-10.5c0-.241-.196-.437-.438-.437zm-.438.875v9.625h-4.957V17.5h4.957z" transform="translate(-64 -1079) translate(40 899) translate(24 170) translate(0 10)"/>
                        <path fill="#006450" d="M25.083 2.77c.166 0 .318.094.392.243l2.333 4.666.013.028.01.026c.005.016.01.031.013.047.007.03.01.062.01.095l-.005-.068.006.057v1.178c0 1.706-1 3.053-2.336 3.614l.002.031v14.876c0 .214-.155.393-.359.43l-.079.007H2.917c-.215 0-.394-.155-.43-.359l-.008-.078V12.688l.003-.036C1.19 12.11.212 10.838.15 9.21l-.003-.167V7.875v-.011c0-.019.002-.038.005-.057l.006-.03c.007-.033.019-.066.035-.098l-.025.06c.005-.015.011-.03.018-.044l.007-.016 2.333-4.666c.074-.149.226-.242.392-.242zm-3.424 9.26l-.066.087c-1.873 2.354-5.275 2.72-7.486.733l-.107-.1-.107.102c-2.216 1.994-5.62 1.61-7.487-.737l-.066-.085-.025.021c-.943.75-1.996.99-2.96.846l-.001 14.228h21.291l.001-14.224c-.962.145-2.013-.097-2.958-.848l-.03-.024zm-8.097-3.718H6.854v2.932c1.553 2.333 4.754 2.725 6.67.748l.038-.041V8.31zm7.583 0h-6.583v3.766c1.899 1.85 4.976 1.483 6.53-.753l.054-.082-.001-2.931zm5.834 0H22.02v2.876c2.061 1.88 4.837.487 4.954-1.984l.004-.162v-.73zm-21 0H1.02v.73c0 2.58 2.875 4.06 4.968 2.138l-.01.007V8.312zm1.044-4.667H3.187L1.29 7.437h4.784l.948-3.792zm6.539 0H7.924l-.947 3.792h6.585V3.645zm6.513 0h-5.513v3.792h6.46l-.947-3.792zm4.737 0h-3.835l.947 3.792h4.785l-1.897-3.792z" transform="translate(-64 -1079) translate(40 899) translate(24 170) translate(0 10)"/>
                    </g>
                </g>
            </g>
        </g>
    </g>
</svg>
