<svg xmlns="http://www.w3.org/2000/svg" width="29" height="29" viewBox="0 0 29 29">
    <path fill="#D99A29" d="M18.213 0c.035 0 .07.003.104.008L18.213 0c.047 0 .094.005.14.014.025.005.05.01.073.018l.023.008.075.031.027.014.06.036.031.022.009.007.069.06 7.17 7.19c.025.026.049.053.07.082l-.07-.081c.03.03.058.063.082.098.015.02.028.043.04.066.008.014.015.027.021.041.01.02.018.04.026.062l.009.027c.007.024.013.048.018.073l.007.038c.004.033.007.068.007.103v20.372c0 .397-.321.719-.717.719H5.067c-.396 0-.717-.322-.717-.719V.719c0-.397.321-.719.717-.719zm-.718 1.438H5.785v26.124h18.88V8.628h-6.452c-.363 0-.663-.27-.71-.621l-.007-.098-.001-6.471zm4.303 22.529c.396 0 .717.322.717.719 0 .397-.321.719-.717.719H8.75c-.396 0-.717-.322-.717-.719 0-.397.321-.72.717-.72zm0-2.397c.396 0 .717.325.717.725 0 .4-.321.725-.717.725H8.75c-.396 0-.717-.324-.717-.725 0-.4.321-.725.717-.725zm0-2.396c.396 0 .717.324.717.725 0 .4-.321.725-.717.725H8.75c-.396 0-.717-.325-.717-.725 0-.4.321-.725.717-.725zm0-2.397c.395 0 .716.324.716.725 0 .4-.32.725-.717.725h-5.956c-.396 0-.717-.325-.717-.725 0-.4.321-.725.717-.725zM11.05 4.794c.4 0 .725.322.725.719v.729c1.154.321 2.001 1.382 2.001 2.64 0 .397-.321.72-.717.72-.396 0-.717-.323-.717-.72 0-.719-.583-1.302-1.3-1.302-.717 0-1.3.584-1.3 1.302 0 .72.583 1.304 1.3 1.304 1.509 0 2.734 1.228 2.734 2.74 0 1.26-.847 2.32-2 2.641v.73c0 .397-.325.719-.726.719-.4 0-.725-.322-.725-.72v-.724c-1.162-.315-2.016-1.38-2.016-2.645 0-.398.32-.72.717-.72.396 0 .717.322.717.72 0 .72.581 1.302 1.299 1.302s1.3-.582 1.3-1.302c0-.718-.583-1.303-1.3-1.303l-.214-.008c-1.41-.11-2.52-1.291-2.52-2.734 0-1.264.856-2.33 2.017-2.645v-.724c0-.397.325-.719.725-.719zm10.748 9.586c.396 0 .717.325.717.725 0 .4-.321.725-.717.725h-3.585c-.396 0-.717-.324-.717-.725 0-.4.32-.725.717-.725zm0-2.397c.396 0 .717.325.717.725 0 .4-.321.725-.717.725h-3.585c-.396 0-.717-.324-.717-.725 0-.4.32-.725.717-.725zm-2.869-9.528V7.19h4.723l-4.723-4.735z"/>
</svg>
