<svg xmlns="http://www.w3.org/2000/svg" width="24" height="24" viewBox="0 0 24 24">
    <g fill="none" fill-rule="evenodd">
        <g fill-rule="nonzero">
            <g>
                <g>
                    <g>
                        <path fill="#006450" d="M23.5 4c.276 0 .5.224.5.5v16c0 .276-.224.5-.5.5h-4c-.276 0-.5-.224-.5-.5v-.75c0-.686-.564-1.25-1.25-1.25s-1.25.564-1.25 1.25v.75c0 .276-.224.5-.5.5H8c-.276 0-.5-.224-.5-.5v-.75c0-.686-.564-1.25-1.25-1.25S5 19.064 5 19.75v.75c0 .276-.224.5-.5.5h-4c-.276 0-.5-.224-.5-.5v-16c0-.276.224-.5.5-.5zM23 5H1v15h3v-.25c0-1.187.929-2.165 2.096-2.245l.154-.005c1.238 0 2.25 1.012 2.25 2.25V20h7v-.25c0-1.187.929-2.165 2.096-2.245l.154-.005c1.238 0 2.25 1.012 2.25 2.25V20h3V5zm-2 9v1h-8v-1h8zm0-2v1h-8v-1h8zm0-2v1h-8v-1h8zm-4-2v1h-4V8h4z" transform="translate(-306 -1436) translate(270 1400) translate(24 24) translate(12 12)"/>
                        <path fill="#D99A29" d="M7 7c1.38 0 2.5 1.12 2.5 2.5 0 .698-.287 1.33-.749 1.784C10.193 11.804 11 13 11 14.5c0 .276-.224.5-.5.5h-7c-.276 0-.5-.224-.5-.5 0-1.499.807-2.696 2.25-3.217-.463-.453-.75-1.085-.75-1.783C4.5 8.12 5.62 7 7 7zm0 5c-1.681 0-2.675.745-2.933 1.876L4.042 14h5.915l-.024-.124c-.247-1.082-1.167-1.81-2.718-1.872zm0-4c-.828 0-1.5.672-1.5 1.5S6.172 11 7 11s1.5-.672 1.5-1.5S7.828 8 7 8z" transform="translate(-306 -1436) translate(270 1400) translate(24 24) translate(12 12)"/>
                    </g>
                </g>
            </g>
        </g>
    </g>
</svg>
