<svg xmlns="http://www.w3.org/2000/svg" width="24" height="24" viewBox="0 0 24 24">
    <g fill="none">
        <path fill="#FFF" d="M14.727.045c.246 0 .45.177.492.41l.008.09v4.364c0 .276-.224.5-.5.5-.245 0-.45-.177-.492-.41l-.008-.09V1.044H1.045v21.909h13.182v-2.749c0-.245.177-.45.41-.492l.09-.008c.246 0 .45.177.492.41l.008.09v3.25c0 .245-.177.45-.41.492l-.09.008H.545c-.245 0-.45-.177-.491-.41l-.009-.09V.544C.045.3.222.096.455.054l.09-.008h14.182z"/>
        <path fill="#D99A29" d="M18.284 6.671l.07.058 5.454 5.454c.094.095.143.217.146.341v.044l-.003.026.004-.049c0 .161-.076.304-.194.396l-5.407 5.404c-.196.195-.512.195-.708 0-.173-.174-.192-.443-.057-.638l.057-.07 4.59-4.592H4.91c-.276 0-.5-.223-.5-.5 0-.245.177-.45.41-.491l.09-.009h17.347l-4.61-4.609c-.173-.174-.192-.443-.057-.638l.057-.07c.174-.173.443-.192.638-.057z"/>
    </g>
</svg>
