<svg xmlns="http://www.w3.org/2000/svg" width="24" height="24" viewBox="0 0 24 24">
    <g fill="none" fill-rule="evenodd">
        <g fill-rule="nonzero">
            <circle cx="12" cy="12" r="12" fill="#FFF"/>
            <path fill="#144098" d="M7.768 6.43v4.065L4 12.682v4.874L8.182 20c.014 0 3.84-2.16 3.84-2.16L15.717 20 20 17.53v-4.848l-3.768-2.187V6.43L12.022 4 7.767 6.43zm0 6.036v2.93l2.526 1.458-2.07 1.202-2.511-1.459v-2.93l2.055-1.201zm4.253-6.522l2.512 1.459v6.994c-.014.013-2.497 1.444-2.512 1.444-.014-.013-2.526-1.444-2.554-1.444V7.403l2.554-1.459zm4.21 6.522l2.07 1.188v2.93l-2.526 1.458-2.055-1.201 2.512-1.445v-2.93z"/>
        </g>
    </g>
</svg>
