<svg xmlns="http://www.w3.org/2000/svg" width="24" height="24" viewBox="0 0 24 24">
    <g fill="none">
        <path fill="#006450" d="M20.514 0c.266 0 .481.216.481.483l-.001 13.776h2.525c.236 0 .433.171.473.396l.008.087v8.775c0 .267-.215.483-.48.483H.48c-.265 0-.48-.216-.48-.483v-8.775c0-.266.215-.482.48-.482l2.525-.001V2.676c0-.237.17-.434.394-.474l.087-.008 5.529-.001V.483c0-.237.17-.434.394-.475L9.496 0zM7.492 17.419c-.265 0-.48-.216-.48-.483v-1.711H.962v7.81h22.076v-7.81h-6.05v1.711c0 .267-.215.483-.48.483zm1.523-14.26H3.967l-.001 11.1h3.526c.237 0 .433.171.474.396l.007.087v1.711h1.042V3.159zM20.033.965H9.977l-.001 15.488h6.05v-1.71c0-.267.216-.483.482-.483l3.525-.001V.965z"/>
        <path fill="#D99A29" d="M18.51 12.066c.266 0 .482.216.482.482 0 .267-.216.483-.481.483h-7.012c-.265 0-.48-.216-.48-.483 0-.266.215-.482.48-.482zm0-2.194c.266 0 .482.216.482.483 0 .266-.216.482-.481.482h-7.012c-.265 0-.48-.216-.48-.482 0-.267.215-.483.48-.483zm0-2.194c.266 0 .482.224.482.5s-.216.5-.481.5h-7.012c-.265 0-.48-.224-.48-.5s.215-.5.48-.5zm0-2.194c.266 0 .482.224.482.5 0 .277-.216.5-.481.5h-7.012c-.265 0-.48-.223-.48-.5 0-.276.215-.5.48-.5zm0-2.193c.266 0 .482.224.482.5s-.216.5-.481.5h-5.008c-.266 0-.481-.224-.481-.5s.215-.5.48-.5z"/>
    </g>
</svg>
