<svg xmlns="http://www.w3.org/2000/svg" width="32" height="32" viewBox="0 0 32 32">
    <g fill="none">
        <circle cx="16" cy="16" r="16" fill="#FFF"/>
        <path fill="#144098" d="M10.357 8.574v5.419l-5.024 2.916v6.5l5.576 3.258c.02 0 5.12-2.88 5.12-2.88l4.928 2.88 5.71-3.295V16.91l-5.024-2.916v-5.42l-5.614-3.24-5.672 3.24zm0 8.047v3.907l3.369 1.944-2.76 1.602-3.349-1.944v-3.907l2.74-1.602zm5.672-8.695l3.349 1.944v9.325c-.02.019-3.33 1.927-3.35 1.927-.018-.018-3.368-1.927-3.406-1.927V9.87l3.407-1.944zm5.614 8.695l2.759 1.584v3.907l-3.368 1.944-2.74-1.602 3.349-1.926V16.62z"/>
    </g>
</svg>
