<svg xmlns="http://www.w3.org/2000/svg" width="150" height="46" viewBox="0 0 150 46">
    <g fill="none" fill-rule="evenodd">
        <path fill="#FEFEFE" d="M8.031 27.829L9.105 27.829 9.105 26.896 8.031 26.896z"/>
        <g>
            <path fill="#FEFEFE" d="M2.255 35.21c-.754 0-1.309-.201-1.651-.597-.347-.4-.522-.914-.522-1.526v-1.76h1.035v1.545c0 .964.531 1.473 1.537 1.473h1.251v-8.082H4.94v6.23s4.015.045 4.18.024c.393-.05.788-.154 1.175-.308l.14-.056-.492-1.23c-.138-.347-.351-.619-.634-.808-.281-.188-.62-.284-1.006-.284-.363 0-.705.066-1.014.197l-.368-.849c.492-.245 1.023-.369 1.58-.369.568 0 1.068.145 1.487.43.417.286.72.68.905 1.169l.51 1.353c.16.43.496.7 1.004.799l-.391.901c-.17-.016-.364-.076-.576-.178-.252-.122-.47-.282-.645-.476l-.078-.085-.098.056c-.396.22-.85.392-1.35.51-.502.118-.992.178-1.459.178H4.94v1.743H2.255zM18.402 33.466c-.518 0-.932-.05-1.226-.154-.282-.097-.5-.25-.644-.46l-.086-.124-.118.092c-.553.428-1.145.646-1.758.646h-1.062l-.38-.874h1.242c.717 0 1.305-.14 1.75-.413l.105-.065-1.227-3.304h1.108l1.149 3.087c.085.242.225.42.411.532.183.11.423.163.736.163h.81v-6.329h1.025v7.203h-1.835zM21.48 33.467L22.515 33.467 22.515 26.264 21.48 26.264zM25.315 34.805c.314-.051.574-.12.775-.201.257-.106.456-.266.592-.478.136-.21.203-.494.203-.843V29.78l-.115-.024c-.23-.047-.444-.071-.635-.071-.592 0-1.3.258-1.3 1.492 0 .428.113.774.336 1.027.226.257.55.388.964.388h.901l-.626.874h-.502c-.408 0-.781-.096-1.107-.285-.325-.187-.583-.457-.767-.803-.187-.349-.281-.759-.281-1.22 0-.441.102-.846.302-1.203.2-.355.484-.638.847-.84.365-.202.795-.305 1.28-.305.405 0 .988.06 1.738.175v4.25c0 .578-.095 1.043-.284 1.384-.186.339-.443.593-.766.758-.31.16-.697.281-1.15.364l-.405-.936zM33.676 27.775L34.749 27.775 34.749 26.842 33.676 26.842zM31.783 27.775L32.856 27.775 32.856 26.842 31.783 26.842zM33.2 29.685c-.593 0-1.3.258-1.3 1.491 0 .43.113.776.336 1.029.225.256.55.387.963.387h.751V29.78l-.117-.025c-.23-.047-.442-.07-.634-.07zm-.228 3.781c-.408 0-.781-.096-1.107-.285-.325-.188-.582-.458-.767-.804-.186-.347-.28-.758-.28-1.219 0-.44.101-.846.302-1.203.2-.356.484-.638.847-.84.365-.202.795-.304 1.28-.304.403 0 .988.058 1.738.174v4.481h-2.013zM38.159 33.466c-.497 0-.863-.151-1.12-.462-.26-.313-.391-.744-.391-1.278v-5.463h1.034v5.247c0 .382.073.652.223.822.15.172.37.26.652.26h5.755l.033-.101c.126-.375.188-.697.188-.961 0-.479-.144-.832-.429-1.047-.27-.205-.662-.308-1.164-.308h-2.245l-.432-.998 2.552-2.914h1.206L41.105 29.3h2.071c.792 0 1.397.185 1.798.55.4.366.594.883.594 1.581 0 .33-.058.698-.174 1.094-.107.362-.216.678-.333.941H38.16zM47.231 27.775L48.304 27.775 48.304 26.842 47.231 26.842zM46.065 34.802c.236-.044.426-.098.576-.165.208-.092.366-.246.47-.458.1-.203.149-.47.149-.817v-4.454h1.034v3.162l.028.04c.212.294.543.454.984.475.28-.022.51-.14.694-.352.204-.233.307-.542.307-.918v-5.052h1.034v5.267c0 .177-.018.352-.053.517l-.015.07.044.057c.218.278.564.418 1.03.418h1.093v-6.329h1.024v7.203h-2.116c-.188 0-.399-.048-.626-.145-.227-.096-.433-.243-.614-.436l-.11-.12-.105.127c-.314.387-.724.574-1.25.574h-.552l-.01-.036-.072-.023c-.168-.049-.334-.124-.495-.224l-.22-.135v.265c0 .814-.18 1.41-.53 1.78-.335.351-.768.57-1.29.652l-.409-.943zM60.363 27.775L61.436 27.775 61.436 26.842 60.363 26.842zM58.469 27.775L59.542 27.775 59.542 26.842 58.469 26.842zM65.224 29.685c-.204 0-.418.023-.636.071l-.115.026v2.81h1.826l.03-.109c.13-.463.195-.902.195-1.307 0-1.233-.707-1.491-1.3-1.491zm-3.086 3.781c-.496 0-.863-.149-1.12-.457-.08-.095-.147-.202-.202-.319l-.065-.135-.04-.155c-.056-.2-.083-.426-.083-.674V29.78l-.117-.025c-.23-.047-.44-.07-.625-.07-.593 0-1.3.258-1.3 1.491 0 .43.113.776.337 1.029.225.256.55.387.963.387h1.017l-.314.874h-.911c-.41 0-.783-.096-1.113-.285-.328-.188-.589-.458-.776-.805-.19-.346-.286-.757-.286-1.218 0-.44.102-.846.303-1.203.2-.356.485-.638.848-.84.364-.202.795-.304 1.28-.304.402 0 .987.058 1.736.174l-.008 2.526c0 .382.073.65.222.82.15.174.37.26.652.26h.903v-3.606c.749-.116 1.334-.174 1.737-.174.485 0 .916.102 1.28.304.363.202.648.484.848.84.2.357.301.762.301 1.203 0 .574-.176 1.35-.522 2.308h-4.945zM74.207 29.636c-.405 0-.896.133-1.462.395l-.14.065.07.14c.175.354.405.729.686 1.116.281.388.569.72.852.985l.073.07.089-.047c.347-.175.652-.404.906-.677.268-.288.405-.603.405-.937 0-.346-.153-.624-.455-.826-.28-.19-.626-.284-1.024-.284zm2.977 3.83l-.07-.008-.019.009c-.979-.003-1.858-.123-2.61-.357l-.039-.011-.04.01c-.896.235-1.934.355-3.088.358l-.097-.003-.003.003h-.533c-.496 0-.863-.151-1.12-.463-.26-.313-.392-.743-.392-1.278v-5.462h1.036v5.246c0 .383.072.65.222.82.15.174.37.262.65.262l.233.002.004-.002c.695-.002 1.235-.035 1.607-.1l.254-.045-.17-.202c-.345-.414-.77-1.05-1.26-1.886l.262-1.14c.453-.198.853-.349 1.194-.448.35-.105.713-.156 1.077-.156.43 0 .84.092 1.216.274.374.182.676.422.898.715.214.286.324.587.324.898 0 .291-.083.595-.247.901-.166.312-.398.596-.685.844l-.243.211.312.053c.304.052.72.08 1.237.081l.091.008.012-.008h.903v-6.328h1.026v7.203h-1.942zM80.321 33.467L81.356 33.467 81.356 26.264 80.321 26.264zM84.844 27.775L85.917 27.775 85.917 26.842 84.844 26.842zM86.737 27.775L87.81 27.775 87.81 26.842 86.737 26.842zM90.124 27.94l.108-.53h.581l-.105-.218c-.051-.11-.078-.219-.078-.325 0-.278.079-.494.243-.655.166-.163.39-.242.68-.242.126 0 .261.016.402.051l-.145.455c-.063-.016-.12-.024-.171-.024-.134 0-.251.05-.338.145-.085.094-.13.22-.13.378 0 .15.035.275.104.373l.044.062h1.017v.53h-2.212zM95.252 35.563L96.325 35.563 96.325 34.629 95.252 34.629zM93.36 35.563L94.432 35.563 94.432 34.629 93.36 34.629zM99.229 30.35c-.258 0-.476.087-.645.26-.172.172-.258.425-.258.753 0 .605.32 1.027.926 1.222l.021.007h.06c.305 0 .548-.117.72-.347.166-.22.25-.503.25-.843 0-.162-.045-.326-.132-.489-.089-.163-.213-.297-.371-.402-.163-.106-.355-.16-.571-.16zm5.196 3.116c-.21 0-.447-.062-.702-.182-.252-.12-.472-.297-.652-.526l-.113-.145-.113.145c-.372.476-.833.708-1.41.708h-4.37c-.373-.006-.677-.06-.896-.158-.219-.099-.429-.276-.627-.531l-.12-.152-.111.16c-.15.214-.342.383-.569.501-.227.12-.484.18-.761.18h-.78c-.374-.006-.678-.06-.899-.158-.217-.099-.428-.276-.626-.531l-.12-.152-.111.16c-.15.214-.34.383-.568.501-.228.12-.485.18-.762.18h-1.602c-.496 0-.863-.15-1.12-.457-.26-.31-.39-.742-.39-1.283V29.78l-.118-.024c-.23-.046-.44-.07-.624-.07-.594 0-1.301.259-1.301 1.492 0 .429.113.774.336 1.028.227.256.551.387.965.387h.89l-.321.874h-.778c-.408 0-.783-.095-1.113-.285-.327-.187-.588-.458-.776-.804-.19-.347-.285-.758-.285-1.22 0-.44.102-.845.303-1.202.2-.355.484-.638.846-.84.365-.201.796-.305 1.28-.305.405 0 .989.059 1.739.175l-.01 2.524c0 .383.073.652.223.823.15.172.37.26.652.26h.807c.294 0 .547-.12.756-.358.203-.234.306-.543.306-.92V28.81h1.035v2.72c0 .153-.015.314-.045.481l-.013.074.048.057c.157.176.337.296.539.36.192.06 1.239.09 1.239.09.294 0 .548-.12.756-.358.204-.234.307-.543.307-.92V28.81h1.035v2.72c0 .152-.016.314-.045.481l-.014.074.05.057c.155.176.336.296.538.36.191.06 1.78.09 1.78.09l-.282-.264c-.28-.26-.416-.607-.416-1.063 0-.297.082-.588.244-.862.162-.276.393-.503.684-.672.294-.17.632-.255 1.009-.255.418 0 .775.092 1.06.272.284.18.501.415.643.695.142.284.215.578.215.872 0 .41-.14.742-.426 1.015l-.276.262h.591c.202 0 .408-.06.615-.175.208-.118.385-.304.525-.551.138-.247.208-.558.208-.923 0-.423-.096-.817-.288-1.172-.193-.356-.481-.643-.858-.852-.373-.207-.83-.312-1.356-.312h-.548l-.374-.875h.941c.724 0 1.36.142 1.888.42.526.276.933.655 1.21 1.125.28.47.42 1 .42 1.577 0 .344-.05.696-.146 1.046l-.019.064.035.057c.122.199.27.347.446.436.174.09.4.135.69.135h1.233v-6.328h1.025v7.202h-2.258zM107.879 33.467L108.913 33.467 108.913 26.264 107.879 26.264zM.654 44.9C.218 44.408 0 43.708 0 42.8c0-.9.232-1.599.696-2.096.447-.478 1.057-.717 1.827-.717.534 0 1.042.13 1.523.384v.769h-.355c-.292-.273-.676-.41-1.151-.41-.5 0-.886.16-1.156.48-.29.346-.434.867-.434 1.564 0 1.426.493 2.14 1.48 2.14.371 0 .677-.06.916-.176v-1.34h-.878v-.681H4.24v2.463c-.512.293-1.116.44-1.81.44-.762 0-1.354-.24-1.776-.72M5.881 43.092h1.784c-.01-.39-.09-.674-.24-.85C7.29 42.08 7.089 42 6.819 42c-.543 0-.855.364-.937 1.092zm-.013.599c.024.436.13.754.325.955.186.193.457.289.814.289.428 0 .784-.124 1.068-.372h.308v.616c-.407.294-.903.441-1.485.441-.602 0-1.07-.19-1.405-.567-.33-.373-.494-.885-.494-1.537 0-.646.174-1.167.523-1.564.338-.384.77-.576 1.296-.576 1.12 0 1.68.667 1.68 2l-.005.315H5.868zM9.767 41.432c.107 0 .184.032.231.092.053.07.086.198.097.38.462-.352.947-.528 1.456-.528.692 0 1.039.385 1.039 1.157v3.035h-.845V42.72c0-.226-.046-.385-.139-.475-.085-.08-.221-.123-.41-.123-.32 0-.686.127-1.095.382v3.064h-.849v-4.136h.515zM14.201 43.092h1.784c-.01-.39-.09-.674-.24-.85-.135-.161-.337-.242-.607-.242-.543 0-.855.364-.937 1.092zm-.013.599c.024.436.13.754.326.955.185.193.456.289.814.289.427 0 .783-.124 1.067-.372h.308v.616c-.407.294-.902.441-1.485.441-.602 0-1.07-.19-1.405-.567-.328-.373-.493-.885-.493-1.537 0-.646.173-1.167.523-1.564.337-.384.77-.576 1.295-.576 1.12 0 1.678.667 1.678 2l-.004.315h-2.624zM19.53 42.158c-.422 0-.793.143-1.114.428v2.982h-.853v-4.136h.52c.104 0 .18.034.228.101.052.073.087.202.1.389.319-.347.677-.52 1.077-.52.087 0 .171.014.253.04v.72l-.211-.004zM22.542 44.55v-.807c-.222-.05-.451-.074-.688-.074-.57 0-.856.218-.856.655 0 .224.065.394.194.51.121.106.285.158.494.158.306 0 .592-.148.856-.441zm.514 1.018c-.154 0-.266-.028-.337-.083-.07-.056-.12-.16-.147-.313-.305.299-.684.449-1.14.449-.377 0-.678-.107-.902-.32-.24-.223-.359-.537-.359-.939 0-.412.146-.731.438-.956.276-.208.648-.314 1.114-.314.288 0 .56.034.82.102v-.482c0-.431-.248-.646-.743-.646-.416 0-.77.109-1.06.327h-.294v-.655c.46-.242.942-.361 1.442-.361.498 0 .87.096 1.113.291.259.21.39.539.39.987v2.913h-.335zM24.356 45.569V40.07h.47c.162 0 .266.034.31.104.049.07.072.224.072.463v4.93h-.852zM30.2 41.088l-.71 2.244h1.422l-.713-2.244zm-2.152 4.179l1.76-5.227h.918l1.747 5.227v.3h-.852l-.485-1.523h-1.865l-.473 1.524h-.75v-.301zM35.667 44.546v-3.113h.844v4.135h-.52c-.104 0-.175-.026-.218-.08-.046-.054-.076-.168-.092-.34-.462.318-.921.476-1.377.476-.74 0-1.11-.375-1.11-1.126v-3.065h.849v2.89c0 .225.052.383.156.476.087.079.22.118.4.118.316 0 .671-.123 1.068-.37M37.195 41.432h.468v-1.095h.843v1.095h.87v.647h-.87v2.353c0 .193.043.329.128.406.078.07.208.105.392.105h.393v.59c-.225.058-.446.088-.663.088-.729 0-1.093-.365-1.093-1.092v-2.45h-.468v-.647zM40.933 41.9c.46-.35.943-.524 1.45-.524.693 0 1.04.385 1.04 1.157v3.035h-.846V42.72c0-.227-.045-.386-.139-.475-.084-.082-.22-.123-.41-.123-.319 0-.684.126-1.095.38v3.065h-.849V40.07h.465c.162 0 .267.033.31.097.05.07.074.227.074.47V41.9zM46.827 44.581c.188-.247.282-.602.282-1.065 0-.472-.094-.835-.282-1.088-.186-.247-.442-.371-.768-.371-.322 0-.574.124-.76.371-.193.256-.291.62-.291 1.088 0 .46.098.813.291 1.06.184.24.437.359.76.359.328 0 .585-.117.768-.354m-2.127.476c-.367-.387-.548-.902-.548-1.541 0-.647.181-1.168.548-1.564.352-.384.805-.575 1.359-.575.553 0 1.009.191 1.363.575.365.396.548.917.548 1.564 0 .64-.183 1.154-.548 1.541-.352.375-.807.564-1.363.564-.554 0-1.007-.189-1.359-.564M50.678 42.158c-.422 0-.793.143-1.114.428v2.982h-.852v-4.136h.519c.104 0 .18.034.228.101.053.073.088.202.101.389.317-.347.676-.52 1.076-.52.087 0 .17.014.253.04v.72l-.21-.004zM51.573 45.569v-4.136h.469c.162 0 .265.039.308.117.044.08.066.258.066.538v3.48h-.843zm.084-4.638c-.099-.096-.147-.212-.147-.349 0-.14.048-.26.147-.359.098-.098.213-.147.346-.147.13 0 .244.049.342.147.098.102.148.221.148.36 0 .136-.05.252-.148.348-.095.093-.209.14-.342.14-.133 0-.248-.047-.346-.14zM53.054 41.432h.468v-1.095h.844v1.095h.87v.647h-.87v2.353c0 .193.042.329.127.406.077.07.208.105.392.105h.393v.59c-.226.058-.446.088-.663.088-.728 0-1.093-.365-1.093-1.092v-2.45h-.468v-.647zM56.568 46.546L57.104 45.294 55.64 41.699 55.64 41.432 56.433 41.432 57.517 44.205 58.53 41.432 59.26 41.432 59.26 41.695 57.297 46.822 56.568 46.822zM64.525 44.581c.19-.247.283-.602.283-1.065 0-.472-.094-.835-.283-1.088-.185-.247-.442-.371-.768-.371-.32 0-.574.124-.76.371-.193.256-.29.62-.29 1.088 0 .46.097.813.29 1.06.184.24.437.359.76.359.329 0 .586-.117.768-.354m-2.127.476c-.366-.387-.548-.902-.548-1.541 0-.647.182-1.168.548-1.564.353-.384.805-.575 1.36-.575.553 0 1.008.191 1.363.575.365.396.547.917.547 1.564 0 .64-.182 1.154-.547 1.541-.352.375-.808.564-1.364.564-.554 0-1.006-.189-1.359-.564M66.06 41.432h.469v-.295c0-.75.367-1.124 1.102-1.124.23 0 .434.032.611.092v.577h-.372c-.17 0-.293.03-.366.09-.088.074-.131.205-.131.395v.265h.797v.647h-.797v3.49h-.844v-3.49h-.468v-.647zM70.668 44.839L73.41 40.756 70.875 40.756 70.875 40.04 74.381 40.04 74.381 40.782 71.646 44.856 74.343 44.856 74.343 45.569 70.668 45.569zM77.207 44.55v-.807c-.222-.05-.45-.074-.687-.074-.571 0-.856.218-.856.655 0 .224.064.394.193.51.121.106.285.158.495.158.305 0 .591-.148.855-.441zm.515 1.018c-.155 0-.267-.028-.338-.083-.07-.056-.119-.16-.147-.313-.304.299-.683.449-1.14.449-.376 0-.677-.107-.902-.32-.24-.223-.358-.537-.358-.939 0-.412.146-.731.438-.956.275-.208.647-.314 1.114-.314.287 0 .56.034.818.102v-.482c0-.431-.247-.646-.742-.646-.416 0-.77.109-1.06.327h-.294v-.655c.46-.242.942-.361 1.443-.361.497 0 .869.096 1.114.291.258.21.387.539.387.987v2.913h-.333zM79.874 43.258l1.531-1.826h.692v.298l-1.194 1.375c.146.242.37.604.667 1.088.296.48.515.842.662 1.088v.288h-.76l-1.143-1.852-.455.533v1.319h-.849V40.07h.461c.163 0 .268.035.315.105.049.07.073.225.073.463v2.62zM85.072 44.55v-.807c-.222-.05-.45-.074-.688-.074-.57 0-.857.218-.857.655 0 .224.066.394.195.51.12.106.285.158.494.158.306 0 .592-.148.856-.441zm.514 1.018c-.155 0-.266-.028-.337-.083-.07-.056-.12-.16-.148-.313-.304.299-.683.449-1.139.449-.377 0-.678-.107-.903-.32-.239-.223-.358-.537-.358-.939 0-.412.146-.731.438-.956.276-.208.647-.314 1.115-.314.286 0 .56.034.818.102v-.482c0-.431-.248-.646-.743-.646-.416 0-.768.109-1.06.327h-.294v-.655c.461-.242.942-.361 1.443-.361.498 0 .869.096 1.113.291.258.21.389.539.389.987v2.913h-.334zM86.531 41.432H87v-1.095h.843v1.095h.87v.647h-.87v2.353c0 .193.042.329.126.406.079.07.21.105.393.105h.393v.59c-.225.058-.446.088-.663.088-.728 0-1.092-.365-1.092-1.092v-2.45h-.469v-.647zM98.665 45.569L98.665 40.757 97.146 40.757 97.146 40.04 101.075 40.04 101.075 40.757 99.565 40.757 99.565 45.569zM103.901 44.55v-.807c-.222-.05-.45-.074-.687-.074-.572 0-.857.218-.857.655 0 .224.065.394.195.51.12.106.285.158.493.158.306 0 .592-.148.856-.441zm.514 1.018c-.155 0-.266-.028-.337-.083-.07-.056-.12-.16-.148-.313-.304.299-.682.449-1.138.449-.378 0-.678-.107-.903-.32-.24-.223-.359-.537-.359-.939 0-.412.146-.731.438-.956.276-.208.648-.314 1.115-.314.286 0 .56.034.818.102v-.482c0-.431-.248-.646-.743-.646-.416 0-.768.109-1.06.327h-.294v-.655c.461-.242.943-.361 1.444-.361.497 0 .868.096 1.113.291.258.21.388.539.388.987v2.913h-.334zM105.445 45.28l1.173-1.83-1.123-1.725v-.293h.778l.927 1.472.865-1.472h.693v.29l-1.039 1.697c.088.14.485.762 1.194 1.865v.285h-.768l-1.016-1.63-.97 1.63h-.714v-.29zM93.096 44.996c-.34 0-.602-.098-.784-.293-.163-.174-.245-.403-.245-.685 0-.431.2-.77.599-1.018l1.32 1.59c-.253.271-.55.406-.89.406zm.202-2.79c-.088.031-.176.054-.265.075-.169-.249-.253-.467-.253-.651 0-.21.066-.378.198-.503.046-.043.102-.068.158-.096.145-.04.277-.047.39-.002.142.058.245.182.307.37.122.366-.057.635-.535.807zm1.507 2.214c.281-.504.471-1.069.569-1.696v-.19h-.628c-.032.44-.15.902-.359 1.387l-1.021-1.218c.068-.017.136-.029.203-.052.392-.142.674-.341.847-.6.182-.276.216-.587.099-.933-.113-.338-.3-.565-.564-.681-.49-.215-1.123-.114-1.522.254-.255.235-.384.548-.384.934 0 .346.104.668.308.965-.705.328-1.06.829-1.06 1.498 0 .456.143.82.428 1.088.298.279.715.419 1.253.419.545 0 1.008-.193 1.388-.578l.447.534h.739v-.245l-.743-.886z" transform="translate(0 .054)"/>
            <path fill="#D19F2A" d="M143.227 45.633l.134-1.777c.056-1.12-.415-2.2-1.263-2.9l-3.64-3.017 9.794-8.341c1.004-.897 1.586-2.199 1.594-3.571l.011-1.577c0-.123-.139-.192-.23-.111L134.15 37.735c-.128.111-.128.315 0 .426l8.775 7.613c.119.097.294.016.302-.141M120.583 45.633l-.134-1.777c-.056-1.12.415-2.2 1.263-2.9l3.64-3.017-9.794-8.341c-1.005-.897-1.586-2.199-1.595-3.571l-.01-1.577c0-.123.138-.192.23-.111l15.476 13.396c.129.111.129.315 0 .426l-8.774 7.613c-.119.097-.294.016-.302-.141" transform="translate(0 .054)"/>
            <path fill="#FEFEFE" d="M147.091 11.353c-3.953-1.715-8.435-1.679-12.346.047 1.766-2.876 4.507-4.965 7.753-5.85l1.154-.315c.051-.014.071-.08.035-.12l-.754-.89c-.704-.827-1.832-1.116-2.825-.718-2.786 1.12-5.18 3.019-6.94 5.48V2.395c0-.367-.136-.72-.38-.985l-.36-.391c-.31-.336-.83-.336-1.139 0l-.359.39c-.245.266-.382.619-.382.986v6.49c-1.746-2.404-4.103-4.26-6.84-5.367-1.002-.405-2.14-.128-2.85.708l-.755.889c-.035.04-.016.106.035.12l1.155.316c3.247.884 5.986 2.973 7.753 5.85-3.913-1.727-8.393-1.763-12.347-.048-.981.427-1.595 1.452-1.543 2.552l.056 1.178c.003.055.06.088.108.061l1.039-.606c3.789-2.208 8.394-2.302 12.237-.372-2.374.573-4.587 1.706-6.47 3.32-.825.708-1.138 1.874-.776 2.919l.385 1.113c.017.052.082.066.119.026l.825-.893c2.1-2.27 4.872-3.706 7.87-4.095V30.88c0 .064.005.125.014.187l-6.791-5.877c-.19-.164-.48-.025-.48.231v1.729c0 1 .43 1.949 1.17 2.59l7.255 6.279c.104.09.253.09.357 0l7.255-6.279c.74-.641 1.169-1.59 1.169-2.59v-1.73c0-.255-.29-.395-.478-.23l-6.875 5.95c.015-.085.023-.172.023-.26V16.547c3.027.373 5.827 1.816 7.943 4.104l.826.893c.037.04.101.026.12-.026l.384-1.113c.361-1.045.05-2.21-.777-2.919-1.882-1.614-4.094-2.747-6.47-3.32 3.843-1.93 8.449-1.836 12.237.372l1.04.606c.047.027.105-.006.108-.06l.055-1.179c.053-1.1-.56-2.125-1.543-2.552" transform="translate(0 .054)"/>
        </g>
    </g>
</svg>
