<svg xmlns="http://www.w3.org/2000/svg" width="24" height="24" viewBox="0 0 24 24">
    <g fill="none" fill-rule="evenodd">
        <g fill-rule="nonzero">
            <g>
                <g>
                    <g>
                        <path fill="#006450" d="M19.5 0c.245 0 .45.177.492.41L20 .5V2h2.5c.245 0 .45.177.492.41L23 2.5v15c0 .138-.056.263-.146.354l-6 6c-.07.07-.162.12-.264.138L16.5 24h-15c-.276 0-.5-.224-.5-.5v-21c0-.276.224-.5.5-.5H4V.5c0-.276.224-.5.5-.5.245 0 .45.177.492.41L5 .5V2h4V.5c0-.276.224-.5.5-.5.245 0 .45.177.492.41L10 .5V2h4V.5c0-.276.224-.5.5-.5.245 0 .45.177.492.41L15 .5V2h4V.5c0-.276.224-.5.5-.5zM4 3H2v20h14v-5.5c0-.245.177-.45.41-.492L16.5 17H22V3h-2v2c0 .276-.224.5-.5.5-.245 0-.45-.177-.492-.41L19 5V3h-4v2c0 .276-.224.5-.5.5-.245 0-.45-.177-.492-.41L14 5V3h-4v2c0 .276-.224.5-.5.5-.245 0-.45-.177-.492-.41L9 5V3H5v2c0 .276-.224.5-.5.5-.245 0-.45-.177-.492-.41L4 5V3zm17.292 15H17v4.292L21.292 18zM8.354 16.146c.327.327.84.355 1.199.082l.093-.082c.196-.195.512-.195.708 0 .195.196.195.512 0 .708-.748.747-1.96.747-2.708 0-.327-.327-.84-.355-1.199-.082l-.093.082-1 1c-.196.195-.512.195-.708 0-.173-.174-.192-.443-.057-.638l.057-.07 1-1c.748-.747 1.96-.747 2.708 0z" transform="translate(-306 -461) translate(270 425) translate(24 24) translate(12 12)"/>
                        <path fill="#D99A29" d="M18.646 10.146c.196-.195.512-.195.708 0 .173.174.192.443.057.638l-.057.07-1 1c-.748.747-1.96.747-2.708 0-.356-.357-.936-.357-1.292 0-.748.747-1.96.747-2.708 0-.356-.357-.936-.357-1.292 0-.748.747-1.96.747-2.708 0-.327-.327-.84-.355-1.199-.082l-.093.082-1 1c-.196.195-.512.195-.708 0-.173-.174-.192-.443-.057-.638l.057-.07 1-1c.748-.747 1.96-.747 2.708 0 .356.357.936.357 1.292 0 .748-.747 1.96-.747 2.708 0 .356.357.936.357 1.292 0 .748-.747 1.96-.747 2.708 0 .327.327.84.355 1.199.082l.093-.082 1-1z" transform="translate(-306 -461) translate(270 425) translate(24 24) translate(12 12)"/>
                    </g>
                </g>
            </g>
        </g>
    </g>
</svg>
