<svg xmlns="http://www.w3.org/2000/svg" width="24" height="24" viewBox="0 0 24 24">
    <g fill="none" fill-rule="evenodd">
        <g fill="#999" fill-rule="nonzero">
            <g>
                <g>
                    <path d="M18.5 0c.245 0 .45.177.492.41L19 .5V10h1c.148 0 .287.066.381.176l.05.072 3.498 5.994.003.006c.03.053.05.11.06.167L24 16.5v7c0 .245-.177.45-.41.492L23.5 24H.5c-.245 0-.45-.177-.492-.41L0 23.5v-7l.007-.085c.005-.029.013-.057.023-.085l.038-.082.003-.006 3.497-5.994c.075-.128.201-.215.344-.24L4 10h1V.5c0-.245.177-.45.41-.492L5.5 0h13zm-11 17H1v6h22v-6h-6v.5c0 1.266-.951 2.319-2.175 2.479l-.161.016L14.5 20H10c-1.321 0-2.41-1.036-2.495-2.336L7.5 17.5V17zM18 1H6v13.5c0 .245-.177.45-.41.492L5.5 15c-.245 0-.45-.177-.492-.41L5 14.5V11h-.714l-2.917 5H8c.245 0 .45.177.492.41l.008.09v1c0 .775.599 1.42 1.356 1.493L10 19h4.5c.775 0 1.42-.599 1.493-1.356L16 17.5v-1c0-.245.177-.45.41-.492L16.5 16h6.13l-2.917-5H19v3.5c0 .276-.224.5-.5.5-.245 0-.45-.177-.492-.41L18 14.5V1zm-2.4 11c.22 0 .4.224.4.5 0 .245-.142.45-.328.492L15.6 13H8.4c-.22 0-.4-.224-.4-.5 0-.245.142-.45.328-.492L8.4 12h7.2zm0-3c.22 0 .4.224.4.5 0 .245-.142.45-.328.492L15.6 10H8.4c-.22 0-.4-.224-.4-.5 0-.245.142-.45.328-.492L8.4 9h7.2zm-.1-3c.276 0 .5.224.5.5s-.224.5-.5.5h-3c-.276 0-.5-.224-.5-.5s.224-.5.5-.5h3zm-6-3c.276 0 .5.224.5.5 0 .245-.177.45-.41.492L9.5 4h-1c-.276 0-.5-.224-.5-.5 0-.245.177-.45.41-.492L8.5 3h1z" transform="translate(-589 -306) translate(573 298) translate(16 8)"/>
                </g>
            </g>
        </g>
    </g>
</svg>
