<svg xmlns="http://www.w3.org/2000/svg" width="24" height="24" viewBox="0 0 24 24">
    <g fill="none" fill-rule="evenodd">
        <g fill="#D99A29" fill-rule="nonzero">
            <g>
                <g>
                    <path d="M11.694 0c.357 0 .713.016 1.066.05.306.028.532.305.504.62-.027.314-.298.546-.605.517-.32-.03-.641-.044-.965-.044-5.843 0-10.58 4.86-10.58 10.857 0 5.996 4.737 10.857 10.58 10.857 3.136 0 6.049-1.408 8.047-3.808.2-.24.552-.269.785-.064.234.205.262.566.062.806C18.38 22.443 15.16 24 11.694 24 5.235 24 0 18.627 0 12S5.235 0 11.694 0zm10.573 14.805l.112.047c.511.258.745.866.558 1.406l-.046.114c-.166.357-.498.598-.875.644l-.127.007c-.162-.002-.322-.041-.468-.114-.515-.254-.754-.863-.57-1.405l.047-.115c.247-.529.84-.773 1.369-.584zm-10.25-9.09c.273 0 .5.201.548.468l.009.103v6.854c.002.398-.131.783-.375 1.091l-.111.127-2.228 2.286c-.217.223-.57.223-.787 0-.194-.198-.215-.506-.065-.729l.065-.08 2.225-2.283c.084-.086.138-.197.155-.317l.007-.092V6.286c0-.316.25-.572.557-.572zm10.865 5.713l.12.007c.297.031.568.183.754.422.16.204.245.457.245.716l-.007.13c-.068.573-.54 1.005-1.103 1.006h-.19c-.55-.093-.942-.587-.932-1.147l.008-.121c.066-.582.546-1.012 1.105-1.013zm.35-3.289c.214.138.376.346.46.589l.034.124c.084.304.042.63-.116.9-.136.232-.346.405-.593.492l-.126.037-.122.008-.123-.008c-.522.002-.976-.369-1.091-.892h.033c-.074-.294-.032-.606.119-.868.129-.224.328-.395.563-.487l.12-.04c.288-.068.59-.016.841.145zm-1.559-3.306c.247.059.466.202.622.404l.073.106c.157.258.207.569.14.865-.057.254-.196.478-.394.638l-.103.075c-.142.09-.3.146-.466.164l-.124.007c-.408.026-.797-.18-1.013-.537h.066c-.157-.258-.207-.569-.14-.865.057-.253.196-.478.394-.638l.103-.074c.25-.161.554-.213.842-.145zM19.711 2.41l.106.076c.233.19.383.465.416.768.029.26-.03.52-.164.738l-.074.106c-.185.235-.453.383-.743.416l-.125.007c-.251-.002-.495-.09-.69-.252-.444-.364-.545-1.006-.253-1.491l.074-.109c.355-.455.981-.558 1.453-.259zM16.393.6l.117.035c.542.192.847.77.723 1.331l-.033.12c-.135.398-.47.685-.87.752l-.121.014c-.088.005-.177-.002-.263-.02l-.127-.037c-.288-.092-.527-.299-.663-.574-.117-.237-.15-.506-.095-.762l.034-.127c.191-.552.754-.86 1.298-.731z" transform="translate(-421 -306) translate(405 298) translate(16 8)"/>
                </g>
            </g>
        </g>
    </g>
</svg>
