<svg xmlns="http://www.w3.org/2000/svg" width="24" height="24" viewBox="0 0 24 24">
    <g fill="none" fill-rule="evenodd">
        <g fill-rule="nonzero">
            <g>
                <g>
                    <path fill="#D99A29" d="M5.5 16.5c-1.104 0-2 .896-2 2 0 1.105.896 2 2 2s2-.895 2-2c0-1.104-.896-2-2-2zm0 1c.552 0 1 .448 1 1s-.448 1-1 1-1-.448-1-1 .448-1 1-1z" transform="translate(-987 -461) translate(963 303) translate(24 158)"/>
                    <path fill="#006450" d="M20.5 0l-.079.006c-.103.017-.2.065-.275.14l-9.531 9.532-.182-.081c-2.776-1.181-6.046-.59-8.237 1.6-2.929 2.928-2.929 7.676 0 10.606 2.93 2.93 7.678 2.93 10.608 0l.2-.209c2.024-2.186 2.543-5.338 1.4-8.027l-.083-.182 2.886-2.886 1.293.001.09-.008c.233-.042.41-.247.41-.492V8.706l.206-.206H20.5l.09-.008c.233-.042.41-.247.41-.492V6.706l.207-.207L22.5 6.5l.09-.008c.233-.042.41-.247.41-.492V4.706l.854-.852c.093-.094.146-.221.146-.354v-3c0-.276-.224-.5-.5-.5h-3zM23 1v2.292l-.854.854-.05.06c-.062.085-.096.188-.096.294v.999L21 5.5c-.133 0-.26.053-.354.146l-.5.5-.05.06c-.062.085-.096.188-.096.294v.999L19 7.5c-.133 0-.26.053-.354.146l-.5.5-.05.06c-.062.085-.096.188-.096.294v.999L17 9.5c-.133 0-.26.053-.354.146l-3.283 3.283c-.154.154-.19.39-.09.584 1.291 2.493.84 5.566-1.177 7.583-2.538 2.54-6.654 2.54-9.192 0-2.54-2.54-2.54-6.655 0-9.192 2.016-2.017 5.09-2.469 7.584-1.177l.085.035c.174.052.367.007.499-.125L20.706 1H23z" transform="translate(-987 -461) translate(963 303) translate(24 158)"/>
                </g>
            </g>
        </g>
    </g>
</svg>
