<svg xmlns="http://www.w3.org/2000/svg" xmlns:xlink="http://www.w3.org/1999/xlink" width="24" height="24" viewBox="0 0 24 24">
    <defs>
        <filter id="hs21wlj2da" width="151.3%" height="151.6%" x="-25.6%" y="-38.7%" filterUnits="objectBoundingBox">
            <feOffset dy="-1" in="SourceAlpha" result="shadowOffsetOuter1"/>
            <feGaussianBlur in="shadowOffsetOuter1" result="shadowBlurOuter1" stdDeviation=".5"/>
            <feComposite in="shadowBlurOuter1" in2="SourceAlpha" operator="out" result="shadowBlurOuter1"/>
            <feColorMatrix in="shadowBlurOuter1" values="0 0 0 0 0 0 0 0 0 0 0 0 0 0 0 0 0 0 0.0909637238 0"/>
        </filter>
        <path id="3wtv1ka08b" d="M14 0h4.932C20.44 0 21.8 1.35 21.8 2.848v4.898L14 0z"/>
    </defs>
    <g fill="none" fill-rule="evenodd">
        <path fill="#E94848" d="M14 0l8 8v13.2c0 1.546-1.254 2.8-2.8 2.8H4.8C3.254 24 2 22.746 2 21.2V2.8C2 1.254 3.254 0 4.8 0H14z"/>
        <path fill="#FFF" fill-rule="nonzero" d="M11.633 8c-.51 0-.931.418-.931.925 0 .631.353 1.415.725 2.151-.29.904-.62 1.872-1.043 2.69-.863.336-1.633.586-2.096.956l-.02.024c-.17.171-.268.405-.268.656 0 .508.42.925.932.925.249 0 .49-.092.663-.269l.018-.014c.34-.404.742-1.137 1.1-1.807.826-.323 1.69-.65 2.525-.847.609.487 1.49.81 2.215.81.512 0 .932-.418.932-.926s-.42-.925-.932-.925c-.581 0-1.426.206-2.073.422-.523-.489-1.005-1.098-1.35-1.747.247-.756.535-1.512.535-2.099 0-.507-.42-.925-.931-.925zm0 .555c.21 0 .373.163.373.37 0 .278-.15.79-.323 1.339-.232-.535-.422-1.048-.422-1.339 0-.207.163-.37.373-.37zm.16 3.166c.28.443.609.855.967 1.22-.552.15-1.092.343-1.624.544.257-.577.463-1.175.658-1.764zm3.66 1.183c.21 0 .373.162.373.37s-.164.37-.373.37c-.42 0-1.016-.188-1.493-.451.547-.154 1.145-.29 1.493-.29zm-5.56 1.657c-.263.464-.523.897-.705 1.116-.062.059-.145.095-.256.095-.21 0-.373-.162-.373-.37 0-.098.042-.195.099-.257.219-.168.694-.37 1.234-.584z"/>
        <g transform="rotate(180 17.9 3.873)">
            <use fill="#000" filter="url(#hs21wlj2da)" xlink:href="#3wtv1ka08b"/>
            <use fill="#FFF" fill-opacity=".4" xlink:href="#3wtv1ka08b"/>
        </g>
    </g>
</svg>
