<svg xmlns="http://www.w3.org/2000/svg" width="24" height="24" viewBox="0 0 24 24">
    <g fill="none" fill-rule="evenodd">
        <g fill="#006450" fill-rule="nonzero">
            <g>
                <g>
                    <path d="M6.024 0C6.598 0 7.54.306 7.74.858l.333.931c.515 1.461 1.09 3.183 1.528 4.836.1.387-.01 1.52-.564 1.869l-1.91 1.212c-.13.08-.18.224-.202.332-.064.325.056.745.311 1.095.757 1.036 1.632 2.06 2.6 3.046.984.966 2.007 1.837 3.034 2.583.52.383 1.236.418 1.422.118l1.217-1.918c.314-.488 1.223-.593 1.547-.593.115 0 .214.01.3.028 2.476.553 3.946 1.027 5.827 1.88.584.264 1.002 1.526.732 2.213-.64 1.653-1.6 3.13-2.854 4.387-.266.263-.548.519-.843.763l-.44.351-.53.009c-4.666 0-9.498-2.156-13.257-5.915C2.045 14.138-.11 9.18.004 4.405l.004-.18.112-.142c.333-.422.661-.795 1.003-1.137C2.38 1.69 3.857.729 5.514.087 5.662.03 5.834 0 6.024 0zm0 1c-.07 0-.12.008-.149.02-1.528.591-2.886 1.476-4.044 2.632-.235.235-.464.487-.695.765l-.134.165L1 4.826c.018 4.247 1.937 8.637 5.372 12.219l.327.333c3.47 3.47 7.883 5.497 12.136 5.617l.399.005.187-.003.248-.2c.119-.1.236-.203.35-.308l.335-.318c1.155-1.158 2.04-2.518 2.631-4.046.085-.217-.142-.905-.214-.937-1.702-.772-3.044-1.218-5.187-1.714l-.44-.1c-.011-.002-.04-.005-.087-.005-.216 0-.517.072-.643.108l-.06.02-1.212 1.912c-.579.93-1.95.83-2.86.162-1.068-.777-2.129-1.68-3.157-2.69-1.001-1.02-1.907-2.08-2.696-3.158-.41-.562-.607-1.257-.484-1.877.067-.344.22-.66.513-.89l.134-.095 1.914-1.214c.037-.023.17-.612.129-.766-.444-1.676-1.025-3.437-1.833-5.68l-.107-.044C6.54 1.097 6.25 1 6.024 1z" transform="translate(-64 -587) translate(40 559) translate(24 28)"/>
                </g>
            </g>
        </g>
    </g>
</svg>
