<svg xmlns="http://www.w3.org/2000/svg" width="24" height="24" viewBox="0 0 24 24">
    <g fill="none" fill-rule="evenodd">
        <g fill-rule="nonzero">
            <g>
                <g>
                    <path fill="#006450" d="M21.286 12.087l.07.057 2.5 2.5c.173.174.192.443.057.638l-.057.07-7.502 7.502c-.06.06-.135.103-.217.127l-3.5 1c-.35.1-.676-.194-.634-.538l.016-.08 1-3.5c.004-.012.007-.024.012-.035.004-.014.01-.028.017-.041l.02-.04c.021-.035.047-.07.078-.1l7.502-7.503c.174-.173.443-.192.638-.057zM2.5 2c.276 0 .5.224.5.5 0 .245-.177.45-.41.492L2.5 3H1v20h9c.245 0 .45.177.492.41l.008.09c0 .245-.177.45-.41.492L10 24H.5c-.245 0-.45-.177-.492-.41L0 23.5v-21c0-.245.177-.45.41-.492L.5 2h2zm11.246 18.953l-.519 1.819 1.818-.52-1.299-1.299zM9.5 0c1.16 0 2.135.79 2.418 1.86l.032.14h2.55c.245 0 .45.177.492.41L15 2.5V4h1.5c.245 0 .45.177.492.41L17 4.5v8c0 .276-.224.5-.5.5-.245 0-.45-.177-.492-.41L16 12.5V5h-1v.5c0 .245-.177.45-.41.492L14.5 6h-10c-.276 0-.5-.224-.5-.5V5H3v16h7.5c.245 0 .45.177.492.41l.008.09c0 .245-.177.45-.41.492L10.5 22h-8c-.245 0-.45-.177-.492-.41L2 21.5v-17c0-.245.177-.45.41-.492L2.5 4H4V2.5c0-.245.177-.45.41-.492L4.5 2h2.55l.032-.139C7.352.841 8.25.076 9.336.005zm9.501 15.204l-4.795 4.795L16 21.792l4.795-4.795-1.793-1.793zm2.001-1.999l-1.294 1.292 1.793 1.793 1.294-1.292-1.793-1.793zM18.5 2c.245 0 .45.177.492.41L19 2.5v9c0 .276-.224.5-.5.5-.245 0-.45-.177-.492-.41L18 11.5V3h-1.5c-.245 0-.45-.177-.492-.41L16 2.5c0-.245.177-.45.41-.492L16.5 2h2zm-9-1C8.672 1 8 1.672 8 2.5c0 .276-.224.5-.5.5H5v2h9V3h-2.5c-.245 0-.45-.177-.492-.41L11 2.5c0-.828-.672-1.5-1.5-1.5z" transform="translate(-987 -396) translate(963 303) translate(24 93)"/>
                    <path fill="#D99A29" d="M10 15c.276 0 .5.224.5.5 0 .245-.177.45-.41.492L10 16H5.5c-.276 0-.5-.224-.5-.5 0-.245.177-.45.41-.492L5.5 15H10zm3.5-2c.276 0 .5.224.5.5 0 .245-.177.45-.41.492L13.5 14h-8c-.276 0-.5-.224-.5-.5 0-.245.177-.45.41-.492L5.5 13h8zm0-2c.276 0 .5.224.5.5 0 .245-.177.45-.41.492L13.5 12h-8c-.276 0-.5-.224-.5-.5 0-.245.177-.45.41-.492L5.5 11h8zm0-2c.276 0 .5.224.5.5 0 .245-.177.45-.41.492L13.5 10h-8c-.276 0-.5-.224-.5-.5 0-.245.177-.45.41-.492L5.5 9h8z" transform="translate(-987 -396) translate(963 303) translate(24 93)"/>
                </g>
            </g>
        </g>
    </g>
</svg>
