<svg xmlns="http://www.w3.org/2000/svg" width="24" height="24" viewBox="0 0 24 24">
    <g fill="none" fill-rule="evenodd">
        <g fill-rule="nonzero">
            <g>
                <g>
                    <g>
                        <path fill="#006450" d="M17.5 11c3.59 0 6.5 2.91 6.5 6.5S21.09 24 17.5 24 11 21.09 11 17.5s2.91-6.5 6.5-6.5zm-15-9c.276 0 .5.224.5.5 0 .245-.177.45-.41.492L2.5 3H1v20h10c.245 0 .45.177.492.41l.008.09c0 .245-.177.45-.41.492L11 24H.5c-.245 0-.45-.177-.492-.41L0 23.5v-21c0-.245.177-.45.41-.492L.5 2h2zm15 10c-3.038 0-5.5 2.462-5.5 5.5s2.462 5.5 5.5 5.5 5.5-2.462 5.5-5.5-2.462-5.5-5.5-5.5zm-8-12c1.099 0 2.032.709 2.367 1.694l.05.167.033.139h2.55c.215 0 .398.135.469.326l.023.084.008.09V4h1.5c.245 0 .45.177.492.41L17 4.5v5c0 .276-.224.5-.5.5-.245 0-.45-.177-.492-.41L16 9.5V5h-1v.5c0 .245-.177.45-.41.492L14.5 6h-10c-.245 0-.45-.177-.492-.41L4 5.5V5H3v16h7.5c.245 0 .45.177.492.41l.008.09c0 .245-.177.45-.41.492L10.5 22h-8c-.245 0-.45-.177-.492-.41L2 21.5v-17c0-.245.177-.45.41-.492L2.5 4H4V2.5c0-.245.177-.45.41-.492L4.5 2h2.55l.032-.139C7.337.898 8.152.161 9.156.023l.18-.018L9.5 0zm9 2c.245 0 .45.177.492.41L19 2.5v7c0 .276-.224.5-.5.5-.245 0-.45-.177-.492-.41L18 9.5V3h-1.5c-.245 0-.45-.177-.492-.41L16 2.5c0-.245.177-.45.41-.492L16.5 2h2zm-9-1C8.672 1 8 1.672 8 2.5c0 .245-.177.45-.41.492L7.5 3H5v2h9V3h-2.5c-.215 0-.398-.135-.469-.326l-.023-.084L11 2.5c0-.828-.672-1.5-1.5-1.5z" transform="translate(-306 -1077) translate(270 1041) translate(24 24) translate(12 12)"/>
                        <path fill="#D99A29" d="M20.854 15.146c.173.174.192.443.057.638l-.057.07-4 4c-.174.173-.443.192-.638.057l-.07-.057-2-2c-.195-.196-.195-.512 0-.708.174-.173.443-.192.638-.057l.07.057 1.646 1.647 3.646-3.647c.196-.195.512-.195.708 0zM10 15c.276 0 .5.224.5.5 0 .245-.177.45-.41.492L10 16H5.5c-.276 0-.5-.224-.5-.5 0-.245.177-.45.41-.492L5.5 15H10zm.5-2c.276 0 .5.224.5.5 0 .245-.177.45-.41.492L10.5 14h-5c-.276 0-.5-.224-.5-.5 0-.245.177-.45.41-.492L5.5 13h5zm1.5-2c.276 0 .5.224.5.5 0 .245-.177.45-.41.492L12 12H5.5c-.276 0-.5-.224-.5-.5 0-.245.177-.45.41-.492L5.5 11H12zm1.5-2c.276 0 .5.224.5.5 0 .245-.177.45-.41.492L13.5 10h-8c-.276 0-.5-.224-.5-.5 0-.245.177-.45.41-.492L5.5 9h8z" transform="translate(-306 -1077) translate(270 1041) translate(24 24) translate(12 12)"/>
                    </g>
                </g>
            </g>
        </g>
    </g>
</svg>
