<svg xmlns="http://www.w3.org/2000/svg" width="24" height="24" viewBox="0 0 24 24">
    <g fill="none" fill-rule="evenodd">
        <g fill-rule="nonzero">
            <g>
                <g>
                    <g>
                        <path fill="#D99A29" d="M15.784 5.089l.07.057 3 3 .011.013c.012.012.023.025.033.039l-.044-.052c.026.027.05.056.069.087l.02.035.02.041.014.04c.005.015.009.03.012.046l.006.033.005.052v.04l-.005.052L19 8.5c0 .036-.004.071-.011.105l-.012.046-.015.04c-.005.014-.012.027-.019.04-.006.013-.013.025-.02.036l-.012.017-.013.018c-.01.014-.02.027-.033.04l-.011.012-3 3c-.196.195-.512.195-.708 0-.173-.174-.192-.443-.057-.638l.057-.07L17.292 9H10.5c-.276 0-.5-.224-.5-.5 0-.245.177-.45.41-.492L10.5 8h6.792l-2.146-2.146c-.173-.174-.192-.443-.057-.638l.057-.07c.174-.173.443-.192.638-.057z" transform="translate(-306 -1415) translate(270 1379) translate(24 24) translate(12 12)"/>
                        <path fill="#006450" d="M12 0c6.627 0 12 5.372 12 12s-5.373 12-12 12C5.372 24 0 18.628 0 12S5.372 0 12 0zm0 1C5.924 1 1 5.924 1 12s4.924 11 11 11c6.075 0 11-4.924 11-11S18.075 1 12 1zM5.005 15.426l.006-.031.012-.046.015-.04c.005-.014.012-.027.019-.04.006-.013.013-.025.02-.036l.012-.017.013-.018c.01-.014.02-.027.033-.04l3.011-3.012c.196-.195.512-.195.708 0 .173.174.192.443.057.638l-.057.07L6.706 15H13.5c.276 0 .5.224.5.5 0 .245-.177.45-.41.492L13.5 16H6.706l2.148 2.146c.173.174.192.443.057.638l-.057.07c-.174.173-.443.192-.638.057l-.07-.057-3.011-3.013-.017-.019-.009-.01.026.029-.03-.035-.028-.04-.02-.034-.02-.041-.014-.04c-.005-.015-.009-.03-.012-.046l-.006-.03c-.003-.022-.004-.043-.005-.063V15.5l.005-.074z" transform="translate(-306 -1415) translate(270 1379) translate(24 24) translate(12 12)"/>
                    </g>
                </g>
            </g>
        </g>
    </g>
</svg>
