<?xml version="1.0" encoding="UTF-8"?>
<svg width="48px" height="48px" viewBox="0 0 48 48" version="1.1" xmlns="http://www.w3.org/2000/svg" xmlns:xlink="http://www.w3.org/1999/xlink">
    <title>6ECB7603-5CA4-413F-A10C-2853C56E6D02</title>
    <g id="VAT-Management" stroke="none" stroke-width="1" fill="none" fill-rule="evenodd">
    <circle xmlns="http://www.w3.org/2000/svg" cx="24" cy="24" r="24" fill="#006450" opacity=".1"/>
        <g id="Request-Change-Filling-Period-4" transform="translate(-295, -448)" fill-rule="nonzero">
            <g id="Group-3-Copy-3" transform="translate(270.000000, 425.000000)">
                <g id="Partials-/-Icon-/-Summary" transform="translate(24.000000, 24.000000)">
                    <g id="Icons-/-24px-/-Tax-/-Review-Details" transform="translate(12.000000, 12.000000)">
                        <path d="M14.499,-7.27595761e-12 L14.584,0.00699999999 L14.6660321,0.0283713194 L14.6981944,0.04081971 L14.7391668,0.06090986 L14.805052,0.103808328 L14.8412864,0.134588748 L20.881237,6.17647375 L20.917449,6.22479402 L20.9495327,6.28106119 L20.9718538,6.33419807 L20.9901703,6.40091624 L20.9980506,6.45627773 L21.000796,13.789703 C20.7366025,13.3020168 20.3984157,12.8602613 20.0012937,12.4794943 L20,7 L14.5,7 C14.2545401,7 14.0503916,6.82312484 14.0080557,6.58987563 L14,6.5 L14,0.999 L4,1 L4,23 L20.5,23 C20.7761424,23 21,23.2238576 21,23.5 C21,23.7761424 20.7761424,24 20.5,24 L3.5,24 C3.25454011,24 3.05039163,23.8231248 3.00805567,23.5898756 L3,23.5 L3,0.5 C3,0.254540111 3.17687516,0.0503916296 3.41012437,0.00805566941 L3.5,-7.27595761e-12 L14.499,-7.27595761e-12 Z M16.3199654,12 C18.705683,12 20.6399309,13.9342401 20.6399309,16.3199482 C20.6399309,17.3399049 20.2863889,18.2773422 19.6951745,19.0163911 L23.8594124,23.1805986 C24.0468625,23.368048 24.0468625,23.6719635 23.8594124,23.8594129 C23.69279,24.0260346 23.4341447,24.0445482 23.2470727,23.9149535 L23.1805953,23.8594129 L19.0164191,19.6951437 C18.2773673,20.2863558 17.3399262,20.6398963 16.3199654,20.6398963 C13.9342478,20.6398963 12,18.7056562 12,16.3199482 C12,13.9342401 13.9342478,12 16.3199654,12 Z M16.3199654,12.9599885 C14.464437,12.9599885 12.9599923,14.4644271 12.9599923,16.3199482 C12.9599923,18.1754692 14.464437,19.6799078 16.3199654,19.6799078 C18.1754939,19.6799078 19.6799386,18.1754692 19.6799386,16.3199482 C19.6799386,14.4644271 18.1754939,12.9599885 16.3199654,12.9599885 Z M15,1.706 L15,6 L19.294,6 L15,1.706 Z" id="Stroke-Primary" fill="#006450"></path>
                        <path d="M6.46543116,20 L12.4794997,20.0012651 C12.8605284,20.3986573 13.3026291,20.7370337 13.7907131,21.0013056 L6.46543116,21 C6.20838063,21 6,20.7761424 6,20.5 C6,20.2545401 6.16464642,20.0503916 6.38176932,20.0080557 L6.46543116,20 Z M6.47169812,17 L11.0431926,17.0010045 C11.0872241,17.3455284 11.1642134,17.6797547 11.2708985,18.0004214 L6.47169812,18 C6.21118645,18 6.00000001,17.7761424 6.00000001,17.5 C6.00000001,17.2545401 6.16686337,17.0503916 6.38690979,17.0080557 L6.47169812,17 Z M6.51136364,14 L11.5313123,13.9997708 C11.3773397,14.3169479 11.2539518,14.6517208 11.1649832,15.0002549 L6.51136364,15 C6.2289453,15 6,14.7761424 6,14.5 C6,14.2545401 6.18089505,14.0503916 6.41944538,14.0080557 L6.51136364,14 Z M11.4827586,11 C11.7684231,11 12,11.2238576 12,11.5 C12,11.7454599 11.8170257,11.9496084 11.5757334,11.9919443 L11.4827586,12 L6.51724138,12 C6.23157685,12 6,11.7761424 6,11.5 C6,11.2545401 6.1829743,11.0503916 6.42426659,11.0080557 L6.51724138,11 L11.4827586,11 Z" id="Stroke-Gold" fill="#D99A29"></path>
                    </g>
                </g>
            </g>
        </g>
    </g>
</svg>