<svg xmlns="http://www.w3.org/2000/svg" width="32" height="32" viewBox="0 0 32 32">
    <g fill="none" fill-rule="evenodd">
        <g fill-rule="nonzero">
            <g>
                <g>
                    <path fill="#D99A29" d="M7.333 22c-1.472 0-2.666 1.194-2.666 2.667 0 1.473 1.194 2.666 2.666 2.666 1.473 0 2.667-1.193 2.667-2.666C10 23.194 8.806 22 7.333 22zm0 1.333c.736 0 1.334.598 1.334 1.334 0 .736-.597 1.333-1.334 1.333C6.597 26 6 25.403 6 24.667s.598-1.334 1.333-1.334z" transform="translate(-978 -393) translate(962 337) translate(16 56)"/>
                    <path fill="#FFF" d="M27.333 0l-.105.008c-.138.022-.266.087-.366.187L14.153 12.904l-.242-.108C10.21 11.22 5.85 12.009 2.93 14.929c-3.906 3.904-3.906 10.235 0 14.141 3.905 3.907 10.237 3.907 14.142 0l.268-.278c2.699-2.914 3.39-7.117 1.865-10.702l-.11-.243 3.849-3.848 1.724.001.12-.01c.31-.057.546-.33.546-.657v-1.725l.275-.275h1.725l.12-.01c.311-.057.547-.33.547-.656V8.94l.276-.276L30 8.667l.12-.011c.31-.057.547-.329.547-.656V6.275l1.138-1.137c.125-.125.195-.295.195-.471v-4C32 .298 31.702 0 31.333 0h-4zm3.334 1.333V4.39l-1.138 1.14-.069.08c-.082.113-.127.25-.127.391v1.332L28 7.333c-.177 0-.346.07-.471.196l-.667.666-.068.08c-.082.113-.127.25-.127.392v1.332L25.333 10c-.176 0-.346.07-.471.195l-.667.667-.068.08c-.082.113-.127.25-.127.391v1.332l-1.333.002c-.177 0-.347.07-.472.195l-4.377 4.377c-.205.206-.254.52-.12.778 1.721 3.324 1.119 7.421-1.57 10.11-3.384 3.387-8.872 3.387-12.257 0-3.385-3.385-3.385-8.872 0-12.256 2.69-2.688 6.787-3.29 10.113-1.568l.114.046c.232.07.488.01.664-.167L27.608 1.333h3.059z" transform="translate(-978 -393) translate(962 337) translate(16 56)"/>
                </g>
            </g>
        </g>
    </g>
</svg>
