<svg xmlns="http://www.w3.org/2000/svg" xmlns:xlink="http://www.w3.org/1999/xlink" width="206" height="136" viewBox="0 0 206 136">
    <defs>
        <linearGradient id="25aeqnlx3c" x1="3.154%" x2="84.655%" y1="28.207%" y2="66.034%">
            <stop offset="0%" stop-color="#009D88"/>
            <stop offset="100%" stop-color="#006450"/>
        </linearGradient>
        <linearGradient id="miwg2scfje" x1="50%" x2="50%" y1="0%" y2="100%">
            <stop offset="0%" stop-color="#8FD3C6"/>
            <stop offset="100%" stop-color="#56A894"/>
        </linearGradient>
        <filter id="qgqd3v32ja" width="106.8%" height="110.3%" x="-3.4%" y="-3.7%" filterUnits="objectBoundingBox">
            <feOffset dy="2" in="SourceAlpha" result="shadowOffsetOuter1"/>
            <feGaussianBlur in="shadowOffsetOuter1" result="shadowBlurOuter1" stdDeviation="2"/>
            <feColorMatrix in="shadowBlurOuter1" values="0 0 0 0 0.137254902 0 0 0 0 0.137254902 0 0 0 0 0.137254902 0 0 0 0.1 0"/>
        </filter>
        <rect id="dqrqpf548b" width="206" height="136" x="0" y="0" rx="14"/>
        <path id="e0nzw925ud" d="M14 0h178c7.732 0 14 6.268 14 14v108c0 7.732-6.268 14-14 14H14c-7.732 0-14-6.268-14-14V14C0 6.268 6.268 0 14 0z"/>
    </defs>
    <g fill="none" fill-rule="evenodd">
        <g>
            <g transform="translate(-962 -337) translate(962 337)">
                <use fill="#000" fill-rule="nonzero" filter="url(#qgqd3v32ja)" xlink:href="#dqrqpf548b"/>
                <path fill="url(#25aeqnlx3c)" fill-rule="nonzero" d="M14 0h178c7.732 0 14 6.268 14 14v108c0 7.732-6.268 14-14 14H14c-7.732 0-14-6.268-14-14V14C0 6.268 6.268 0 14 0z"/>
                <g>
                    <mask id="mzzxzf3naf" fill="#fff">
                        <use xlink:href="#e0nzw925ud"/>
                    </mask>
                    <path stroke="url(#miwg2scfje)" stroke-width="70" d="M60.544 11.419c12.636-2.016 26.042.788 37.221 8.89 3.672 2.662 6.965 5.81 9.788 9.36h0l67.773 85.206c8.595 10.806 11.996 24.072 10.548 36.786-1.45 12.714-7.748 24.875-18.554 33.47C158.472 192.17 147.5 196 136.195 196h0H6.666c-13.807 0-26.307-5.596-35.355-14.645-9.048-9.048-14.645-21.548-14.645-35.355 0-10.54 3.33-20.81 9.516-29.343h0l61.756-85.206c8.103-11.179 19.97-18.016 32.606-20.032z" mask="url(#mzzxzf3naf)" opacity=".104"/>
                </g>
            </g>
        </g>
    </g>
</svg>
