<svg xmlns="http://www.w3.org/2000/svg" xmlns:xlink="http://www.w3.org/1999/xlink" width="207" height="104" viewBox="0 0 207 104">
    <defs>
        <linearGradient id="huduegtgmc" x1="3.154%" x2="84.655%" y1="37.379%" y2="59.286%">
            <stop offset="0%" stop-color="#009D88"/>
            <stop offset="100%" stop-color="#006450"/>
        </linearGradient>
        <linearGradient id="43u0k5kyqe" x1="50%" x2="50%" y1="0%" y2="100%">
            <stop offset="0%" stop-color="#8FD3C6"/>
            <stop offset="100%" stop-color="#56A894"/>
        </linearGradient>
        <filter id="9rlqy8zrra" width="106.8%" height="113.5%" x="-3.4%" y="-4.8%" filterUnits="objectBoundingBox">
            <feOffset dy="2" in="SourceAlpha" result="shadowOffsetOuter1"/>
            <feGaussianBlur in="shadowOffsetOuter1" result="shadowBlurOuter1" stdDeviation="2"/>
            <feColorMatrix in="shadowBlurOuter1" values="0 0 0 0 0.137254902 0 0 0 0 0.137254902 0 0 0 0 0.137254902 0 0 0 0.1 0"/>
        </filter>
        <rect id="7suw72s36b" width="207" height="104" x="0" y="0" rx="14"/>
        <path id="7lgsflimad" d="M14 0h179c7.732 0 14 6.268 14 14v76c0 7.732-6.268 14-14 14H14c-7.732 0-14-6.268-14-14V14C0 6.268 6.268 0 14 0z"/>
    </defs>
    <g fill="none" fill-rule="evenodd">
        <use fill="#000" fill-rule="nonzero" filter="url(#9rlqy8zrra)" xlink:href="#7suw72s36b"/>
        <path fill="url(#huduegtgmc)" fill-rule="nonzero" d="M14 0h179c7.732 0 14 6.268 14 14v76c0 7.732-6.268 14-14 14H14c-7.732 0-14-6.268-14-14V14C0 6.268 6.268 0 14 0z"/>
        <mask id="rqupfrpl8f" fill="#fff">
            <use xlink:href="#7lgsflimad"/>
        </mask>
        <path stroke="url(#43u0k5kyqe)" stroke-width="70" d="M67.472-1.224C80.28-1.536 93.207 3.044 103.21 12.59h0l62.085 59.4c9.976 9.545 15.14 22.23 15.422 35.023.282 12.793-4.315 25.694-13.86 35.67-9.433 9.859-22.484 15.435-36.128 15.435h0-118.57c-13.807 0-26.307-5.597-35.355-14.645-9.049-9.048-14.645-21.548-14.645-35.355 0-12.84 4.939-25.186 13.793-34.483h0l56.532-59.357C42.006 4.28 54.679-.912 67.472-1.224z" mask="url(#rqupfrpl8f)" opacity=".104"/>
    </g>
</svg>
