<svg xmlns="http://www.w3.org/2000/svg" xmlns:xlink="http://www.w3.org/1999/xlink" width="208" height="40" viewBox="0 0 208 40">
    <defs>
        <filter id="1q6xq0bh7a" width="135%" height="135%" x="-17.5%" y="-12.5%" filterUnits="objectBoundingBox">
            <feOffset dy="2" in="SourceAlpha" result="shadowOffsetOuter1"/>
            <feGaussianBlur in="shadowOffsetOuter1" result="shadowBlurOuter1" stdDeviation="2"/>
            <feColorMatrix in="shadowBlurOuter1" values="0 0 0 0 0.137254902 0 0 0 0 0.137254902 0 0 0 0 0.137254902 0 0 0 0.1 0"/>
        </filter>
        <filter id="yr8rfsb6xc" width="135%" height="135%" x="-17.5%" y="-12.5%" filterUnits="objectBoundingBox">
            <feOffset dy="2" in="SourceAlpha" result="shadowOffsetOuter1"/>
            <feGaussianBlur in="shadowOffsetOuter1" result="shadowBlurOuter1" stdDeviation="2"/>
            <feColorMatrix in="shadowBlurOuter1" values="0 0 0 0 0.137254902 0 0 0 0 0.137254902 0 0 0 0 0.137254902 0 0 0 0.1 0"/>
        </filter>
        <filter id="hwmvtd1yxe" width="135%" height="135%" x="-17.5%" y="-12.5%" filterUnits="objectBoundingBox">
            <feOffset dy="2" in="SourceAlpha" result="shadowOffsetOuter1"/>
            <feGaussianBlur in="shadowOffsetOuter1" result="shadowBlurOuter1" stdDeviation="2"/>
            <feColorMatrix in="shadowBlurOuter1" values="0 0 0 0 0.137254902 0 0 0 0 0.137254902 0 0 0 0 0.137254902 0 0 0 0.1 0"/>
        </filter>
        <filter id="8v33svz9ig" width="135%" height="135%" x="-17.5%" y="-12.5%" filterUnits="objectBoundingBox">
            <feOffset dy="2" in="SourceAlpha" result="shadowOffsetOuter1"/>
            <feGaussianBlur in="shadowOffsetOuter1" result="shadowBlurOuter1" stdDeviation="2"/>
            <feColorMatrix in="shadowBlurOuter1" values="0 0 0 0 0.137254902 0 0 0 0 0.137254902 0 0 0 0 0.137254902 0 0 0 0.1 0"/>
        </filter>
        <circle id="plsqjhymlb" cx="20" cy="20" r="20"/>
        <circle id="4w0hk8hs4d" cx="20" cy="20" r="20"/>
        <circle id="o9s4ti40mf" cx="20" cy="20" r="20"/>
        <circle id="bfaok0s0hh" cx="20" cy="20" r="20"/>
    </defs>
    <g fill="none" fill-rule="evenodd">
        <g>
            <g>
                <g fill-rule="nonzero">
                    <g transform="translate(-962 -320) translate(962 320)">
                        <use fill="#000" filter="url(#1q6xq0bh7a)" xlink:href="#plsqjhymlb"/>
                        <circle cx="20" cy="20" r="20" fill="#006450"/>
                        <circle cx="20" cy="20" r="20"/>
                    </g>
                    <g fill="#FFF">
                        <path d="M23.19 3.136c.193-.19.497-.18.679.02.162.18.173.449.038.64l-.057.068-17.28 17c-.166.163-.415.18-.598.051l-.073-.064-5.76-6.071c-.187-.196-.185-.513.004-.707.167-.173.426-.19.612-.054l.066.058 5.43 5.723L23.19 3.136z" transform="translate(-962 -320) translate(962 320) translate(8 8)"/>
                    </g>
                </g>
                <g>
                    <g fill-rule="nonzero" transform="translate(-962 -320) translate(962 320) translate(56)">
                        <use fill="#000" filter="url(#yr8rfsb6xc)" xlink:href="#4w0hk8hs4d"/>
                        <circle cx="20" cy="20" r="20" fill="#006450"/>
                        <circle cx="20" cy="20" r="20"/>
                    </g>
                    <text fill="#FFF" font-family="SST-Medium, SST" font-size="16" font-weight="400" transform="translate(-962 -320) translate(962 320) translate(56)">
                        <tspan x="16.148" y="24">2</tspan>
                    </text>
                </g>
                <g>
                    <g fill-rule="nonzero" transform="translate(-962 -320) translate(962 320) translate(112)">
                        <use fill="#000" filter="url(#hwmvtd1yxe)" xlink:href="#o9s4ti40mf"/>
                        <circle cx="20" cy="20" r="20" fill="#FFF"/>
                        <circle cx="20" cy="20" r="20"/>
                    </g>
                    <text fill="#999" font-family="SST-Roman, SST" font-size="16" transform="translate(-962 -320) translate(962 320) translate(112)">
                        <tspan x="16.236" y="24">3</tspan>
                    </text>
                </g>
                <path fill="#EBEBEB" fill-rule="nonzero" d="M40 20H56V21H40zM96 20H112V21H96z" transform="translate(-962 -320) translate(962 320)"/>
                <g>
                    <g fill-rule="nonzero" transform="translate(-962 -320) translate(962 320) translate(168)">
                        <use fill="#000" filter="url(#8v33svz9ig)" xlink:href="#bfaok0s0hh"/>
                        <circle cx="20" cy="20" r="20" fill="#FFF"/>
                        <circle cx="20" cy="20" r="20"/>
                    </g>
                    <text fill="#999" font-family="SST-Roman, SST" font-size="16" transform="translate(-962 -320) translate(962 320) translate(168)">
                        <tspan x="15.836" y="24">4</tspan>
                    </text>
                </g>
                <path fill="#EBEBEB" fill-rule="nonzero" d="M152 20H168V21H152z" transform="translate(-962 -320) translate(962 320)"/>
            </g>
        </g>
    </g>
</svg>
