<svg xmlns="http://www.w3.org/2000/svg" width="28" height="24" viewBox="0 0 28 24">
    <g fill="#006450">
        <path d="M23.79 7.013c.186-.148.474-.136.643.025.15.144.157.358.026.508l-.055.052-15.46 12.298c-.153.123-.378.137-.548.043l-.07-.046-5.913-4.84c-.183-.15-.192-.402-.02-.561.153-.142.397-.164.578-.062l.065.044 5.606 4.589L23.79 7.013z" transform="translate(.156)"/>
        <path d="M23.79 2.104c.186-.148.474-.137.643.025.15.144.157.358.026.508l-.055.052-15.46 12.298c-.153.122-.378.136-.548.043l-.07-.047-5.913-4.84c-.183-.15-.192-.4-.02-.56.153-.142.397-.164.578-.062l.065.044 5.606 4.589L23.79 2.104z" transform="translate(.156)"/>
    </g>
</svg>
