<svg xmlns="http://www.w3.org/2000/svg" width="113" height="112" viewBox="0 0 113 112">
    <g fill="none" fill-rule="evenodd">
        <path fill="#006450" fill-rule="nonzero" d="M115.18 36.087c.498.418.563 1.16.145 1.659-.418.498-1.161.563-1.66.145-22.755-19.094-56.68-16.126-75.774 6.63-19.094 22.755-16.126 56.68 6.63 75.774 22.755 19.094 56.68 16.125 75.774-6.63.418-.498 1.16-.563 1.659-.145.498.418.563 1.161.145 1.66-19.93 23.751-55.341 26.85-79.093 6.92-23.751-19.93-26.85-55.342-6.92-79.094 19.93-23.751 55.342-26.85 79.093-6.92z" transform="translate(-22 -23)"/>
        <path fill="#D99A29" fill-rule="nonzero" d="M128.408 103.389c-.589-.275-.844-.976-.57-1.566 1.235-2.647 2.246-5.366 3.031-8.137 2.942-10.387 2.65-21.343-.721-31.513-.205-.617.13-1.284.747-1.489.617-.204 1.284.13 1.488.748 3.52 10.613 3.824 22.052.753 32.896-.82 2.892-1.874 5.73-3.162 8.491-.275.59-.976.845-1.566.57z" transform="translate(-22 -23)"/>
        <path fill="#95D600" d="M112.02 59.409c.464-.456 1.21-.45 1.666.013.426.433.45 1.112.073 1.571l-.086.095-47.39 46.617c-.44.434-1.133.449-1.59.056l-.095-.09L46.04 87.83c-.444-.475-.42-1.22.056-1.665.443-.415 1.122-.42 1.572-.034l.092.09 17.732 18.957 46.529-45.77z" transform="translate(-22 -23)"/>
    </g>
</svg>
