<svg xmlns="http://www.w3.org/2000/svg" width="25" height="25" viewBox="0 0 25 25">
    <path fill="#006450" d="M23.5 17c.245 0 .45.177.492.41l.008.09v5c0 .245-.177.45-.41.492L23.5 23H.5c-.245 0-.45-.177-.492-.41L0 22.5v-5c0-.245.177-.45.41-.492L.5 17h23zm-.5 1H1v4h22v-4zm.5-9c.245 0 .45.177.492.41L24 9.5v5c0 .245-.177.45-.41.492L23.5 15H.5c-.245 0-.45-.177-.492-.41L0 14.5v-5c0-.245.177-.45.41-.492L.5 9h23zm-.5 1H1v4h22v-4zm.5-9c.245 0 .45.177.492.41L24 1.5v5c0 .245-.177.45-.41.492L23.5 7H.5c-.245 0-.45-.177-.492-.41L0 6.5v-5c0-.245.177-.45.41-.492L.5 1h23zM23 2H1v4h22V2z"/>
</svg>
