<svg xmlns="http://www.w3.org/2000/svg" width="32" height="32" viewBox="0 0 32 32">
    <g fill="none" fill-rule="evenodd">
        <g fill-rule="nonzero">
            <g>
                <g>
                    <g>
                        <path fill="#006450" d="M22.55 4.5c1.868 0 3.394 1.464 3.494 3.308L26.05 8v2.172h2.42c1.326 0 2.41 1.032 2.495 2.336l.005.165v12.37h1.972c.276 0 .5.224.5.5 0 .246-.177.45-.41.492l-.09.008H1c-.276 0-.5-.224-.5-.5 0-.245.177-.45.41-.492l.09-.008h3.948V14.351c0-1.868 1.464-3.395 3.308-3.495l.192-.005h1.915V8c0-1.869 1.465-3.395 3.308-3.495l.192-.005h8.686zm5.92 6.673l-2.421-.001v13.871h3.92v-12.37c0-.78-.595-1.42-1.355-1.493l-.145-.007zM22.55 5.5h-8.687c-1.325 0-2.41 1.032-2.494 2.336L11.363 8v17.043h7.923v-2.16c0-.78.595-1.421 1.356-1.494l.144-.007h.98c.78 0 1.42.595 1.493 1.356l.006.144v2.161h1.784V8c0-1.325-1.031-2.41-2.335-2.495l-.165-.005zm-12.187 6.351H8.448c-1.325 0-2.41 1.032-2.495 2.336l-.005.164v10.692h4.415V11.851zm11.402 10.531h-.979c-.245 0-.45.177-.492.41l-.008.09v2.161h1.979v-2.16c0-.246-.176-.45-.41-.493l-.09-.008zm-12.343-.5c.277 0 .5.224.5.5 0 .246-.176.45-.41.493l-.09.008h-2.4c-.276 0-.5-.224-.5-.5 0-.246.177-.45.41-.492l.09-.008h2.4zm19.578 0c.276 0 .5.224.5.5 0 .246-.177.45-.41.493l-.09.008h-1.6c-.276 0-.5-.224-.5-.5 0-.246.177-.45.41-.492l.09-.008H29zm0-1.58c.276 0 .5.224.5.5 0 .246-.177.45-.41.492l-.09.008h-1.6c-.276 0-.5-.223-.5-.5 0-.245.177-.45.41-.492l.09-.008H29zm-19.578-4.74c.277 0 .5.224.5.5 0 .245-.176.45-.41.492l-.09.008h-2.4c-.276 0-.5-.224-.5-.5 0-.246.177-.45.41-.492l.09-.008h2.4zm12.978-2.66c.552 0 1 .447 1 1v1.16c0 .552-.448 1-1 1H14c-.552 0-1-.448-1-1v-1.16c0-.553.448-1 1-1h8.4zm0 1H14v1.16h8.4v-1.16zm-12.978.08c.277 0 .5.223.5.5 0 .245-.176.449-.41.491l-.09.008h-2.4c-.276 0-.5-.223-.5-.5 0-.245.177-.45.41-.492l.09-.008h2.4zM29 13.821c.276 0 .5.224.5.5 0 .245-.177.45-.41.492l-.09.008h-1.6c-.276 0-.5-.224-.5-.5 0-.246.177-.45.41-.492l.09-.008H29zm-6.13-3.791c.276 0 .5.224.5.5 0 .245-.177.45-.41.492l-.09.008h-9.266c-.276 0-.5-.224-.5-.5 0-.246.177-.45.41-.492l.09-.008h9.266zm0-2.37c.276 0 .5.223.5.5 0 .245-.177.45-.41.491l-.09.008h-9.266c-.276 0-.5-.223-.5-.5 0-.245.177-.45.41-.491l.09-.009h9.266z" transform="translate(-63 -996) translate(40 899) translate(23 89) translate(0 8)"/>
                        <path fill="#D99A29" d="M22.4 16.852c.552 0 1 .448 1 1v1.16c0 .553-.448 1-1 1H14c-.552 0-1-.447-1-1v-1.16c0-.552.448-1 1-1h8.4zm0 1H14v1.16h8.4v-1.16z" transform="translate(-63 -996) translate(40 899) translate(23 89) translate(0 8)"/>
                    </g>
                </g>
            </g>
        </g>
    </g>
</svg>
