<svg xmlns="http://www.w3.org/2000/svg" width="24" height="24" viewBox="0 0 24 24">
    <g fill="none" fill-rule="evenodd">
        <g fill-rule="nonzero">
            <g>
                <g>
                    <g>
                        <path fill="#D99A29" d="M15 14h-5c-.276 0-.5.224-.5.5v9c0 .276.224.5.5.5h5c.276 0 .5-.224.5-.5v-9c0-.276-.224-.5-.5-.5zm-.5 1v8h-4v-8h4z" transform="translate(-306 -743) translate(270 719) translate(24 12) translate(12 12)"/>
                        <path fill="#006450" d="M.033 6.32h.001l.005-.013-.006.013.006-.013.014-.03 2-4c.07-.142.202-.24.354-.268L2.5 2h19c.158 0 .304.074.398.197l.05.08 2 4c.004.01.01.02.013.03l.011.028c.008.021.013.042.018.063l.004.031v-.013c.003.023.006.045.006.067V7.5c0 1.483-.85 2.66-2 3.18V23.5c0 .245-.177.45-.41.492L21.5 24h-19c-.245 0-.45-.177-.492-.41L2 23.5V10.676C.942 10.198.136 9.165.016 7.845l-.012-.177L0 7.5V6.486c0-.023.002-.046.006-.07l.005-.02.016-.06.006-.015V6.32zm5.38 3.916l-.116.086c-.74.52-1.544.704-2.297.625V23h18V10.951c-.7.073-1.445-.083-2.144-.526l-.15-.1-.12-.088-.036.046c-1.592 1.928-4.373 2.28-6.299.779l-.178-.146-.073-.068-.074.069c-1.874 1.623-4.665 1.364-6.325-.46l-.152-.176-.036-.045zM18 7h-5.5v2.944c1.559 1.6 4.145 1.326 5.458-.532L18 9.347V7zm-6.5 0H6v2.35c1.29 1.9 3.905 2.217 5.485.61l.015-.017V7zM23 7h-4v2.284c1.675 1.476 3.888.358 3.996-1.632L23 7.5V7zM5 7H1v.5c0 2.044 2.2 3.24 3.894 1.873l.128-.109L5 9.282V7zm.859-4h-3.05l-1.5 3h3.8l.75-3zM11.5 3H6.89l-.75 3h5.36V3zm5.609 0H12.5v3h5.359l-.75-3zm4.081 0h-3.05l.75 3h3.8l-1.5-3z" transform="translate(-306 -743) translate(270 719) translate(24 12) translate(12 12)"/>
                    </g>
                </g>
            </g>
        </g>
    </g>
</svg>
