<svg xmlns="http://www.w3.org/2000/svg" width="61" height="24" viewBox="0 0 61 24">
    <defs>
        <filter id="pu7vgmrepa">
            <feColorMatrix in="SourceGraphic" values="0 0 0 0 0.000000 0 0 0 0 0.392309 0 0 0 0 0.305337 0 0 0 1.000000 0"/>
        </filter>
    </defs>
    <g fill="none" fill-rule="evenodd">
        <g>
            <g>
                <text fill="#006450" font-family="SST-Bold, SST" font-size="16" font-weight="bold" transform="translate(-270 -240) translate(264 240)">
                    <tspan x="31" y="17">Back</tspan>
                </text>
                <g filter="url(#pu7vgmrepa)" transform="translate(-270 -240) translate(264 240)">
                    <path fill="#006450" fill-rule="nonzero" d="M6.108 2.14c.139-.153.368-.182.542-.08l.063.045 11.142 9.583c.172.147.19.395.058.564l-.058.06-11.142 9.583c-.178.153-.449.137-.605-.036-.14-.153-.142-.378-.017-.533l.054-.055L16.925 12 6.144 2.73c-.158-.136-.189-.359-.083-.528l.046-.06z" transform="rotate(-180 12 12)"/>
                </g>
            </g>
        </g>
    </g>
</svg>
