<svg xmlns="http://www.w3.org/2000/svg" width="24" height="24" viewBox="0 0 24 24">
    <path fill="#999" d="M18.089 6.508l.087.024 4 1.5.022.009c.011.005.023.01.033.016l-.055-.025c.032.012.063.027.092.045.014.01.03.02.044.032l.023.02c.1.09.165.22.165.371v10c0 .19-.107.363-.276.447l-10 5c-.141.07-.307.07-.448 0l-10-5c-.169-.084-.276-.258-.276-.447v-10c0-.15.065-.281.165-.371l.023-.02.045-.032.01-.006.026-.014c.01-.006.022-.011.033-.016l.022-.01 4-1.5c.259-.096.547.035.644.293.086.23-.008.484-.211.605l-.081.04-2.792 1.046L12 11.961l8.615-3.446-2.79-1.047c-.26-.097-.39-.385-.293-.644.086-.23.323-.358.557-.316zM2.5 9.238v8.953l9 4.499v-9.852l-9-3.6zm19 0l-9 3.6v9.852l9-4.5V9.238zM16.376.171c.162.184.163.455.016.64l-.063.065L12.76 4l3.57 3.124.063.065c.147.185.146.456-.016.64-.182.208-.497.23-.705.047L12 4.664 8.33 7.876c-.209.182-.524.161-.706-.047-.162-.184-.163-.455-.016-.64l.063-.065 3.569-3.125L7.67.876 7.609.811c-.147-.185-.146-.456.016-.64.182-.208.497-.23.705-.047L12 3.335 15.67.124c.209-.182.524-.161.706.047z"/>
</svg>
