<svg xmlns="http://www.w3.org/2000/svg" width="24" height="24" viewBox="0 0 24 24">
    <g fill="none">
        <path fill="#006450" d="M15.18 11.5l.086.017C20.393 13.02 24 17.892 24 23.502c0 .275-.215.498-.48.498s-.48-.223-.48-.498c0-5.161-3.318-9.645-8.035-11.026-.255-.075-.403-.35-.331-.615.056-.206.228-.345.422-.361h.085zm-5.948.385c.074.264-.072.54-.327.618C4.234 13.915.96 18.376.96 23.502c0 .275-.215.498-.48.498S0 23.777 0 23.502c0-5.572 3.558-10.42 8.637-11.956.254-.077.52.075.595.339z"/>
        <path fill="#D99A29" d="M12 0C8.41 0 5.5 2.91 5.5 6.5S8.41 13 12 13s6.5-2.91 6.5-6.5S15.59 0 12 0zm0 1c3.038 0 5.5 2.462 5.5 5.5S15.038 12 12 12 6.5 9.538 6.5 6.5 8.962 1 12 1z"/>
    </g>
</svg>
