<svg xmlns="http://www.w3.org/2000/svg" width="32" height="32" viewBox="0 0 32 32">
    <g fill="none">
        <path fill="#D99A29" d="M27.852 18.153c.031 0 .056.016.075.048l.583.974h.01l.58-.974c.02-.032.045-.048.077-.048h.511c.041 0 .05.02.028.061l-.89 1.491.961 1.605c.022.041.012.062-.028.062h-.516c-.032 0-.057-.016-.076-.048l-.648-1.093h-.01l-.652 1.093c-.02.032-.045.048-.077.048h-.51c-.042 0-.051-.02-.029-.062l.96-1.605-.888-1.49c-.022-.041-.013-.062.028-.062h.511zm-3.479 0c.031 0 .047.016.047.048v.406c0 .032-.016.048-.047.048h-.843c-.018 0-.028.009-.028.029v2.64c0 .032-.016.048-.047.048h-.464c-.031 0-.047-.016-.047-.048v-2.64c0-.02-.01-.029-.03-.029h-.841c-.031 0-.047-.016-.047-.048v-.406c0-.032.016-.048.047-.048h2.3zm1.553 0c.031 0 .052.016.062.048l1.088 3.123c.009.032-.003.048-.034.048h-.463c-.032 0-.052-.016-.062-.048l-.212-.625h-1.212l-.213.625c-.01.032-.03.048-.062.048h-.459c-.032 0-.043-.016-.033-.048l1.102-3.123c.01-.032.03-.048.062-.048h.436zm-.219.8h-.014l-.43 1.25h.87l-.426-1.25zM13.4 9.6c1.908 0 3.379 2.037 3.379 4.486S15.308 18.57 13.4 18.57s-3.379-2.036-3.379-4.485c0-2.45 1.471-4.486 3.379-4.486zm0 1c-1.272 0-2.379 1.532-2.379 3.486 0 1.953 1.107 3.485 2.379 3.485s2.379-1.532 2.379-3.485c0-1.954-1.107-3.486-2.379-3.486zm-5.314 1.879c.887 0 1.607.72 1.607 1.607s-.72 1.607-1.607 1.607c-.888 0-1.607-.72-1.607-1.607 0-.888.72-1.607 1.607-1.607zm10.628 0c.888 0 1.607.72 1.607 1.607s-.72 1.607-1.607 1.607-1.607-.72-1.607-1.607c0-.888.72-1.607 1.607-1.607zm-10.628 1c-.336 0-.607.271-.607.607 0 .335.271.607.607.607.335 0 .607-.272.607-.607 0-.336-.272-.607-.607-.607zm10.628 0c-.335 0-.607.271-.607.607 0 .335.272.607.607.607.336 0 .607-.272.607-.607 0-.336-.271-.607-.607-.607z" transform="translate(-1)"/>
        <path fill="#006450" d="M23.586 6.5c1.16 0 2.116.87 2.254 1.992h.181c1.16 0 2.118.87 2.255 1.994h-.04c1.202 0 2.186.934 2.266 2.116l.005.155v1.915c1.234 1.284 1.993 3.028 1.993 4.95 0 3.944-3.198 7.142-7.143 7.142-2.034 0-3.87-.85-5.17-2.214H6.536c-1.16 0-2.118-.87-2.255-1.994l.04.001c-1.2 0-2.182-.93-2.265-2.109-.857-.283-1.487-1.063-1.55-2L.5 18.293V8.77c0-1.202.934-2.186 2.116-2.266L2.77 6.5h20.815zm1.771 6.979c-3.392 0-6.143 2.75-6.143 6.142 0 3.393 2.75 6.143 6.143 6.143s6.143-2.75 6.143-6.143c0-3.392-2.75-6.142-6.143-6.142zm-6.513 9.079H5.295c.118.527.563.93 1.11.985l.13.007h12.856c-.208-.314-.39-.646-.547-.992zm-.568-1.994l-15.195.001c.118.527.563.93 1.11.986l.13.006H18.48c-.09-.322-.16-.654-.204-.993zM1.501 15.998L1.5 18.293c0 .658.5 1.2 1.141 1.265l.13.006h2.713c-.422-1.897-2.016-3.352-3.983-3.566zm18.785-8.497H6.571c-.239 2.69-2.381 4.831-5.07 5.07v2.423c2.52.223 4.56 2.119 5.003 4.57h11.71c.03-3.743 2.938-6.8 6.62-7.067-2.44-.45-4.325-2.484-4.548-4.996zm8.006 3.987v1.62c.43.193.837.428 1.216.7v-1.05c0-.66-.501-1.2-1.142-1.266l-.074-.004zm-2.27-1.995l-.165-.001v3.004c.494.034.975.118 1.436.248v-1.98c0-.658-.5-1.2-1.142-1.265l-.13-.006zM5.565 7.5L2.77 7.5c-.658 0-1.2.5-1.264 1.141l-.007.13.001 2.795c2.136-.232 3.833-1.929 4.065-4.065zm18.02-.001l-2.295.001c.214 1.967 1.669 3.561 3.566 3.983V8.77c0-.658-.5-1.2-1.141-1.264l-.13-.007z" transform="translate(-1)"/>
    </g>
</svg>
