<?xml version="1.0" encoding="UTF-8"?>
<svg width="24px" height="24px" viewBox="0 0 24 24" version="1.1" xmlns="http://www.w3.org/2000/svg" xmlns:xlink="http://www.w3.org/1999/xlink">
    <title>C1FC2471-3C4C-455A-BADC-4170BDF8A619</title>
    <g id="Refunds" stroke="none" stroke-width="1" fill="none" fill-rule="evenodd">
        <g id="VAT-Refunds-Details-1" transform="translate(-296.000000, -732.000000)" fill-rule="nonzero">
            <g id="Components-/-Summary-/-01-Copy-3" transform="translate(268.000000, 704.000000)">
                <g id="Partials-/-Icon-/-Summary" transform="translate(16.000000, 16.000000)">
                    <g id="Icons-/-24px-/-Logo-/-Al-Rajhi-/-Positive" transform="translate(12.000000, 12.000000)">
                        <circle id="Oval-Copy-3" fill="#144098" cx="12" cy="12" r="12"></circle>
                        <path d="M7.7680642,6.43037976 L7.7680642,10.4945148 L4,12.6818565 L4,17.5561181 L8.18198037,20 L8.18198037,20 C8.19625332,20 12.0214095,17.8396624 12.0214095,17.8396624 L15.7181088,20 L20,17.5291139 L20,12.6818565 L16.2319358,10.4945148 L16.2319358,6.43037976 L12.0214095,4 L7.7680642,6.43037976 Z M7.7680642,12.4658228 L7.7680642,15.3957806 L10.29438,16.8540084 L8.22479929,18.0556962 L5.71275644,16.5974683 L5.71275644,13.6675106 L7.7680642,12.4658228 Z M12.0214095,5.94430382 L14.5334523,7.40253165 C14.5334523,7.40253165 14.5334523,14.3831224 14.5334523,14.3966245 C14.5191793,14.4101266 12.0356824,15.8413502 12.0214095,15.8413502 C12.0071365,15.8278481 9.49509366,14.3966245 9.46654773,14.3966245 C9.46654773,14.3831224 9.46654773,7.40253165 9.46654773,7.40253165 L12.0214095,5.94430382 Z M16.2319358,12.4658228 L18.3015165,13.6540084 L18.3015165,16.5839662 L15.7752007,18.0421941 L13.719893,16.8405063 L16.2319358,15.3957806 L16.2319358,12.4658228 Z" id="shape" fill="#FFFFFF"></path>
                    </g>
                </g>
            </g>
        </g>
    </g>
</svg>