<?xml version="1.0" encoding="UTF-8"?>
<svg width="24px" height="24px" viewBox="0 0 24 24" version="1.1" xmlns="http://www.w3.org/2000/svg" xmlns:xlink="http://www.w3.org/1999/xlink">
    <title>B1A0B2B7-8342-4398-826A-D1478CCD314F</title>
    <g id="Refunds" stroke="none" stroke-width="1" fill="none" fill-rule="evenodd">
        <g id="VAT-Refunds-Details-1" transform="translate(-296.000000, -1071.000000)" fill-rule="nonzero">
            <g id="Components-/-Summary-/-01-Copy-4" transform="translate(268.000000, 1043.000000)">
                <g id="Partials-/-Icon-/-Summary" transform="translate(16.000000, 16.000000)">
                    <g id="Icons-/-24px-/-Tax-/-Return" transform="translate(12.000000, 12.000000)">
                        <path d="M15.7843055,5.08859116 L15.8535534,5.14644661 L18.8535534,8.14644661 L18.8654113,8.15871357 C18.8770608,8.17118132 18.8880797,8.18424576 18.8984173,8.19785608 L18.8535534,8.14644661 C18.8803877,8.17328088 18.9035342,8.20240643 18.922993,8.23319348 C18.9299807,8.24431753 18.9367067,8.25595333 18.9429657,8.26787276 C18.9502504,8.28172431 18.9566485,8.29546114 18.9623894,8.3094049 C18.9675915,8.32197493 18.9724419,8.33526315 18.9767316,8.34880083 C18.981552,8.36416529 18.9856039,8.37952575 18.9889143,8.39501295 C18.9912332,8.40562898 18.9932062,8.41661634 18.9948142,8.42772188 C18.9973429,8.44546098 18.9989382,8.46293275 18.9996194,8.48043349 C18.9998635,8.48639522 19,8.49318167 19,8.5 L18.9995793,8.52056948 C18.998877,8.53773477 18.9972949,8.55487076 18.9948333,8.57190411 L19,8.5 C19,8.53609704 18.9961748,8.57130067 18.9889078,8.60522765 C18.9856039,8.62047425 18.981552,8.63583471 18.9767587,8.65101164 C18.9724419,8.66473685 18.9675915,8.67802507 18.9622078,8.69103656 C18.9566485,8.70453886 18.9502504,8.71827569 18.943195,8.73175819 C18.9367067,8.74404667 18.9299807,8.75568247 18.922812,8.76701032 C18.9192668,8.77270191 18.9154054,8.77853638 18.9114088,8.7843055 L18.8984173,8.80214392 C18.8880797,8.81575424 18.8770608,8.82881868 18.8654113,8.84128643 L18.8535534,8.85355339 L15.8535534,11.8535534 C15.6582912,12.0488155 15.3417088,12.0488155 15.1464466,11.8535534 C14.9728803,11.679987 14.9535951,11.4105626 15.0885912,11.2156945 L15.1464466,11.1464466 L17.292,9 L10.5,9 C10.2238576,9 10,8.77614237 10,8.5 C10,8.25454011 10.1768752,8.05039163 10.4101244,8.00805567 L10.5,8 L17.292,8 L15.1464466,5.85355339 C14.9728803,5.67998704 14.9535951,5.41056264 15.0885912,5.2156945 L15.1464466,5.14644661 C15.320013,4.97288026 15.5894374,4.95359511 15.7843055,5.08859116 Z" id="Stroke-Gold" fill="#D99A29"></path>
                        <path d="M12,0 C18.627481,0 24,5.37219627 24,12 C24,18.6278037 18.627481,24 12,24 C5.37185763,24 0,18.6281424 0,12 C0,5.37185763 5.37185763,0 12,0 Z M12,1 C5.92414237,1 1,5.92414237 1,12 C1,18.0758576 5.92414237,23 12,23 C18.0752097,23 23,18.0755055 23,12 C23,5.92449446 18.0752097,1 12,1 Z M5.00546187,15.4260822 L5.01109223,15.3947723 L5.01109223,15.3947723 C5.01439613,15.3795257 5.01844802,15.3641653 5.02324135,15.3489884 L5.03779224,15.3089634 L5.03779224,15.3089634 C5.04335147,15.2954611 5.04974961,15.2817243 5.05680497,15.2682418 C5.06329334,15.2559533 5.07001934,15.2443175 5.07718801,15.2329897 C5.08073319,15.2272981 5.08459457,15.2214636 5.08859116,15.2156945 L5.10158273,15.1978561 C5.11192025,15.1842458 5.1229392,15.1711813 5.13458875,15.1587136 L8.14644661,12.1464466 C8.34170876,11.9511845 8.65829124,11.9511845 8.85355339,12.1464466 C9.02711974,12.320013 9.04640489,12.5894374 8.91140884,12.7843055 L8.85355339,12.8535534 L6.706,15 L13.5,15 C13.7761424,15 14,15.2238576 14,15.5 C14,15.7454599 13.8231248,15.9496084 13.5898756,15.9919443 L13.5,16 L6.706,16 L8.85355339,18.1464466 C9.02711974,18.320013 9.04640489,18.5894374 8.91140884,18.7843055 L8.85355339,18.8535534 C8.67998704,19.0271197 8.41056264,19.0464049 8.2156945,18.9114088 L8.14644661,18.8535534 L5.13458875,15.8412864 L5.11759373,15.8221436 L5.11759373,15.8221436 L5.10896102,15.8116622 L5.10896102,15.8116622 L5.135,15.841 L5.105,15.806 L5.07700705,15.7668065 L5.07700705,15.7668065 C5.07001934,15.7556825 5.06329334,15.7440467 5.05703434,15.7321272 C5.04974961,15.7182757 5.04335147,15.7045389 5.03761056,15.6905951 C5.03240845,15.6780251 5.0275581,15.6647369 5.02326842,15.6511992 C5.01844802,15.6358347 5.01439613,15.6204743 5.01108568,15.6049871 L5.00544807,15.5740669 L5.00544807,15.5740669 C5.0023875,15.5532373 5.000611,15.5324012 5.00013238,15.5115408 L5,15.5 L5.00546187,15.4260822 L5.00546187,15.4260822 Z" id="Stroke-Primary" fill="#006450"></path>
                    </g>
                </g>
            </g>
        </g>
    </g>
</svg>