<svg xmlns="http://www.w3.org/2000/svg" width="32" height="32" viewBox="0 0 32 32">
    <g fill="none">
        <path fill="#D99A29" d="M16.29.632l.906.18c2.175.418 3.71.527 4.345.378.487-.116.892.342.762.791l-.033.09L20.6 5.854h.985c.276 0 .5.225.5.5 0 .246-.177.45-.41.493l-.09.008-.015-.002c.631.454 1.256.977 1.848 1.57 2.417 2.424 3.722 5.413 3.298 8.953-.033.275-.282.47-.556.437-.274-.032-.47-.281-.437-.555.383-3.204-.795-5.905-3.013-8.129-.682-.683-1.413-1.268-2.144-1.754l-.367-.236-.172-.104-.319-.181h-4.772l-.228.125c-2.19 1.228-3.618 2.808-4.406 4.662-.874 2.058-.904 4.267-.426 6.329l.082.336c.082.31.157.54.21.675.1.257-.028.547-.286.647-.257.1-.547-.028-.647-.285l-.074-.212-.034-.104c-.077-.244-.154-.523-.226-.831-.52-2.25-.488-4.665.48-6.946.724-1.701 1.928-3.19 3.668-4.41-.222-.047-.39-.247-.39-.485 0-.246.177-.45.41-.492l.09-.008 1.07-.001-.008-.054-.034-.168c-.124-.585-.304-1.17-.552-1.712-.166-.364-.358-.695-.575-.987-.528-.71-.288-1.738.499-2.143C14.176.473 15.07.41 16.29.632zM14.016 1.68c-.238.122-.313.442-.153.656.261.351.487.743.682 1.169.28.614.483 1.268.62 1.921l.062.315.018.113h4.263l1.593-3.61-.043.002c-.966.036-2.455-.131-4.363-.514l-.34-.07c-1.154-.24-1.912-.202-2.339.018zm2.26 1.05l.042.08.908 2.26c.103.257-.021.548-.277.651-.228.092-.484.004-.61-.197l-.04-.08-.91-2.261c-.102-.256.022-.548.278-.65.228-.092.484-.004.61.197zm2.955.095l.09.014c.238.059.393.28.379.516l-.014.09-.478 1.932c-.066.268-.337.432-.605.366-.239-.06-.394-.28-.38-.517l.014-.089.478-1.933c.059-.238.28-.394.516-.379z"/>
        <path fill="#006450" d="M26.794 16.787l.19.02 1.179.172c1.025.15 1.588 1.252 1.144 2.16l-.064.118-1.935 3.224c-.078.13-.166.254-.263.37l-.153.167-4.501 4.555c-.925.936-2.165 1.488-3.473 1.553l-.262.007-9.017-.001-2.88 2.038c-.2.142-.47.116-.639-.05l-.058-.069c-.142-.2-.116-.47.05-.638l.07-.059 3.01-2.13c.063-.044.135-.073.211-.085l.077-.006h9.176c1.055 0 2.07-.392 2.848-1.095l.175-.168 4.502-4.555c.069-.07.132-.145.189-.225l.08-.123 1.936-3.225c.173-.289.025-.653-.28-.753l-.087-.02-1.179-.172c-.583-.084-1.162.15-1.522.609l-.085.119-.662 1.017-.138.203c-.233.332-.45.568-.688.706l-3.423 1.73c.007.07.01.14.01.211 0 1.077-.832 1.959-1.889 2.037l-.152.005h-4.736c-.276 0-.5-.224-.5-.5 0-.245.177-.45.41-.492l.09-.008h4.736c.575 0 1.042-.466 1.042-1.042 0-.537-.407-.979-.929-1.035l-.113-.007h-2.775c-.59 0-1.16-.199-1.618-.562l-.149-.126-.565-.52c-.293-.27-.666-.435-1.06-.473l-.17-.007H8.95c-.824 0-1.62.29-2.247.814l-.168.15-5.19 4.955c-.2.19-.517.183-.708-.017-.17-.177-.182-.447-.043-.639l.06-.068 5.192-4.956c.778-.739 1.791-1.174 2.857-1.233l.247-.006h3.003c.636 0 1.251.215 1.747.607l.16.137.566.52c.26.239.59.385.938.417l.15.007h2.776c.699 0 1.315.351 1.684.887l3.226-1.63c.08-.035.195-.145.33-.322l.14-.197.724-1.109c.525-.808 1.447-1.26 2.399-1.192zm-5.59-2.893c.19 0 .344-.053.46-.159.116-.106.175-.247.175-.428 0-.184-.059-.328-.175-.434-.116-.105-.27-.159-.46-.159h-.887c-.024 0-.037.013-.037.037v1.107c0 .024.013.035.037.035h.886zM13.567 12c.26 0 .508.038.742.113.234.075.434.176.6.303.03.024.034.053.014.085l-.294.452c-.024.033-.053.039-.085.019-.171-.111-.336-.192-.495-.245-.16-.052-.326-.08-.501-.08-.212 0-.374.053-.485.157-.113.103-.168.237-.168.4 0 .143.056.262.17.357.115.096.312.164.593.205l.22.03c.404.057.71.182.922.376.212.193.318.47.318.828 0 .183-.033.353-.097.513-.066.159-.164.296-.297.409-.132.114-.296.204-.491.268-.196.066-.422.099-.68.099-.153 0-.304-.015-.451-.043-.147-.028-.286-.067-.418-.116-.133-.049-.255-.108-.366-.174-.113-.067-.21-.14-.29-.217-.034-.033-.037-.063-.013-.092l.379-.44c.028-.032.056-.034.085-.006.065.053.139.107.223.159.083.053.173.1.269.141.096.04.196.074.303.101.105.026.218.039.336.039.248 0 .44-.056.577-.167.137-.113.204-.256.204-.432 0-.15-.055-.274-.164-.369-.111-.096-.31-.164-.593-.205l-.221-.031c-.402-.056-.712-.181-.927-.376-.216-.193-.325-.462-.325-.808 0-.188.034-.359.098-.514.066-.154.159-.287.28-.396.123-.111.27-.196.445-.254.173-.059.367-.089.583-.089zm7.66.068c.191 0 .367.03.528.091.161.06.301.146.42.255.116.107.21.236.276.39.067.152.101.32.101.503 0 .274-.072.51-.214.71-.143.199-.334.344-.574.434l.874 1.69c.011.022.012.04.002.057-.009.014-.025.023-.045.023h-.678c-.045 0-.075-.02-.092-.06l-.794-1.62h-.715c-.024 0-.037.012-.037.037v1.582c0 .041-.02.061-.06.061h-.599c-.04 0-.062-.02-.062-.06v-4.033c0-.04.021-.06.062-.06h1.606zm-3.722-.001c.041 0 .068.02.081.062l1.405 4.03c.012.042-.003.063-.043.063h-.599c-.04 0-.067-.021-.08-.062l-.274-.806h-1.565l-.274.806c-.012.04-.039.062-.079.062h-.593c-.04 0-.055-.021-.043-.062l1.424-4.031c.012-.041.038-.062.08-.062h.56zm-.28 1.033h-.018l-.556 1.613h1.124l-.55-1.613z"/>
    </g>
</svg>
