<svg xmlns="http://www.w3.org/2000/svg" width="25" height="25" viewBox="0 0 25 25">
    <g fill="none" fill-rule="evenodd">
        <g fill="#999999" fill-rule="nonzero">
            <g>
                <path d="M12.5 19c1.38 0 2.5 1.12 2.5 2.5S13.88 24 12.5 24 10 22.88 10 21.5s1.12-2.5 2.5-2.5zm0-9c1.38 0 2.5 1.12 2.5 2.5S13.88 15 12.5 15 10 13.88 10 12.5s1.12-2.5 2.5-2.5zm0-10C13.88 0 15 1.12 15 2.5S13.88 5 12.5 5 10 3.88 10 2.5 11.12 0 12.5 0z" transform="translate(-389 -23) matrix(0 -1 1 0 389 48)"/>
            </g>
        </g>
    </g>
</svg>
