<svg xmlns="http://www.w3.org/2000/svg" width="24" height="24" viewBox="0 0 24 24">
    <g fill="none" fill-rule="evenodd">
        <g fill-rule="nonzero">
            <path fill="#006450" d="M14.506 0c.027 0 .054.003.08.007L14.5 0c.037 0 .073.004.108.012.02.004.04.01.058.016l.032.013.041.02c.012.006.024.014.036.022.028.018.054.04.079.063l-.049-.042.036.03.013.012 6 6 .012.013.03.036.021.03c.008.012.016.024.022.036l.02.04.013.033c.006.019.012.038.016.058l.004.018c.005.032.008.061.008.09v17c0 .276-.224.5-.5.5h-17c-.276 0-.5-.224-.5-.5V.5c0-.276.224-.5.5-.5zM14 .999L4 1v22h16V7h-5.5c-.245 0-.45-.177-.492-.41L14 6.5V.999zM19.294 6L15 1.706V6h4.294z"/>
            <path fill="#D99A29" d="M17.4 18.1c.276 0 .5.224.5.5 0 .245-.177.45-.41.492l-.09.008H6.583c-.276 0-.5-.224-.5-.5 0-.245.177-.45.41-.492l.09-.008H17.4zm-1.2-2.4c.276 0 .5.224.5.5 0 .245-.177.45-.41.492l-.09.008H6.6c-.276 0-.5-.224-.5-.5 0-.245.177-.45.41-.492l.09-.008h9.6zm-1.8-2.4c.276 0 .5.224.5.5 0 .245-.177.45-.41.492l-.09.008H6.6c-.276 0-.5-.224-.5-.5 0-.245.177-.45.41-.492l.09-.008h7.8zm-3-2.4c.276 0 .5.224.5.5 0 .245-.177.45-.41.492l-.09.008H6.6c-.276 0-.5-.224-.5-.5 0-.245.177-.45.41-.492l.09-.008h4.8z"/>
        </g>
    </g>
</svg>
